<svg width="45" height="54" viewBox="0 0 45 54" fill="none" xmlns="http://www.w3.org/2000/svg">
<path fill-rule="evenodd" clip-rule="evenodd" d="M22.8324 0.125C16.274 0.125 10.9574 5.44162 10.9574 12C10.9574 18.5584 16.274 23.875 22.8324 23.875C29.3907 23.875 34.7074 18.5584 34.7074 12C34.7074 5.44162 29.3907 0.125 22.8324 0.125ZM14.7074 12C14.7074 7.51269 18.3451 3.875 22.8324 3.875C27.3197 3.875 30.9574 7.51269 30.9574 12C30.9574 16.4873 27.3197 20.125 22.8324 20.125C18.3451 20.125 14.7074 16.4873 14.7074 12Z" fill="#52AFA8"/>
<path fill-rule="evenodd" clip-rule="evenodd" d="M22.8324 27.625C17.0485 27.625 11.7197 28.9397 7.77099 31.1608C3.88107 33.3489 0.957367 36.6652 0.957367 40.75L0.957201 41.0049C0.954377 43.9095 0.950832 47.555 4.1484 50.1589C5.72207 51.4404 7.92356 52.3516 10.8979 52.9537C13.8805 53.5574 17.7679 53.875 22.8324 53.875C27.8968 53.875 31.7842 53.5574 34.7668 52.9537C37.7412 52.3516 39.9427 51.4404 41.5163 50.1589C44.7139 47.555 44.7104 43.9095 44.7075 41.0049L44.7074 40.75C44.7074 36.6652 41.7837 33.3489 37.8937 31.1608C33.9451 28.9397 28.6162 27.625 22.8324 27.625ZM4.70737 40.75C4.70737 38.6216 6.26081 36.3129 9.60947 34.4293C12.8994 32.5787 17.5705 31.375 22.8324 31.375C28.0942 31.375 32.7654 32.5787 36.0553 34.4293C39.4039 36.3129 40.9574 38.6216 40.9574 40.75C40.9574 44.0195 40.8566 45.86 39.1484 47.251C38.2221 48.0054 36.6736 48.7417 34.0229 49.2782C31.3805 49.813 27.7679 50.125 22.8324 50.125C17.8968 50.125 14.2842 49.813 11.6418 49.2782C8.99117 48.7417 7.44266 48.0054 6.51634 47.251C4.80815 45.86 4.70737 44.0195 4.70737 40.75Z" fill="#52AFA8"/>
</svg>
