<svg width="50" height="54" viewBox="0 0 50 54" fill="none" xmlns="http://www.w3.org/2000/svg">
<path d="M32.8146 23.2488C33.5043 22.4763 33.4372 21.291 32.6648 20.6014C31.8924 19.9117 30.7071 19.9788 30.0174 20.7512L22.4874 29.1848L20.3146 26.7512C19.625 25.9788 18.4397 25.9117 17.6672 26.6014C16.8948 27.291 16.8277 28.4763 17.5174 29.2488L21.0888 33.2488C21.4445 33.6472 21.9533 33.875 22.4874 33.875C23.0216 33.875 23.5303 33.6472 23.8861 33.2488L32.8146 23.2488Z" fill="#2B7FDE"/>
<path fill-rule="evenodd" clip-rule="evenodd" d="M25.166 0.125C22.8222 0.125 20.5843 0.891457 16.9745 2.12779L15.1559 2.75034C11.4526 4.018 8.59452 4.99631 6.54859 5.82746C5.51798 6.24615 4.63193 6.65167 3.91847 7.06602C3.23187 7.46476 2.54307 7.9621 2.0751 8.62885C1.61253 9.2879 1.37335 10.0981 1.22305 10.878C1.0668 11.6889 0.972575 12.6616 0.911763 13.7784C0.791016 15.9959 0.791016 19.0338 0.791016 22.9741V26.9784C0.791016 42.231 12.3111 49.5438 19.1618 52.5364L19.2296 52.566C20.0791 52.9372 20.8776 53.2861 21.795 53.521C22.7637 53.7689 23.7929 53.875 25.166 53.875C26.5392 53.875 27.5683 53.7689 28.537 53.521C29.4544 53.2861 30.2529 52.9372 31.1024 52.566L31.1702 52.5364C38.0209 49.5438 49.541 42.231 49.541 26.9784V22.9745C49.541 19.034 49.541 15.996 49.4203 13.7784C49.3595 12.6616 49.2652 11.6889 49.109 10.878C48.9587 10.0981 48.7195 9.2879 48.2569 8.62885C47.789 7.9621 47.1002 7.46476 46.4136 7.06602C45.7001 6.65167 44.8141 6.24615 43.7834 5.82746C41.7375 4.99631 38.8795 4.01799 35.1761 2.75033L33.3576 2.12779C29.7477 0.891458 27.5098 0.125 25.166 0.125ZM17.8676 5.78574C21.9039 4.40409 23.5217 3.875 25.166 3.875C26.8104 3.875 28.4281 4.40409 32.4645 5.78574L33.8965 6.27593C37.678 7.57035 40.4358 8.51512 42.372 9.30172C43.3385 9.69435 44.0388 10.0234 44.5303 10.3088C44.773 10.4498 44.9402 10.566 45.0518 10.6568C45.1464 10.7337 45.1826 10.7773 45.1878 10.7837C45.1926 10.7915 45.2237 10.8434 45.2674 10.9663C45.3174 11.1066 45.3728 11.3077 45.4267 11.5876C45.5359 12.1542 45.6187 12.9325 45.6758 13.9823C45.7903 16.0853 45.791 19.0208 45.791 23.0416V26.9784C45.791 39.9162 36.1163 46.2836 29.669 49.1C28.7403 49.5057 28.204 49.7353 27.607 49.8881C27.0368 50.0341 26.341 50.125 25.166 50.125C23.991 50.125 23.2952 50.0341 22.725 49.8881C22.128 49.7353 21.5917 49.5056 20.663 49.1C14.2158 46.2836 4.54102 39.9161 4.54102 26.9784V23.0416C4.54102 19.0208 4.5417 16.0853 4.65622 13.9823C4.71338 12.9325 4.79612 12.1542 4.9053 11.5876C4.95925 11.3077 5.01463 11.1066 5.06459 10.9663C5.10834 10.8435 5.13941 10.7916 5.14424 10.7837C5.14942 10.7774 5.18551 10.7338 5.28019 10.6568C5.39186 10.566 5.55907 10.4498 5.80173 10.3088C6.29327 10.0234 6.99352 9.69434 7.96 9.30172C9.89626 8.51512 12.654 7.57035 16.4355 6.27593L17.8676 5.78574Z" fill="#2B7FDE"/>
</svg>
