<svg width="53" height="52" viewBox="0 0 53 52" fill="none" xmlns="http://www.w3.org/2000/svg">
<path fill-rule="evenodd" clip-rule="evenodd" d="M12.62 0.375003C10.3738 0.374932 8.50075 0.374872 7.01381 0.574786C5.44432 0.785798 4.02732 1.24997 2.88865 2.38865C1.74997 3.52732 1.2858 4.94432 1.07479 6.51381C0.874872 8.00075 0.874932 9.87377 0.875003 12.1199V12.38C0.874932 14.6262 0.874872 16.4993 1.07479 17.9862C1.2858 19.5557 1.74997 20.9727 2.88865 22.1114C4.02732 23.25 5.44432 23.7142 7.01381 23.9252C8.50075 24.1251 10.3738 24.1251 12.6199 24.125H12.88C15.1262 24.1251 16.9993 24.1251 18.4862 23.9252C20.0557 23.7142 21.4727 23.25 22.6114 22.1114C23.75 20.9727 24.2142 19.5557 24.4252 17.9862C24.6251 16.4993 24.6251 14.6262 24.625 12.3801V12.12C24.6251 9.87385 24.6251 8.00075 24.4252 6.51381C24.2142 4.94432 23.75 3.52732 22.6114 2.38865C21.4727 1.24997 20.0557 0.785798 18.4862 0.574786C16.9993 0.374872 15.1262 0.374932 12.8801 0.375003H12.62ZM5.5403 5.0403C5.86609 4.71451 6.35983 4.44645 7.51349 4.29135C8.72108 4.12899 10.34 4.12501 12.75 4.12501C15.16 4.12501 16.7789 4.12899 17.9865 4.29135C19.1402 4.44645 19.6339 4.71451 19.9597 5.0403C20.2855 5.36609 20.5536 5.85983 20.7087 7.01349C20.871 8.22108 20.875 9.83998 20.875 12.25C20.875 14.66 20.871 16.2789 20.7087 17.4865C20.5536 18.6402 20.2855 19.1339 19.9597 19.4597C19.6339 19.7855 19.1402 20.0536 17.9865 20.2087C16.7789 20.371 15.16 20.375 12.75 20.375C10.34 20.375 8.72108 20.371 7.51349 20.2087C6.35983 20.0536 5.86609 19.7855 5.5403 19.4597C5.21451 19.1339 4.94645 18.6402 4.79135 17.4865C4.62899 16.2789 4.62501 14.66 4.62501 12.25C4.62501 9.83998 4.62899 8.22108 4.79135 7.01349C4.94645 5.85983 5.21451 5.36609 5.5403 5.0403Z" fill="#E8663D"/>
<path fill-rule="evenodd" clip-rule="evenodd" d="M40.12 27.875C37.8738 27.8749 36.0008 27.8749 34.5138 28.0748C32.9443 28.2858 31.5273 28.75 30.3886 29.8886C29.25 31.0273 28.7858 32.4443 28.5748 34.0138C28.3749 35.5008 28.3749 37.3738 28.375 39.62V39.88C28.3749 42.1262 28.3749 43.9993 28.5748 45.4862C28.7858 47.0557 29.25 48.4727 30.3886 49.6114C31.5273 50.75 32.9443 51.2142 34.5138 51.4252C36.0007 51.6251 37.8737 51.6251 40.1198 51.625H40.38C42.6261 51.6251 44.4993 51.6251 45.9862 51.4252C47.5557 51.2142 48.9727 50.75 50.1114 49.6114C51.25 48.4727 51.7142 47.0557 51.9252 45.4862C52.1251 43.9993 52.1251 42.1263 52.125 39.8802V39.62C52.1251 37.3739 52.1251 35.5007 51.9252 34.0138C51.7142 32.4443 51.25 31.0273 50.1114 29.8886C48.9727 28.75 47.5557 28.2858 45.9862 28.0748C44.4993 27.8749 42.6262 27.8749 40.38 27.875H40.12ZM33.0403 32.5403C33.3661 32.2145 33.8598 31.9465 35.0135 31.7913C36.2211 31.629 37.84 31.625 40.25 31.625C42.66 31.625 44.2789 31.629 45.4865 31.7913C46.6402 31.9465 47.1339 32.2145 47.4597 32.5403C47.7855 32.8661 48.0536 33.3598 48.2087 34.5135C48.371 35.7211 48.375 37.34 48.375 39.75C48.375 42.16 48.371 43.7789 48.2087 44.9865C48.0536 46.1402 47.7855 46.6339 47.4597 46.9597C47.1339 47.2855 46.6402 47.5536 45.4865 47.7087C44.2789 47.871 42.66 47.875 40.25 47.875C37.84 47.875 36.2211 47.871 35.0135 47.7087C33.8598 47.5536 33.3661 47.2855 33.0403 46.9597C32.7145 46.6339 32.4465 46.1402 32.2913 44.9865C32.129 43.7789 32.125 42.16 32.125 39.75C32.125 37.34 32.129 35.7211 32.2913 34.5135C32.4465 33.3598 32.7145 32.8661 33.0403 32.5403Z" fill="#E8663D"/>
<path fill-rule="evenodd" clip-rule="evenodd" d="M12.62 27.875H12.88C15.1262 27.8749 16.9993 27.8749 18.4862 28.0748C20.0557 28.2858 21.4727 28.75 22.6114 29.8886C23.75 31.0273 24.2142 32.4443 24.4252 34.0138C24.6251 35.5007 24.6251 37.3738 24.625 39.6199V39.88C24.6251 42.1262 24.6251 43.9993 24.4252 45.4862C24.2142 47.0557 23.75 48.4727 22.6114 49.6114C21.4727 50.75 20.0557 51.2142 18.4862 51.4252C16.9993 51.6251 15.1263 51.6251 12.8802 51.625H12.62C10.3739 51.6251 8.50073 51.6251 7.01381 51.4252C5.44432 51.2142 4.02732 50.75 2.88865 49.6114C1.74997 48.4727 1.2858 47.0557 1.07479 45.4862C0.874872 43.9993 0.874932 42.1262 0.875003 39.8801V39.62C0.874932 37.3738 0.874872 35.5007 1.07479 34.0138C1.2858 32.4443 1.74997 31.0273 2.88865 29.8886C4.02732 28.75 5.44432 28.2858 7.01381 28.0748C8.50076 27.8749 10.3738 27.8749 12.62 27.875ZM7.51349 31.7913C6.35983 31.9465 5.86609 32.2145 5.5403 32.5403C5.21451 32.8661 4.94645 33.3598 4.79135 34.5135C4.62899 35.7211 4.62501 37.34 4.62501 39.75C4.62501 42.16 4.62899 43.7789 4.79135 44.9865C4.94645 46.1402 5.21451 46.6339 5.5403 46.9597C5.86609 47.2855 6.35983 47.5536 7.51349 47.7087C8.72108 47.871 10.34 47.875 12.75 47.875C15.16 47.875 16.7789 47.871 17.9865 47.7087C19.1402 47.5536 19.6339 47.2855 19.9597 46.9597C20.2855 46.6339 20.5536 46.1402 20.7087 44.9865C20.871 43.7789 20.875 42.16 20.875 39.75C20.875 37.34 20.871 35.7211 20.7087 34.5135C20.5536 33.3598 20.2855 32.8661 19.9597 32.5403C19.6339 32.2145 19.1402 31.9465 17.9865 31.7913C16.7789 31.629 15.16 31.625 12.75 31.625C10.34 31.625 8.72108 31.629 7.51349 31.7913Z" fill="#E8663D"/>
<path fill-rule="evenodd" clip-rule="evenodd" d="M40.12 0.375003C37.8738 0.374932 36.0007 0.374872 34.5138 0.574786C32.9443 0.785798 31.5273 1.24997 30.3886 2.38865C29.25 3.52732 28.7858 4.94432 28.5748 6.51381C28.3749 8.00076 28.3749 9.87381 28.375 12.12V12.38C28.3749 14.6262 28.3749 16.4993 28.5748 17.9862C28.7858 19.5557 29.25 20.9727 30.3886 22.1114C31.5273 23.25 32.9443 23.7142 34.5138 23.9252C36.0007 24.1251 37.8738 24.1251 40.1199 24.125H40.38C42.6262 24.1251 44.4993 24.1251 45.9862 23.9252C47.5557 23.7142 48.9727 23.25 50.1114 22.1114C51.25 20.9727 51.7142 19.5557 51.9252 17.9862C52.1251 16.4993 52.1251 14.6262 52.125 12.3801V12.12C52.1251 9.87385 52.1251 8.00075 51.9252 6.51381C51.7142 4.94432 51.25 3.52732 50.1114 2.38865C48.9727 1.24997 47.5557 0.785798 45.9862 0.574786C44.4993 0.374872 42.6262 0.374932 40.3801 0.375003H40.12ZM33.0403 5.0403C33.3661 4.71451 33.8598 4.44645 35.0135 4.29135C36.2211 4.12899 37.84 4.12501 40.25 4.12501C42.66 4.12501 44.2789 4.12899 45.4865 4.29135C46.6402 4.44645 47.1339 4.71451 47.4597 5.0403C47.7855 5.36609 48.0536 5.85983 48.2087 7.01349C48.371 8.22108 48.375 9.83998 48.375 12.25C48.375 14.66 48.371 16.2789 48.2087 17.4865C48.0536 18.6402 47.7855 19.1339 47.4597 19.4597C47.1339 19.7855 46.6402 20.0536 45.4865 20.2087C44.2789 20.371 42.66 20.375 40.25 20.375C37.84 20.375 36.2211 20.371 35.0135 20.2087C33.8598 20.0536 33.3661 19.7855 33.0403 19.4597C32.7145 19.1339 32.4465 18.6402 32.2913 17.4865C32.129 16.2789 32.125 14.66 32.125 12.25C32.125 9.83998 32.129 8.22108 32.2913 7.01349C32.4465 5.85983 32.7145 5.36609 33.0403 5.0403Z" fill="#E8663D"/>
</svg>
