<svg width="10" height="11" viewBox="0 0 10 11" fill="none" xmlns="http://www.w3.org/2000/svg">
<path d="M9.93333 4.88206C9.89367 4.77976 9.8342 4.68631 9.75833 4.60706L5.59167 0.440389C5.51397 0.36269 5.42173 0.301056 5.32021 0.259006C5.21869 0.216956 5.10988 0.195312 5 0.195312C4.77808 0.195312 4.56525 0.283469 4.40833 0.440389C4.33063 0.518088 4.269 0.61033 4.22695 0.711848C4.1849 0.813366 4.16326 0.922173 4.16326 1.03206C4.16326 1.25397 4.25141 1.4668 4.40833 1.62372L7.15833 4.36539H0.833333C0.61232 4.36539 0.400358 4.45319 0.244078 4.60947C0.0877975 4.76575 0 4.97771 0 5.19872C0 5.41974 0.0877975 5.6317 0.244078 5.78798C0.400358 5.94426 0.61232 6.03206 0.833333 6.03206H7.15833L4.40833 8.77372C4.33023 8.85119 4.26823 8.94336 4.22592 9.04491C4.18362 9.14646 4.16183 9.25538 4.16183 9.36539C4.16183 9.4754 4.18362 9.58432 4.22592 9.68587C4.26823 9.78742 4.33023 9.87959 4.40833 9.95705C4.4858 10.0352 4.57797 10.0972 4.67952 10.1395C4.78107 10.1818 4.88999 10.2036 5 10.2036C5.11001 10.2036 5.21893 10.1818 5.32048 10.1395C5.42203 10.0972 5.5142 10.0352 5.59167 9.95705L9.75833 5.79039C9.8342 5.71114 9.89367 5.61768 9.93333 5.51539C10.0167 5.3125 10.0167 5.08494 9.93333 4.88206Z" fill="#0599EB"/>
</svg>
