<svg width="4" height="6" viewBox="0 0 4 6" fill="none" xmlns="http://www.w3.org/2000/svg">
<path d="M3.41485 2.64485L1.29485 0.524852C1.24837 0.477988 1.19307 0.440791 1.13214 0.415406C1.07121 0.390022 1.00586 0.376953 0.939849 0.376953C0.873843 0.376953 0.808491 0.390022 0.747561 0.415406C0.686631 0.440791 0.631331 0.477988 0.584849 0.524852C0.491724 0.618533 0.439453 0.745259 0.439453 0.877352C0.439453 1.00945 0.491724 1.13617 0.584849 1.22985L2.35485 2.99985L0.584849 4.76985C0.491724 4.86353 0.439453 4.99026 0.439453 5.12235C0.439453 5.25445 0.491724 5.38117 0.584849 5.47485C0.631569 5.52119 0.686977 5.55786 0.747896 5.58274C0.808815 5.60762 0.874046 5.62023 0.939849 5.61985C1.00565 5.62023 1.07088 5.60762 1.1318 5.58274C1.19272 5.55786 1.24813 5.52119 1.29485 5.47485L3.41485 3.35485C3.46171 3.30837 3.49891 3.25307 3.52429 3.19214C3.54968 3.13121 3.56275 3.06586 3.56275 2.99985C3.56275 2.93385 3.54968 2.86849 3.52429 2.80756C3.49891 2.74663 3.46171 2.69133 3.41485 2.64485Z" fill="#6E7F98"/>
</svg>
