<svg width="27" height="36" viewBox="0 0 27 36" fill="none" xmlns="http://www.w3.org/2000/svg">
<path fill-rule="evenodd" clip-rule="evenodd" d="M13.3962 0.0839849H13.6043C16.9605 0.0839581 19.6093 0.0839368 21.5386 0.338307C23.4348 0.588326 25.1386 1.13929 25.9478 2.71041C26.0644 2.93677 26.1628 3.172 26.242 3.4139C26.7942 5.09886 25.9771 6.69043 24.8134 8.1968C23.63 9.72871 21.7563 11.5842 19.3841 13.9333L15.2767 18.0007L19.3841 22.068C21.7563 24.4171 23.63 26.2726 24.8134 27.8045C25.9771 29.3109 26.7942 30.9024 26.2421 32.5874C26.1628 32.8293 26.0644 33.0645 25.9478 33.2909C25.1386 34.862 23.4348 35.413 21.5386 35.663C19.6093 35.9174 16.9605 35.9173 13.6043 35.9173H13.3963C10.0401 35.9173 7.39128 35.9174 5.462 35.663C3.56574 35.413 1.86194 34.862 1.05276 33.2909C0.936176 33.0645 0.837775 32.8293 0.75851 32.5874C0.206404 30.9024 1.02344 29.3109 2.18713 27.8045C3.37056 26.2726 5.24426 24.4171 7.61647 22.068L11.7238 18.0007L7.61648 13.9333C5.24427 11.5842 3.37056 9.72871 2.18713 8.1968C1.02344 6.69043 0.206404 5.09886 0.75851 3.41391C0.837774 3.172 0.936175 2.93677 1.05276 2.71041C1.86194 1.13929 3.56574 0.588326 5.462 0.338307C7.39127 0.0839368 10.04 0.0839581 13.3962 0.0839849ZM13.5003 16.2415L17.5502 12.2309C20.0134 9.79165 21.7659 8.0524 22.835 6.66844C23.9363 5.24289 23.996 4.58819 23.8663 4.19236C23.8284 4.07654 23.7812 3.96376 23.7253 3.8551C23.5308 3.47745 23.0106 3.05403 21.2118 2.81686C19.4658 2.58666 16.9831 2.58399 13.5003 2.58399C10.0175 2.58399 7.53474 2.58666 5.78879 2.81686C3.98994 3.05403 3.4698 3.47745 3.2753 3.8551C3.21934 3.96376 3.17217 4.07653 3.13422 4.19235C3.00452 4.58819 3.06429 5.24289 4.16555 6.66844C5.23468 8.0524 6.98713 9.79166 9.45034 12.2309L13.5003 16.2415ZM13.5003 19.7598L9.45034 23.7704C6.98713 26.2097 5.23467 27.9489 4.16555 29.3329C3.06429 30.7584 3.00452 31.4131 3.13422 31.8089C3.17217 31.9248 3.21933 32.0375 3.2753 32.1462C3.4698 32.5239 3.98994 32.9473 5.78879 33.1844C7.53474 33.4146 10.0175 33.4173 13.5003 33.4173C16.9831 33.4173 19.4658 33.4146 21.2118 33.1844C23.0106 32.9473 23.5308 32.5239 23.7253 32.1462C23.7812 32.0375 23.8284 31.9248 23.8663 31.8089C23.996 31.4131 23.9363 30.7584 22.835 29.3329C21.7659 27.9489 20.0134 26.2096 17.5502 23.7704L13.5003 19.7598ZM8.91695 7.16732C8.91695 6.47696 9.47659 5.91732 10.1669 5.91732H16.8336C17.524 5.91732 18.0836 6.47696 18.0836 7.16732C18.0836 7.85767 17.524 8.41732 16.8336 8.41732H10.1669C9.47659 8.41732 8.91695 7.85767 8.91695 7.16732ZM8.91695 28.834C8.91695 28.1436 9.47659 27.584 10.1669 27.584H16.8336C17.524 27.584 18.0836 28.1436 18.0836 28.834C18.0836 29.5243 17.524 30.084 16.8336 30.084H10.1669C9.47659 30.084 8.91695 29.5243 8.91695 28.834Z" fill="#2B7FDE"/>
</svg>
