<svg width="61" height="46" viewBox="0 0 61 46" fill="none" xmlns="http://www.w3.org/2000/svg">
<path d="M25.1797 38.2207C25.1797 31.4036 19.6336 25.8574 12.8164 25.8574L11.6445 35.9845L12.8164 45.3105H25.1797V38.2207Z" fill="#FF3377"/>
<path d="M0.453125 38.2207V45.3105H12.8164V25.8574C5.99926 25.8574 0.453125 31.4036 0.453125 38.2207Z" fill="#FF6C6C"/>
<path d="M60.4531 33.7062C60.4531 28.1985 57.6339 23.3373 53.3633 20.4883L52.1914 30.9197L53.3633 45.3114H60.4531V33.7062Z" fill="#24B3B3"/>
<path d="M49.8477 18.7285L48.6758 31.3027L49.8477 45.3112H53.3633V20.4882C52.2691 19.7579 51.0881 19.1668 49.8477 18.7285Z" fill="#198080"/>
<path d="M49.8477 18.7276C48.1968 18.1446 46.4221 17.8262 44.5742 17.8262L43.4023 38.279L44.5742 45.3103H49.8477V18.7276Z" fill="#ECE6F2"/>
<path d="M39.3008 18.7276L38.1289 30.3227L39.3008 45.3103H44.5742V17.8262C42.7263 17.8262 40.9516 18.1446 39.3008 18.7276Z" fill="#FFF5F5"/>
<path d="M46.332 17.8262H43.4023L44.5742 38.279H46.332V17.8262Z" fill="#283366"/>
<path d="M42.8164 17.8262H44.5742V38.279H42.8164V17.8262Z" fill="#404A80"/>
<path d="M35.7852 20.4882L34.6133 32.1966L35.7852 45.3112H39.3008V18.7285C38.0604 19.1668 36.8794 19.7579 35.7852 20.4882Z" fill="#24B3B3"/>
<path d="M28.6953 33.7061V45.3113H35.7852V20.4883C31.5145 23.3373 28.6953 28.1984 28.6953 33.7061Z" fill="#2EE6A8"/>
<path d="M52.2338 3.51758H43.4023L44.5742 20.2111C46.5068 20.2111 48.3125 19.6686 49.8477 18.7277C52.7462 16.9511 54.6798 13.7541 54.6798 10.1055C54.6799 7.58774 53.7569 5.28688 52.2338 3.51758Z" fill="#FFCC66"/>
<path d="M36.9147 3.51758C35.3916 5.28688 34.4688 7.58774 34.4688 10.1054C34.4688 15.6866 38.9932 20.2111 44.5744 20.2111V3.51758H36.9147Z" fill="#FFE666"/>
<path d="M44.5742 0L43.4023 3.51773L44.5742 7.03125C47.6364 7.03125 50.3806 5.66918 52.2338 3.51773C50.3806 1.365 47.6376 0 44.5742 0Z" fill="#ECE6F2"/>
<path d="M36.9141 3.51773C38.7673 5.66906 41.5114 7.03125 44.5737 7.03125V0C41.5103 0 38.7673 1.365 36.9141 3.51773Z" fill="#FFF5F5"/>
<path d="M21.2776 18.8527L11.6445 14.748L12.8164 27.6143C17.4935 27.6143 21.285 23.8228 21.285 19.1457C21.285 19.0474 21.2809 18.9502 21.2776 18.8527Z" fill="#FFCC66"/>
<path d="M4.35504 18.8527C4.35176 18.9502 4.34766 19.0474 4.34766 19.1456C4.34766 23.8228 8.13914 27.6143 12.8162 27.6143V14.748L4.35504 18.8527Z" fill="#FFE666"/>
<path d="M16.332 18.8533H21.2776C21.1229 14.3122 17.3952 10.6777 12.8164 10.6777L11.6445 13.8487L12.8164 17.0926C13.6188 18.161 14.896 18.8533 16.332 18.8533Z" fill="#283366"/>
<path d="M4.35547 18.8533H9.30102C10.737 18.8533 12.0143 18.1609 12.8166 17.0925V10.6777C8.23777 10.6777 4.51016 14.3122 4.35547 18.8533Z" fill="#404A80"/>
</svg>
