<svg width="37" height="36" viewBox="0 0 37 36" fill="none" xmlns="http://www.w3.org/2000/svg">
<path fill-rule="evenodd" clip-rule="evenodd" d="M22.258 0.273319C20.4313 -0.236577 18.7206 0.314634 17.5049 1.43168C16.3081 2.53142 15.584 4.17496 15.584 5.93349V17.091C15.584 19.2034 17.2964 20.9158 19.4088 20.9158H30.5663C32.3248 20.9158 33.9683 20.1917 35.0681 18.9948C36.1851 17.7791 36.7364 16.0685 36.2265 14.2418C34.3396 7.48248 29.0173 2.16015 22.258 0.273319ZM18.084 5.93349C18.084 4.84796 18.5342 3.88107 19.1964 3.27256C19.8398 2.68135 20.6731 2.42649 21.5858 2.68126C27.5028 4.33295 32.1668 8.99702 33.8185 14.914C34.0733 15.8267 33.8184 16.6599 33.2272 17.3033C32.6187 17.9656 31.6518 18.4158 30.5663 18.4158H19.4088C18.6771 18.4158 18.084 17.8227 18.084 17.091V5.93349Z" fill="#2B7FDE"/>
<path d="M12.9545 5.85835C13.6132 5.65149 13.9794 4.94986 13.7725 4.29123C13.5657 3.63259 12.864 3.26636 12.2054 3.47323C5.47117 5.58833 0.583984 11.879 0.583984 19.3144C0.583984 28.4831 8.01668 35.9158 17.1854 35.9158C24.6208 35.9158 30.9114 31.0286 33.0265 24.2944C33.2334 23.6357 32.8672 22.9341 32.2085 22.7272C31.5499 22.5204 30.8483 22.8866 30.6414 23.5453C28.8442 29.2675 23.4976 33.4158 17.1854 33.4158C9.39739 33.4158 3.08398 27.1024 3.08398 19.3144C3.08398 13.0022 7.2323 7.6556 12.9545 5.85835Z" fill="#2B7FDE"/>
</svg>
