<svg width="60" height="54" viewBox="0 0 60 54" fill="none" xmlns="http://www.w3.org/2000/svg">
<path d="M46.8573 37.7594L1.98563 31.4532C0.724225 31.2759 -0.154564 30.1096 0.0227407 28.8483L3.74227 2.38212C3.91958 1.12071 5.08583 0.24192 6.34712 0.419225L51.2188 6.72555C52.4802 6.90286 53.359 8.06911 53.1817 9.3304L49.4622 35.7966C49.285 37.0579 48.1187 37.9367 46.8573 37.7594Z" fill="url(#paint0_linear_410_3093)"/>
<path d="M46.8573 37.7594L1.98563 31.4532C0.724225 31.2759 -0.154564 30.1096 0.0227407 28.8483L3.74227 2.38212C3.91958 1.12071 5.08583 0.24192 6.34712 0.419225L51.2188 6.72555C52.4802 6.90286 53.359 8.06911 53.1817 9.3304L49.4622 35.7966C49.285 37.0579 48.1187 37.9367 46.8573 37.7594Z" fill="url(#paint1_linear_410_3093)"/>
<path d="M2.32422 12.4659L51.7637 19.4141L52.8505 11.6807L3.41113 4.73242L2.32422 12.4659Z" fill="url(#paint2_linear_410_3093)"/>
<path d="M23.2427 18.8714L6.7252 16.55C6.54116 16.5232 6.37522 16.4246 6.26366 16.2758C6.15211 16.127 6.10401 15.9401 6.1299 15.756C6.15578 15.5718 6.25354 15.4054 6.40179 15.2931C6.55004 15.1808 6.73673 15.1318 6.92102 15.1568L23.4386 17.4781C23.5301 17.4909 23.6183 17.5216 23.698 17.5685C23.7776 17.6154 23.8473 17.6775 23.9029 17.7513C23.9586 17.8251 23.9992 17.9091 24.0223 17.9986C24.0455 18.0881 24.0508 18.1813 24.0379 18.2728C24.025 18.3644 23.9942 18.4525 23.9473 18.5321C23.9004 18.6117 23.8382 18.6813 23.7643 18.7369C23.6905 18.7925 23.6064 18.833 23.5169 18.8561C23.4274 18.8791 23.3342 18.8843 23.2427 18.8714Z" fill="url(#paint3_linear_410_3093)"/>
<path d="M46.4095 22.1277L41.9654 21.5031C41.7814 21.4763 41.6155 21.3778 41.5039 21.229C41.3923 21.0802 41.3442 20.8932 41.3701 20.7091C41.396 20.5249 41.4938 20.3585 41.642 20.2462C41.7903 20.1339 41.977 20.0849 42.1613 20.1099L46.6054 20.7345C46.7894 20.7613 46.9553 20.8599 47.0669 21.0087C47.1784 21.1575 47.2265 21.3444 47.2006 21.5286C47.1748 21.7127 47.077 21.8791 46.9288 21.9914C46.7805 22.1037 46.5938 22.1527 46.4095 22.1277Z" fill="url(#paint4_linear_410_3093)"/>
<path d="M14.3839 22.6909L6.35102 21.5619C6.21685 21.5431 6.08771 21.498 5.97096 21.4292C5.85422 21.3604 5.75217 21.2693 5.67063 21.1611C5.58909 21.0529 5.52966 20.9297 5.49574 20.7985C5.46182 20.6674 5.45407 20.5308 5.47294 20.3966L5.6704 18.9916C5.68926 18.8575 5.73436 18.7283 5.80312 18.6116C5.87189 18.4948 5.96298 18.3928 6.07119 18.3113C6.1794 18.2297 6.30261 18.1703 6.43379 18.1364C6.56497 18.1025 6.70154 18.0947 6.83571 18.1136L14.8686 19.2425C15.0027 19.2614 15.1319 19.3065 15.2486 19.3753C15.3654 19.444 15.4674 19.5351 15.549 19.6433C15.6305 19.7516 15.6899 19.8748 15.7238 20.0059C15.7578 20.1371 15.7655 20.2737 15.7466 20.4079L15.5492 21.8128C15.511 22.0838 15.3669 22.3285 15.1483 22.4931C14.9298 22.6578 14.6548 22.7289 14.3839 22.6909Z" fill="url(#paint5_linear_410_3093)"/>
<path d="M58.291 41.7956L14.5222 53.5234C13.2919 53.8531 12.0272 53.123 11.6976 51.8926L4.78033 26.0769C4.45068 24.8466 5.18076 23.5819 6.41111 23.2522L50.1798 11.5245C51.4102 11.1948 52.6749 11.9249 53.0045 13.1552L59.9217 38.971C60.2515 40.2013 59.5213 41.466 58.291 41.7956Z" fill="url(#paint6_linear_410_3093)"/>
<path d="M31.1088 40.8712L14.9973 45.1882C14.8179 45.2343 14.6275 45.2076 14.4676 45.1141C14.3077 45.0206 14.1911 44.8679 14.1431 44.6889C14.0952 44.51 14.1197 44.3194 14.2115 44.1584C14.3032 43.9975 14.4547 43.8793 14.6331 43.8293L30.7446 39.5123C30.9241 39.4663 31.1144 39.4929 31.2743 39.5864C31.4343 39.6799 31.5509 39.8327 31.5988 40.0116C31.6468 40.1905 31.6222 40.3811 31.5305 40.5421C31.4387 40.703 31.2872 40.8213 31.1088 40.8712Z" fill="url(#paint7_linear_410_3093)"/>
<path d="M20.8193 33.7844L14.0746 35.5917C12.8492 35.9201 11.5895 35.1928 11.2611 33.9674L10.2312 30.1234C9.90283 28.8979 10.6301 27.6383 11.8555 27.3099L18.6002 25.5027C19.8257 25.1743 21.0853 25.9016 21.4137 27.127L22.4436 30.971C22.7719 32.1965 22.0447 33.4562 20.8193 33.7844Z" fill="url(#paint8_linear_410_3093)"/>
<path d="M14.0751 35.5922L20.8198 33.785C22.0452 33.4566 22.7725 32.197 22.4441 30.9715L21.4142 27.1277C21.2464 26.5013 20.8346 26.0065 20.3091 25.7148L18.2005 29.367C17.9352 29.8265 17.4982 30.1619 16.9857 30.2992L15.7393 30.6332C15.4855 30.7012 15.2476 30.8185 15.0391 30.9784C14.8307 31.1383 14.6558 31.3378 14.5245 31.5653L12.332 35.3627C12.5931 35.5139 12.8815 35.612 13.1806 35.6514C13.4798 35.6908 13.7837 35.6707 14.0751 35.5922Z" fill="url(#paint9_linear_410_3093)"/>
<path d="M28.1856 45.4989L15.9505 48.7772C15.7722 48.825 15.5821 48.8 15.4222 48.7076C15.2623 48.6153 15.1456 48.4632 15.0979 48.2849L14.7679 47.0531C14.7201 46.8748 14.7451 46.6848 14.8374 46.5248C14.9297 46.3649 15.0818 46.2483 15.2602 46.2005L27.4952 42.9222C27.6736 42.8744 27.8636 42.8994 28.0235 42.9917C28.1834 43.084 28.3001 43.2361 28.3479 43.4145L28.6779 44.6462C28.7016 44.7345 28.7076 44.8266 28.6957 44.9173C28.6838 45.0079 28.6541 45.0953 28.6084 45.1745C28.5627 45.2537 28.5018 45.3231 28.4292 45.3788C28.3567 45.4344 28.2739 45.4752 28.1856 45.4989Z" fill="url(#paint10_linear_410_3093)"/>
<path d="M36.9255 43.1571L30.8079 44.7963C30.6296 44.8441 30.4396 44.8191 30.2796 44.7267C30.1197 44.6344 30.0031 44.4823 29.9553 44.304L29.6253 43.0722C29.5775 42.8939 29.6025 42.7038 29.6948 42.5439C29.7872 42.384 29.9392 42.2674 30.1176 42.2196L36.2351 40.5804C36.4135 40.5326 36.6035 40.5576 36.7634 40.6499C36.9233 40.7422 37.04 40.8943 37.0878 41.0727L37.4178 42.3044C37.4415 42.3927 37.4475 42.4848 37.4356 42.5755C37.4236 42.6661 37.394 42.7536 37.3483 42.8327C37.3025 42.9119 37.2417 42.9813 37.1691 43.037C37.0966 43.0926 37.0138 43.1334 36.9255 43.1571Z" fill="url(#paint11_linear_410_3093)"/>
<path d="M45.8454 40.7684L39.7279 42.4076C39.5495 42.4554 39.3595 42.4304 39.1996 42.3381C39.0397 42.2457 38.923 42.0937 38.8752 41.9153L38.5452 40.6836C38.4974 40.5052 38.5224 40.3152 38.6148 40.1553C38.7071 39.9954 38.8592 39.8787 39.0375 39.8309L45.155 38.1917C45.3334 38.1439 45.5234 38.1689 45.6833 38.2613C45.8432 38.3536 45.9599 38.5056 46.0077 38.684L46.3377 39.9157C46.3855 40.0941 46.3605 40.2841 46.2681 40.444C46.1758 40.6039 46.0237 40.7206 45.8454 40.7684Z" fill="url(#paint12_linear_410_3093)"/>
<path d="M40.9881 22.2665L38.9564 22.8109C38.778 22.8587 38.588 22.8337 38.4281 22.7413C38.2682 22.649 38.1515 22.497 38.1037 22.3186L37.7737 21.0868C37.7259 20.9085 37.751 20.7185 37.8433 20.5586C37.9356 20.3987 38.0877 20.282 38.266 20.2342L40.2977 19.6897C40.4761 19.642 40.6661 19.667 40.826 19.7593C40.9859 19.8516 41.1026 20.0037 41.1504 20.182L41.4804 21.4138C41.5281 21.5921 41.5031 21.7822 41.4108 21.9421C41.3185 22.102 41.1664 22.2187 40.9881 22.2665Z" fill="url(#paint13_linear_410_3093)"/>
<path d="M49.7282 19.9247L43.6107 21.5639C43.4323 21.6117 43.2423 21.5866 43.0824 21.4943C42.9225 21.402 42.8058 21.2499 42.758 21.0716L42.428 19.8398C42.3802 19.6615 42.4053 19.4714 42.4976 19.3115C42.5899 19.1516 42.742 19.0349 42.9203 18.9872L49.0379 17.3479C49.2162 17.3002 49.4062 17.3252 49.5661 17.4175C49.726 17.5098 49.8427 17.6619 49.8905 17.8402L50.2205 19.072C50.2683 19.2504 50.2433 19.4404 50.1509 19.6003C50.0586 19.7602 49.9066 19.8769 49.7282 19.9247Z" fill="url(#paint14_linear_410_3093)"/>
<defs>
<linearGradient id="paint0_linear_410_3093" x1="17.6683" y1="-1.09238" x2="32.7493" y2="32.9481" gradientUnits="userSpaceOnUse">
<stop stop-color="#5A5A5A"/>
<stop offset="1" stop-color="#444444"/>
</linearGradient>
<linearGradient id="paint1_linear_410_3093" x1="23.7886" y1="11.5009" x2="26.7732" y2="19.5504" gradientUnits="userSpaceOnUse">
<stop stop-color="#433F43" stop-opacity="0"/>
<stop offset="1" stop-color="#1A1A1A"/>
</linearGradient>
<linearGradient id="paint2_linear_410_3093" x1="19.7076" y1="-35.7473" x2="31.9059" y2="38.2286" gradientUnits="userSpaceOnUse">
<stop stop-color="#433F43" stop-opacity="0"/>
<stop offset="1" stop-color="#1A1A1A"/>
</linearGradient>
<linearGradient id="paint3_linear_410_3093" x1="12.8331" y1="3.34871" x2="16.3176" y2="24.4797" gradientUnits="userSpaceOnUse">
<stop stop-color="#433F43" stop-opacity="0"/>
<stop offset="1" stop-color="#1A1A1A"/>
</linearGradient>
<linearGradient id="paint4_linear_410_3093" x1="43.3201" y1="15.2367" x2="44.8189" y2="24.3262" gradientUnits="userSpaceOnUse">
<stop stop-color="#433F43" stop-opacity="0"/>
<stop offset="1" stop-color="#1A1A1A"/>
</linearGradient>
<linearGradient id="paint5_linear_410_3093" x1="10.5762" y1="18.1415" x2="10.655" y2="22.7801" gradientUnits="userSpaceOnUse">
<stop stop-color="#F5FBFF"/>
<stop offset="1" stop-color="#DBD5EF"/>
</linearGradient>
<linearGradient id="paint6_linear_410_3093" x1="16.2537" y1="17.4418" x2="43.4275" y2="42.8932" gradientUnits="userSpaceOnUse">
<stop stop-color="#5A5A5A"/>
<stop offset="1" stop-color="#444444"/>
</linearGradient>
<linearGradient id="paint7_linear_410_3093" x1="15.4677" y1="30.6523" x2="26.9253" y2="48.746" gradientUnits="userSpaceOnUse">
<stop stop-color="#433F43" stop-opacity="0"/>
<stop offset="1" stop-color="#1A1A1A"/>
</linearGradient>
<linearGradient id="paint8_linear_410_3093" x1="13.9833" y1="27.3458" x2="19.122" y2="34.3036" gradientUnits="userSpaceOnUse">
<stop stop-color="#FEF0AE"/>
<stop offset="1" stop-color="#FAC600"/>
</linearGradient>
<linearGradient id="paint9_linear_410_3093" x1="12.1228" y1="25.6899" x2="22.1154" y2="36.9665" gradientUnits="userSpaceOnUse">
<stop stop-color="#FE9738" stop-opacity="0"/>
<stop offset="1" stop-color="#FE9738"/>
</linearGradient>
<linearGradient id="paint10_linear_410_3093" x1="21.6121" y1="45.4275" x2="22.0095" y2="46.9127" gradientUnits="userSpaceOnUse">
<stop stop-color="#F5FBFF"/>
<stop offset="1" stop-color="#DBD5EF"/>
</linearGradient>
<linearGradient id="paint11_linear_410_3093" x1="33.4118" y1="42.2702" x2="33.8092" y2="43.7554" gradientUnits="userSpaceOnUse">
<stop stop-color="#F5FBFF"/>
<stop offset="1" stop-color="#DBD5EF"/>
</linearGradient>
<linearGradient id="paint12_linear_410_3093" x1="42.3325" y1="39.8846" x2="42.7299" y2="41.3699" gradientUnits="userSpaceOnUse">
<stop stop-color="#F5FBFF"/>
<stop offset="1" stop-color="#DBD5EF"/>
</linearGradient>
<linearGradient id="paint13_linear_410_3093" x1="39.5247" y1="20.8343" x2="39.9222" y2="22.3196" gradientUnits="userSpaceOnUse">
<stop stop-color="#F5FBFF"/>
<stop offset="1" stop-color="#DBD5EF"/>
</linearGradient>
<linearGradient id="paint14_linear_410_3093" x1="46.2227" y1="19.0422" x2="46.6201" y2="20.5276" gradientUnits="userSpaceOnUse">
<stop stop-color="#F5FBFF"/>
<stop offset="1" stop-color="#DBD5EF"/>
</linearGradient>
</defs>
</svg>
