<svg width="60" height="42" viewBox="0 0 60 42" fill="none" xmlns="http://www.w3.org/2000/svg">
<path d="M47.5863 37.2418V39.3108C47.5863 40.4534 46.6598 41.3795 45.5173 41.3795H2.06906C0.926484 41.3795 0 40.4534 0 39.3108V14.4831C0 13.3405 0.926484 12.4141 2.06906 12.4141H4.13789L47.5863 37.2418Z" fill="#89C053"/>
<path d="M51.725 33.1031V35.1718C51.725 36.3144 50.799 37.2409 49.6559 37.2409H6.20773C5.06516 37.2409 4.13867 36.3144 4.13867 35.1718V10.3445C4.13867 9.20141 5.06516 8.27539 6.20773 8.27539H8.27668L51.725 33.1031Z" fill="#9ED26A"/>
<path d="M55.8617 28.9664V31.0354C55.8617 32.178 54.9352 33.1045 53.7927 33.1045H10.3445C9.20141 33.1045 8.27539 32.178 8.27539 31.0354V6.20773C8.27539 5.06516 9.20141 4.13867 10.3445 4.13867H12.4132L55.8617 28.9664Z" fill="#89C053"/>
<path d="M14.4831 0H57.9313C59.0739 0 60.0004 0.926484 60.0004 2.06906V26.8964C60.0004 28.0395 59.0739 28.9655 57.9313 28.9655H14.4831C13.3405 28.9655 12.4141 28.0395 12.4141 26.8964V2.06906C12.4141 0.926484 13.3405 0 14.4831 0Z" fill="#9ED26A"/>
<path d="M55.8613 8.27496V20.6886C53.5757 20.6886 51.7232 22.5411 51.7232 24.8268H20.6886C20.6886 22.5411 18.8359 20.6886 16.5508 20.6886V8.27484C18.8359 8.27484 20.6886 6.42234 20.6886 4.13672H51.7231C51.7231 6.42234 53.5756 8.27484 55.8612 8.27484L55.8613 8.27496Z" fill="#C6EA94"/>
<path d="M24.8276 14.4822C24.8276 15.6248 23.9011 16.5513 22.7585 16.5513C21.6159 16.5513 20.6895 15.6248 20.6895 14.4822C20.6895 13.3396 21.6159 12.4132 22.7585 12.4132C23.9011 12.4132 24.8276 13.3396 24.8276 14.4822ZM51.724 14.4822C51.724 15.6248 50.798 16.5513 49.6549 16.5513C48.5123 16.5513 47.5862 15.6248 47.5862 14.4822C47.5862 13.3396 48.5123 12.4132 49.6549 12.4132C50.798 12.4132 51.724 13.3396 51.724 14.4822ZM42.4136 14.4822C42.4136 17.9104 39.6349 20.6891 36.2067 20.6891C32.779 20.6891 29.9999 17.9104 29.9999 14.4822C29.9999 11.0545 32.779 8.27539 36.2067 8.27539C39.6349 8.27539 42.4136 11.0545 42.4136 14.4822Z" fill="#89C053"/>
<path d="M47.5867 37.2422V39.3113C47.5832 40.4525 46.6588 41.3767 45.5177 41.38H42.4141C43.5552 41.3767 44.48 40.4525 44.4831 39.3113V37.2422H47.5867Z" fill="#82B249"/>
<path d="M51.7249 33.1035V35.1722C51.7218 36.3134 50.797 37.2381 49.6559 37.2413H46.5527C46.8158 37.2428 47.0763 37.1899 47.318 37.0861C47.7026 36.9353 48.0327 36.6719 48.2653 36.3305C48.4979 35.989 48.6221 35.5854 48.6217 35.1722V33.1035H51.7249Z" fill="#89C053"/>
<path d="M55.8621 28.9648V31.0339C55.8586 32.1751 54.9342 33.0993 53.793 33.103H50.6895C50.9527 33.1044 51.2134 33.0516 51.4553 32.9478H51.4654C51.8475 32.7946 52.1749 32.5303 52.4054 32.1892C52.6359 31.848 52.7589 31.4456 52.7585 31.0339V28.9648H55.8621Z" fill="#82B249"/>
<path d="M59.9992 2.06906V26.8964C59.9961 28.0376 59.0713 28.9623 57.9302 28.9655H55.8613C56.1245 28.9672 56.3851 28.9143 56.6268 28.8103H56.6369C57.019 28.6571 57.3465 28.3929 57.577 28.0517C57.8075 27.7106 57.9305 27.3081 57.93 26.8964V2.06906C57.9269 0.927891 57.0027 0.00316406 55.8613 0H57.93C59.0712 0.00316406 59.9959 0.927891 59.9991 2.06906H59.9992Z" fill="#89C053"/>
</svg>
