<svg width="33" height="36" viewBox="0 0 33 36" fill="none" xmlns="http://www.w3.org/2000/svg">
<path fill-rule="evenodd" clip-rule="evenodd" d="M8.3313 0.084052C8.41139 0.0840871 8.49266 0.0841227 8.57514 0.0841227H24.4251C24.5076 0.0841227 24.5888 0.0840871 24.6689 0.084052C26.3635 0.08331 27.5297 0.0827992 28.5119 0.424561C30.3669 1.07 31.807 2.56275 32.4245 4.44329L31.2369 4.83323L32.4245 4.4433C32.7512 5.4385 32.7508 6.62156 32.7502 8.37823C32.7501 8.45685 32.7501 8.53661 32.7501 8.61756V31.9578C32.7501 34.3999 29.8718 35.8537 27.9761 34.119C27.8436 33.9978 27.6566 33.9978 27.5241 34.119L26.719 34.8558C25.172 36.2714 22.8282 36.2714 21.2813 34.8558C20.6896 34.3144 19.8106 34.3144 19.219 34.8558C17.672 36.2714 15.3282 36.2714 13.7813 34.8558C13.1896 34.3144 12.3106 34.3144 11.719 34.8558C10.172 36.2714 7.82823 36.2714 6.28126 34.8558L5.4761 34.119C5.34363 33.9978 5.15659 33.9978 5.02413 34.119C3.12841 35.8537 0.250112 34.3999 0.250112 31.9578V8.61756C0.250112 8.53661 0.250083 8.45685 0.250055 8.37824C0.249419 6.62156 0.24899 5.4385 0.575744 4.44329C1.19318 2.56275 2.63337 1.07 4.48831 0.424561C5.4705 0.0827992 6.63672 0.0833099 8.3313 0.084052ZM8.57514 2.58412C6.54 2.58412 5.839 2.6016 5.30988 2.78571C4.21092 3.1681 3.33198 4.06279 2.95099 5.22316C2.76586 5.78703 2.75011 6.53059 2.75011 8.61756V31.9578C2.75011 32.1562 2.84998 32.2775 2.97528 32.3354C3.04056 32.3656 3.1044 32.3734 3.15759 32.3663C3.20449 32.36 3.26518 32.3398 3.33642 32.2746C4.42421 31.2792 6.07601 31.2792 7.16381 32.2746L7.96897 33.0114C8.56061 33.5528 9.43961 33.5528 10.0313 33.0114C11.5782 31.5958 13.922 31.5958 15.469 33.0114C16.0606 33.5528 16.9396 33.5528 17.5313 33.0114C19.0782 31.5958 21.422 31.5958 22.969 33.0114C23.5606 33.5528 24.4396 33.5528 25.0313 33.0114L25.8364 32.2746C26.9242 31.2792 28.576 31.2792 29.6638 32.2746C29.735 32.3398 29.7957 32.36 29.8426 32.3663C29.8958 32.3734 29.9597 32.3656 30.0249 32.3354C30.1502 32.2775 30.2501 32.1562 30.2501 31.9578V8.61756C30.2501 6.53059 30.2344 5.78703 30.0492 5.22316C29.6682 4.06279 28.7893 3.1681 27.6903 2.78571C27.1612 2.6016 26.4602 2.58412 24.4251 2.58412H8.57514ZM21.4993 10.4017C22.0143 10.8615 22.059 11.6517 21.5992 12.1666L15.6468 18.8333C15.4097 19.0989 15.0705 19.2508 14.7144 19.2508C14.3583 19.2508 14.0191 19.0989 13.782 18.8333L11.401 16.1666C10.9412 15.6517 10.986 14.8615 11.5009 14.4017C12.0159 13.9419 12.8061 13.9866 13.2659 14.5016L14.7144 16.124L19.7344 10.5016C20.1941 9.98664 20.9843 9.94191 21.4993 10.4017ZM7.75011 23.8341C7.75011 23.1438 8.30976 22.5841 9.00011 22.5841H24.0001C24.6905 22.5841 25.2501 23.1438 25.2501 23.8341C25.2501 24.5245 24.6905 25.0841 24.0001 25.0841H9.00011C8.30976 25.0841 7.75011 24.5245 7.75011 23.8341Z" fill="#2B7FDE"/>
</svg>
