<svg width="36" height="30" viewBox="0 0 36 30" fill="none" xmlns="http://www.w3.org/2000/svg">
<path fill-rule="evenodd" clip-rule="evenodd" d="M14.5733 0.416016H21.428C24.4909 0.41599 26.917 0.415969 28.8157 0.671241C30.7697 0.933954 32.3513 1.48748 33.5986 2.73475C34.8459 3.98203 35.3994 5.56361 35.6621 7.51764C35.8129 8.63909 35.8746 9.94451 35.8998 11.4565C35.9113 11.5246 35.9173 11.5946 35.9173 11.666C35.9173 11.7248 35.9133 11.7826 35.9054 11.8392C35.9173 12.7821 35.9173 13.8024 35.9173 14.9053V15.0934C35.9173 18.1563 35.9174 20.5824 35.6621 22.4811C35.3994 24.4351 34.8459 26.0167 33.5986 27.2639C32.3513 28.5112 30.7697 29.0647 28.8157 29.3275C26.917 29.5827 24.4909 29.5827 21.428 29.5827H14.5733C11.5104 29.5827 9.08431 29.5827 7.18561 29.3275C5.23158 29.0647 3.65 28.5112 2.40272 27.2639C1.15545 26.0167 0.601923 24.4351 0.33921 22.4811C0.0839374 20.5824 0.0839585 18.1563 0.0839849 15.0934V14.9053C0.0839754 13.8024 0.0839666 12.782 0.0958782 11.8391C0.0880378 11.7826 0.0839855 11.7248 0.0839855 11.666C0.0839855 11.5946 0.0899708 11.5246 0.101467 11.4565C0.126721 9.94453 0.188434 8.6391 0.33921 7.51764C0.601923 5.56361 1.15545 3.98203 2.40272 2.73475C3.65 1.48748 5.23158 0.933954 7.18561 0.671241C9.0843 0.415969 11.5104 0.41599 14.5733 0.416016ZM2.5873 12.916C2.58413 13.5633 2.58399 14.2562 2.58399 14.9994C2.58399 18.1774 2.58664 20.4352 2.81692 22.1479C3.04236 23.8248 3.46514 24.7908 4.17049 25.4962C4.87584 26.2015 5.84192 26.6243 7.51873 26.8498C9.23151 27.08 11.4893 27.0827 14.6673 27.0827H21.334C24.512 27.0827 26.7698 27.08 28.4826 26.8498C30.1594 26.6243 31.1255 26.2015 31.8308 25.4962C32.5362 24.7908 32.9589 23.8248 33.1844 22.1479C33.4147 20.4352 33.4173 18.1774 33.4173 14.9994C33.4173 14.2562 33.4172 13.5633 33.414 12.916H2.5873ZM33.3739 10.416H2.62744C2.66004 9.43814 2.71709 8.59324 2.81692 7.85076C3.04236 6.17395 3.46514 5.20787 4.17049 4.50252C4.87584 3.79717 5.84192 3.37439 7.51873 3.14895C9.23151 2.91867 11.4893 2.91602 14.6673 2.91602H21.334C24.512 2.91602 26.7698 2.91867 28.4826 3.14895C30.1594 3.37439 31.1255 3.79717 31.8308 4.50252C32.5362 5.20787 32.9589 6.17395 33.1844 7.85076C33.2842 8.59324 33.3413 9.43814 33.3739 10.416ZM6.75065 21.666C6.75065 20.9757 7.3103 20.416 8.00065 20.416H14.6673C15.3577 20.416 15.9173 20.9757 15.9173 21.666C15.9173 22.3564 15.3577 22.916 14.6673 22.916H8.00065C7.3103 22.916 6.75065 22.3564 6.75065 21.666ZM17.584 21.666C17.584 20.9757 18.1436 20.416 18.834 20.416H21.334C22.0243 20.416 22.584 20.9757 22.584 21.666C22.584 22.3564 22.0243 22.916 21.334 22.916H18.834C18.1436 22.916 17.584 22.3564 17.584 21.666Z" fill="#2B7FDE"/>
</svg>
