<svg width="36" height="34" viewBox="0 0 36 34" fill="none" xmlns="http://www.w3.org/2000/svg">
<path fill-rule="evenodd" clip-rule="evenodd" d="M11.4145 1.14711C11.8856 1.6518 11.8583 2.44278 11.3536 2.91382L4.21073 9.58049C3.95721 9.81712 3.61677 9.93778 3.27081 9.91364C2.92486 9.8895 2.60448 9.72271 2.38628 9.45317L0.36247 6.95317C-0.0719009 6.41659 0.0109525 5.62949 0.547528 5.19512C1.0841 4.76074 1.87121 4.8436 2.30558 5.38017L3.48547 6.83769L9.64779 1.08619C10.1525 0.615143 10.9435 0.642418 11.4145 1.14711ZM16.7507 5.33334C16.7507 4.64298 17.3103 4.08334 18.0007 4.08334H34.6674C35.3577 4.08334 35.9174 4.64298 35.9174 5.33334C35.9174 6.02369 35.3577 6.58334 34.6674 6.58334H18.0007C17.3103 6.58334 16.7507 6.02369 16.7507 5.33334ZM11.4145 12.8138C11.8856 13.3185 11.8583 14.1094 11.3536 14.5805L4.21073 21.2472C3.95721 21.4838 3.61677 21.6044 3.27081 21.5803C2.92486 21.5562 2.60448 21.3894 2.38628 21.1198L0.36247 18.6198C-0.0719009 18.0833 0.0109525 17.2962 0.547528 16.8618C1.0841 16.4274 1.87121 16.5103 2.30558 17.0468L3.48547 18.5044L9.64779 12.7529C10.1525 12.2818 10.9435 12.3091 11.4145 12.8138ZM16.7507 17C16.7507 16.3096 17.3103 15.75 18.0007 15.75H34.6674C35.3577 15.75 35.9174 16.3096 35.9174 17C35.9174 17.6904 35.3577 18.25 34.6674 18.25H18.0007C17.3103 18.25 16.7507 17.6904 16.7507 17ZM11.4145 24.4804C11.8856 24.9851 11.8583 25.7761 11.3536 26.2472L4.21073 32.9138C3.95721 33.1504 3.61677 33.2711 3.27081 33.247C2.92486 33.2228 2.60448 33.056 2.38628 32.7865L0.36247 30.2865C-0.0719009 29.7499 0.0109525 28.9628 0.547528 28.5284C1.0841 28.0941 1.87121 28.1769 2.30558 28.7135L3.48547 30.171L9.64779 24.4195C10.1525 23.9485 10.9435 23.9758 11.4145 24.4804ZM16.7507 28.6667C16.7507 27.9763 17.3103 27.4167 18.0007 27.4167H34.6674C35.3577 27.4167 35.9174 27.9763 35.9174 28.6667C35.9174 29.357 35.3577 29.9167 34.6674 29.9167H18.0007C17.3103 29.9167 16.7507 29.357 16.7507 28.6667Z" fill="#2B7FDE"/>
</svg>
