<svg width="51" height="52" viewBox="0 0 51 52" fill="none" xmlns="http://www.w3.org/2000/svg">
<path d="M0.484375 42.5781V49.183C0.484375 50.4718 1.5315 51.527 2.82832 51.527H48.0801C49.3689 51.527 50.4241 50.4799 50.4241 49.183V42.5781H0.484375Z" fill="#A9B2BD"/>
<path d="M0.484375 40.2422V46.8471C0.484375 48.1359 1.5315 49.1911 2.82832 49.1911H48.0801C49.3689 49.1911 50.4241 48.1439 50.4241 46.8471V40.2422H0.484375Z" fill="#CDD0DA"/>
<path d="M50.4241 14.1777V44.2624C50.4241 45.5511 49.3689 46.6063 48.0801 46.6063H2.82832C2.20732 46.6042 1.61236 46.3566 1.17325 45.9174C0.73413 45.4783 0.486498 44.8834 0.484375 44.2624V14.1777H50.4241Z" fill="#E7E9EE"/>
<path d="M50.4241 7.55659V14.6931H0.484375V7.55659C0.484375 6.25977 1.5315 5.2207 2.82832 5.2207H48.0801C49.3689 5.2207 50.4241 6.25977 50.4241 7.55659Z" fill="#FB6E52"/>
<path d="M12.4448 10.3434C12.4448 10.4642 12.4287 10.577 12.4045 10.6897C12.2515 11.4147 11.5991 11.9543 10.8339 11.9543C10.0606 11.9543 9.41621 11.4147 9.24706 10.6897C9.23095 10.577 9.21484 10.4642 9.21484 10.3434C9.21484 10.0373 9.30345 9.76343 9.44038 9.52179C9.7223 9.04656 10.2459 8.73242 10.8258 8.73242C11.4057 8.73242 11.9374 9.05461 12.2032 9.52985C12.3723 9.76343 12.4448 10.0454 12.4448 10.3434Z" fill="#EA573F"/>
<path d="M16.0552 5.25242H14.8792C14.7703 4.26047 14.299 3.34365 13.5558 2.67773C12.8126 2.01181 11.8497 1.64366 10.8518 1.64387C8.59647 1.64387 6.75193 3.47231 6.75193 5.71154C6.75193 7.46748 7.8796 8.97373 9.45028 9.53756C10.341 9.86872 11.3205 9.87158 12.2131 9.54562C12.4254 9.89268 12.492 10.3096 12.3983 10.7055C11.8989 10.8666 11.3754 10.9472 10.8357 10.9472C10.2799 10.9472 9.74831 10.8585 9.24086 10.7055C7.12245 10.0289 5.58398 8.04743 5.58398 5.71959C5.58398 2.84404 7.94404 0.500092 10.8357 0.500092C13.5824 0.483983 15.8297 2.57823 16.0552 5.25242Z" fill="#646D78"/>
<path d="M27.0737 10.3434C27.0737 10.4642 27.0576 10.577 27.0334 10.6897C26.8804 11.4147 26.228 11.9543 25.4628 11.9543C24.6895 11.9543 24.0451 11.4147 23.876 10.6897C23.8599 10.577 23.8438 10.4642 23.8438 10.3434C23.8438 10.0373 23.9324 9.76343 24.0693 9.52179C24.3512 9.04656 24.8748 8.73242 25.4547 8.73242C26.0427 8.73242 26.5663 9.05461 26.8321 9.52985C27.0012 9.76343 27.0737 10.0454 27.0737 10.3434Z" fill="#EA573F"/>
<path d="M30.6822 5.25242H29.5062C29.3972 4.26047 28.926 3.34365 28.1828 2.67773C27.4395 2.01181 26.4767 1.64366 25.4788 1.64387C23.2234 1.64387 21.3789 3.47231 21.3789 5.71154C21.3789 7.46748 22.5066 8.97373 24.0772 9.53756C24.9679 9.86872 25.9474 9.87158 26.84 9.54562C27.0523 9.89268 27.1189 10.3096 27.0253 10.7055C26.5259 10.8666 26.0023 10.9472 25.4627 10.9472C24.9069 10.9472 24.3753 10.8585 23.8678 10.7055C21.7494 10.0289 20.2109 8.04743 20.2109 5.71959C20.2109 2.84404 22.571 0.500092 25.4627 0.500092C28.2093 0.483983 30.4566 2.57823 30.6822 5.25242Z" fill="#646D78"/>
<path d="M41.7085 10.3434C41.7085 10.4642 41.6924 10.577 41.6682 10.6897C41.5152 11.4147 40.8627 11.9543 40.0975 11.9543C39.3243 11.9543 38.6799 11.4147 38.5107 10.6897C38.4946 10.577 38.4785 10.4642 38.4785 10.3434C38.4785 10.0373 38.5671 9.76343 38.7041 9.52179C38.986 9.04656 39.5095 8.73242 40.0895 8.73242C40.6694 8.73242 41.201 9.05461 41.4668 9.52985C41.6279 9.76343 41.7085 10.0454 41.7085 10.3434Z" fill="#EA573F"/>
<path d="M45.3091 5.25242H44.1331C44.0242 4.26047 43.5529 3.34365 42.8097 2.67773C42.0665 2.01181 41.1036 1.64366 40.1057 1.64387C37.8504 1.64387 36.0058 3.47231 36.0058 5.71154C36.0058 7.46748 37.1335 8.97373 38.7042 9.53756C39.5949 9.86872 40.5744 9.87158 41.467 9.54562C41.6793 9.89268 41.7459 10.3096 41.6522 10.7055C41.1528 10.8666 40.6293 10.9472 40.0896 10.9472C39.5338 10.9472 39.0022 10.8585 38.4948 10.7055C36.3764 10.0289 34.8379 8.04743 34.8379 5.71959C34.8379 2.84404 37.1979 0.500092 40.0896 0.500092C42.8363 0.483983 45.0836 2.57823 45.3091 5.25242Z" fill="#646D78"/>
<path d="M27.4269 22.0136H23.4801C23.2942 22.0136 23.116 21.9397 22.9845 21.8083C22.8531 21.6769 22.7793 21.4987 22.7793 21.3128V18.0426C22.7793 17.6559 23.0934 17.3418 23.4801 17.3418H27.4269C27.8135 17.3418 28.1277 17.6559 28.1277 18.0426V21.3128C28.1277 21.6994 27.8135 22.0136 27.4269 22.0136Z" fill="#CDD0DA"/>
<path d="M36.9894 22.0136H33.0426C32.8567 22.0136 32.6785 21.9397 32.547 21.8083C32.4156 21.6769 32.3418 21.4987 32.3418 21.3128V18.0426C32.3418 17.6559 32.6559 17.3418 33.0426 17.3418H36.9894C37.376 17.3418 37.6902 17.6559 37.6902 18.0426V21.3128C37.6982 21.6994 37.376 22.0136 36.9894 22.0136Z" fill="#FFCE54"/>
<path d="M46.5578 22.0136H42.6109C42.4251 22.0136 42.2468 21.9397 42.1154 21.8083C41.984 21.6769 41.9102 21.4987 41.9102 21.3128V18.0426C41.9102 17.6559 42.2243 17.3418 42.6109 17.3418H46.5578C46.9444 17.3418 47.2585 17.6559 47.2585 18.0426V21.3128C47.2585 21.6994 46.9444 22.0136 46.5578 22.0136Z" fill="#ED5463"/>
<path d="M8.298 29.1503H4.35116C4.1653 29.1503 3.98706 29.0765 3.85564 28.945C3.72422 28.8136 3.65039 28.6354 3.65039 28.4495V25.1793C3.65039 24.7927 3.96453 24.4785 4.35116 24.4785H8.298C8.68463 24.4785 8.99877 24.7927 8.99877 25.1793V28.4495C8.99877 28.8362 8.68463 29.1503 8.298 29.1503ZM17.859 29.1503H13.9122C13.7263 29.1503 13.5481 29.0765 13.4167 28.945C13.2853 28.8136 13.2114 28.6354 13.2114 28.4495V25.1793C13.2114 24.7927 13.5256 24.4785 13.9122 24.4785H17.859C18.2457 24.4785 18.5598 24.7927 18.5598 25.1793V28.4495C18.5598 28.8362 18.2457 29.1503 17.859 29.1503ZM27.4281 29.1503H23.4813C23.2954 29.1503 23.1172 29.0765 22.9858 28.945C22.8543 28.8136 22.7805 28.6354 22.7805 28.4495V25.1793C22.7805 24.7927 23.0946 24.4785 23.4813 24.4785H27.4281C27.8148 24.4785 28.1289 24.7927 28.1289 25.1793V28.4495C28.1289 28.8362 27.8148 29.1503 27.4281 29.1503Z" fill="#CDD0DA"/>
<path d="M36.9894 29.1503H33.0426C32.8567 29.1503 32.6785 29.0765 32.547 28.945C32.4156 28.8136 32.3418 28.6354 32.3418 28.4495V25.1793C32.3418 24.7927 32.6559 24.4785 33.0426 24.4785H36.9894C37.376 24.4785 37.6902 24.7927 37.6902 25.1793V28.4495C37.6982 28.8362 37.376 29.1503 36.9894 29.1503Z" fill="#FFCE54"/>
<path d="M46.5578 29.1503H42.6109C42.4251 29.1503 42.2468 29.0765 42.1154 28.945C41.984 28.8136 41.9102 28.6354 41.9102 28.4495V25.1793C41.9102 24.7927 42.2243 24.4785 42.6109 24.4785H46.5578C46.9444 24.4785 47.2585 24.7927 47.2585 25.1793V28.4495C47.2585 28.8362 46.9444 29.1503 46.5578 29.1503Z" fill="#ED5463"/>
<path d="M8.298 36.2948H4.35116C4.1653 36.2948 3.98706 36.221 3.85564 36.0896C3.72422 35.9582 3.65039 35.7799 3.65039 35.5941V32.3238C3.65039 31.9372 3.96453 31.623 4.35116 31.623H8.298C8.68463 31.623 8.99877 31.9372 8.99877 32.3238V35.5941C8.99877 35.9807 8.68463 36.2948 8.298 36.2948ZM17.859 36.2948H13.9122C13.7263 36.2948 13.5481 36.221 13.4167 36.0896C13.2853 35.9582 13.2114 35.7799 13.2114 35.5941V32.3238C13.2114 31.9372 13.5256 31.623 13.9122 31.623H17.859C18.2457 31.623 18.5598 31.9372 18.5598 32.3238V35.5941C18.5598 35.9807 18.2457 36.2948 17.859 36.2948ZM27.4281 36.2948H23.4813C23.2954 36.2948 23.1172 36.221 22.9858 36.0896C22.8543 35.9582 22.7805 35.7799 22.7805 35.5941V32.3238C22.7805 31.9372 23.0946 31.623 23.4813 31.623H27.4281C27.8148 31.623 28.1289 31.9372 28.1289 32.3238V35.5941C28.1289 35.9807 27.8148 36.2948 27.4281 36.2948Z" fill="#CDD0DA"/>
<path d="M36.9894 36.2948H33.0426C32.8567 36.2948 32.6785 36.221 32.547 36.0896C32.4156 35.9582 32.3418 35.7799 32.3418 35.5941V32.3238C32.3418 31.9372 32.6559 31.623 33.0426 31.623H36.9894C37.376 31.623 37.6902 31.9372 37.6902 32.3238V35.5941C37.6982 35.9807 37.376 36.2948 36.9894 36.2948Z" fill="#FFCE54"/>
<path d="M46.5578 36.2948H42.6109C42.4251 36.2948 42.2468 36.221 42.1154 36.0896C41.984 35.9582 41.9102 35.7799 41.9102 35.5941V32.3238C41.9102 31.9372 42.2243 31.623 42.6109 31.623H46.5578C46.9444 31.623 47.2585 31.9372 47.2585 32.3238V35.5941C47.2585 35.9807 46.9444 36.2948 46.5578 36.2948Z" fill="#ED5463"/>
<path d="M8.298 43.4394H4.35116C4.1653 43.4394 3.98706 43.3655 3.85564 43.2341C3.72422 43.1027 3.65039 42.9244 3.65039 42.7386V39.4683C3.65039 39.0817 3.96453 38.7676 4.35116 38.7676H8.298C8.68463 38.7676 8.99877 39.0817 8.99877 39.4683V42.7386C8.99877 43.1252 8.68463 43.4394 8.298 43.4394ZM17.859 43.4394H13.9122C13.7263 43.4394 13.5481 43.3655 13.4167 43.2341C13.2853 43.1027 13.2114 42.9244 13.2114 42.7386V39.4683C13.2114 39.0817 13.5256 38.7676 13.9122 38.7676H17.859C18.2457 38.7676 18.5598 39.0817 18.5598 39.4683V42.7386C18.5598 43.1252 18.2457 43.4394 17.859 43.4394ZM27.4281 43.4394H23.4813C23.2954 43.4394 23.1172 43.3655 22.9858 43.2341C22.8543 43.1027 22.7805 42.9244 22.7805 42.7386V39.4683C22.7805 39.0817 23.0946 38.7676 23.4813 38.7676H27.4281C27.8148 38.7676 28.1289 39.0817 28.1289 39.4683V42.7386C28.1289 43.1252 27.8148 43.4394 27.4281 43.4394Z" fill="#CDD0DA"/>
<path d="M36.9894 43.4394H33.0426C32.8567 43.4394 32.6785 43.3655 32.547 43.2341C32.4156 43.1027 32.3418 42.9244 32.3418 42.7386V39.4683C32.3418 39.0817 32.6559 38.7676 33.0426 38.7676H36.9894C37.376 38.7676 37.6902 39.0817 37.6902 39.4683V42.7386C37.6982 43.1252 37.376 43.4394 36.9894 43.4394Z" fill="#FFCE54"/>
<path d="M46.5578 43.4394H42.6109C42.4251 43.4394 42.2468 43.3655 42.1154 43.2341C41.984 43.1027 41.9102 42.9244 41.9102 42.7386V39.4683C41.9102 39.0817 42.2243 38.7676 42.6109 38.7676H46.5578C46.9444 38.7676 47.2585 39.0817 47.2585 39.4683V42.7386C47.2585 43.1252 46.9444 43.4394 46.5578 43.4394Z" fill="#ED5463"/>
<path d="M1.91738 33.7188C1.67574 33.7188 1.48242 33.5255 1.48242 33.2838V17.3353C1.48242 17.0937 1.67574 16.9004 1.91738 16.9004C2.15902 16.9004 2.35234 17.0937 2.35234 17.3353V33.2758C2.36039 33.5174 2.15902 33.7188 1.91738 33.7188Z" fill="#CDD0DA"/>
</svg>
