<svg width="37" height="32" viewBox="0 0 37 32" fill="none" xmlns="http://www.w3.org/2000/svg">
<path fill-rule="evenodd" clip-rule="evenodd" d="M0.583984 8.7006C0.583984 4.3491 4.00664 0.75 8.31547 0.75H28.6858C32.9947 0.75 36.4173 4.3491 36.4173 8.7006C36.4173 12.0805 34.3571 15.0007 31.4173 16.1411V23.7533C31.4173 24.2706 31.4174 24.7583 31.4119 25.2159C31.4155 25.2545 31.4173 25.2937 31.4173 25.3333C31.4173 25.3857 31.4141 25.4372 31.4079 25.4879C31.3945 26.2425 31.3621 26.9107 31.2841 27.4908C31.1435 28.5371 30.834 29.4818 30.0749 30.2409C29.3158 31 28.3711 31.3095 27.3248 31.4501C26.3335 31.5834 25.0848 31.5834 23.5873 31.5833H13.414C11.9165 31.5834 10.6678 31.5834 9.67652 31.4501C8.63019 31.3095 7.68553 31 6.92641 30.2409C6.16729 29.4818 5.85784 28.5371 5.71717 27.4908C5.63918 26.9107 5.60684 26.2425 5.59344 25.4879C5.5872 25.4372 5.58398 25.3857 5.58398 25.3333C5.58398 25.2937 5.58583 25.2545 5.58943 25.2159C5.58395 24.7583 5.58397 24.2707 5.58398 23.7533L5.58398 16.1411C2.64422 15.0007 0.583984 12.0805 0.583984 8.7006ZM5.58399 13.3492C5.58429 11.9538 5.5908 10.7825 5.71717 9.84254C5.85784 8.79621 6.16729 7.85154 6.92641 7.09243C7.68553 6.33331 8.63019 6.02386 9.67652 5.88319C10.6678 5.74991 11.9165 5.74995 13.414 5.75H23.5873C25.0848 5.74995 26.3335 5.74991 27.3248 5.88319C28.3711 6.02386 29.3158 6.33331 30.0749 7.09243C30.834 7.85154 31.1435 8.79621 31.2841 9.84254C31.4105 10.7825 31.417 11.9538 31.4173 13.3492C32.9071 12.3966 33.9173 10.6839 33.9173 8.7006C33.9173 5.65082 31.5363 3.25 28.6858 3.25H8.31547C5.46505 3.25 3.08398 5.65082 3.08398 8.7006C3.08398 10.6839 4.09417 12.3966 5.58399 13.3492ZM17.2507 8.25H13.5007C11.894 8.25 10.8147 8.25265 10.0096 8.36089C9.24054 8.4643 8.91137 8.643 8.69418 8.8602C8.47698 9.07739 8.29828 9.40655 8.19488 10.1757C8.08664 10.9807 8.08398 12.06 8.08398 13.6667V23.6667C8.08398 23.8097 8.084 23.9485 8.08412 24.0833H28.9172C28.9173 23.9485 28.9173 23.8097 28.9173 23.6667V13.6667C28.9173 12.06 28.9147 10.9807 28.8064 10.1757C28.703 9.40655 28.5243 9.07739 28.3071 8.8602C28.0899 8.643 27.7608 8.4643 26.9917 8.36089C26.1866 8.25265 25.1073 8.25 23.5007 8.25H19.7507V15.2876L20.8849 13.9643C21.3342 13.4401 22.1233 13.3794 22.6475 13.8287C23.1716 14.278 23.2323 15.0671 22.7831 15.5913L19.4497 19.4802C19.2122 19.7572 18.8656 19.9167 18.5007 19.9167C18.1357 19.9167 17.7891 19.7572 17.5516 19.4802L14.2182 15.5913C13.769 15.0671 13.8297 14.278 14.3538 13.8287C14.878 13.3794 15.6671 13.4401 16.1164 13.9643L17.2507 15.2876V8.25ZM28.8637 26.5833H8.13764C8.15233 26.7899 8.17104 26.9804 8.19488 27.1577C8.29828 27.9268 8.47698 28.2559 8.69418 28.4731C8.91137 28.6903 9.24054 28.869 10.0096 28.9724C10.8147 29.0807 11.894 29.0833 13.5007 29.0833H23.5006C25.1073 29.0833 26.1866 29.0807 26.9917 28.9724C27.7608 28.869 28.0899 28.6903 28.3071 28.4731C28.5243 28.2559 28.703 27.9268 28.8064 27.1577C28.8303 26.9804 28.849 26.7899 28.8637 26.5833Z" fill="#2B7FDE"/>
</svg>
