<svg width="57" height="44" viewBox="0 0 57 44" fill="none" xmlns="http://www.w3.org/2000/svg">
<path d="M53.375 15.4375H3.6875C2.94158 15.4375 2.22621 15.7338 1.69876 16.2613C1.17132 16.7887 0.875 17.5041 0.875 18.25V40.75C0.875 41.4959 1.17132 42.2113 1.69876 42.7387C2.22621 43.2662 2.94158 43.5625 3.6875 43.5625H50.5625C51.3084 43.5625 52.0238 43.2662 52.5512 42.7387C53.0787 42.2113 53.375 41.4959 53.375 40.75V15.4375Z" fill="#8BC34A"/>
<path d="M49.625 19.1875H8.32438C8.20326 19.191 8.08404 19.2185 7.97366 19.2685C7.86328 19.3185 7.76394 19.3899 7.68142 19.4786C7.59889 19.5673 7.53483 19.6716 7.49296 19.7853C7.45108 19.899 7.43223 20.0199 7.4375 20.1409C7.43262 20.6325 7.23518 21.1025 6.88759 21.4501C6.54001 21.7977 6.06998 21.9951 5.57844 22C5.45738 21.9947 5.33649 22.0136 5.22279 22.0555C5.10909 22.0973 5.00485 22.1614 4.91613 22.2439C4.82741 22.3264 4.75598 22.4258 4.706 22.5362C4.65602 22.6465 4.62849 22.7658 4.625 22.8869V36.1131C4.62849 36.2342 4.65602 36.3535 4.706 36.4638C4.75598 36.5742 4.82741 36.6736 4.91613 36.7561C5.00485 36.8386 5.10909 36.9027 5.22279 36.9445C5.33649 36.9864 5.45738 37.0053 5.57844 37C6.06998 37.0049 6.54001 37.2023 6.88759 37.5499C7.23518 37.8975 7.43262 38.3675 7.4375 38.8591C7.43223 38.9801 7.45108 39.101 7.49296 39.2147C7.53483 39.3284 7.59889 39.4327 7.68142 39.5214C7.76394 39.6101 7.86328 39.6815 7.97366 39.7315C8.08404 39.7815 8.20326 39.809 8.32438 39.8125H45.9256C46.0467 39.809 46.166 39.7815 46.2763 39.7315C46.3867 39.6815 46.4861 39.6101 46.5686 39.5214C46.6511 39.4327 46.7152 39.3284 46.757 39.2147C46.7989 39.101 46.8178 38.9801 46.8125 38.8591C46.8174 38.3675 47.0148 37.8975 47.3624 37.5499C47.71 37.2023 48.18 37.0049 48.6716 37C48.7926 37.0053 48.9135 36.9864 49.0272 36.9445C49.1409 36.9027 49.2452 36.8386 49.3339 36.7561C49.4226 36.6736 49.494 36.5742 49.544 36.4638C49.594 36.3535 49.6215 36.2342 49.625 36.1131V19.1875Z" fill="#689F38"/>
<path d="M27.125 22C17.1256 22.1753 17.1237 36.8237 27.125 37C37.1244 36.8247 37.1253 22.1762 27.125 22ZM41.1875 26.6875C40.4416 26.6875 39.7262 26.9838 39.1988 27.5113C38.6713 28.0387 38.375 28.7541 38.375 29.5C38.375 30.2459 38.6713 30.9613 39.1988 31.4887C39.7262 32.0162 40.4416 32.3125 41.1875 32.3125C41.9334 32.3125 42.6488 32.0162 43.1762 31.4887C43.7037 30.9613 44 30.2459 44 29.5C44 28.7541 43.7037 28.0387 43.1762 27.5113C42.6488 26.9838 41.9334 26.6875 41.1875 26.6875ZM14 26.6875C13.2541 26.6875 12.5387 26.9838 12.0113 27.5113C11.4838 28.0387 11.1875 28.7541 11.1875 29.5C11.1875 30.2459 11.4838 30.9613 12.0113 31.4887C12.5387 32.0162 13.2541 32.3125 14 32.3125C14.7459 32.3125 15.4613 32.0162 15.9887 31.4887C16.5162 30.9613 16.8125 30.2459 16.8125 29.5C16.8125 28.7541 16.5162 28.0387 15.9887 27.5113C15.4613 26.9838 14.7459 26.6875 14 26.6875Z" fill="#8BC34A"/>
<path d="M54.0764 16.7497C51.2264 11.8372 45.6305 8.6806 37.4377 7.35966V1.46278C37.435 1.27857 37.3785 1.09917 37.2751 0.946726C37.1716 0.794284 37.0258 0.67548 36.8556 0.604984C36.6853 0.534487 36.4982 0.515385 36.3173 0.550036C36.1363 0.584688 35.9695 0.671575 35.8374 0.79997L23.8468 12.7897C23.671 12.9655 23.5723 13.2039 23.5723 13.4525C23.5723 13.7011 23.671 13.9395 23.8468 14.1153L35.8374 26.105C35.9695 26.2334 36.1363 26.3202 36.3173 26.3549C36.4982 26.3896 36.6853 26.3705 36.8556 26.3C37.0258 26.2295 37.1716 26.1107 37.2751 25.9582C37.3785 25.8058 37.435 25.6264 37.4377 25.4422V19.4918C44.7596 19.2153 51.6408 28.7347 52.3364 34.2668C52.3589 34.4744 52.4496 34.6686 52.5943 34.8189C52.739 34.9693 52.9296 35.0674 53.1361 35.0978C53.3426 35.1281 53.5534 35.089 53.7353 34.9867C53.9172 34.8843 54.0599 34.7244 54.1411 34.5322C56.0377 29.7387 57.5658 22.7618 54.0764 16.7497Z" fill="#F14F4A"/>
</svg>
