<svg width="61" height="60" viewBox="0 0 61 60" fill="none" xmlns="http://www.w3.org/2000/svg">
<path d="M58.1222 27.314C58.1222 39.2029 48.4881 48.8437 36.5992 48.8437C24.7104 48.8437 15.0762 39.2029 15.0762 27.314C15.0762 15.4252 24.7104 5.79102 36.5992 5.79102C48.4881 5.79102 58.1222 15.4254 58.1222 27.314Z" fill="#F14F4A"/>
<path d="M58.1231 27.3133C58.1231 39.2021 48.4889 48.8428 36.6001 48.8428C29.078 48.8428 22.4565 44.9814 18.6016 39.1309C20.4934 39.6103 22.4759 39.8631 24.5168 39.8631C37.7857 39.8631 48.5471 29.1015 48.5471 15.8262C48.5471 13.3576 48.1778 10.98 47.4846 8.73828C53.8469 12.4765 58.1231 19.396 58.1231 27.3133Z" fill="black" fill-opacity="0.0627451"/>
<path d="M52.5236 11.3949L36.5996 27.3189V4.79573C36.5996 3.32143 37.886 2.18934 39.3516 2.34902C44.2337 2.88072 48.696 4.81047 52.323 7.73025C53.4657 8.65002 53.5609 10.3577 52.5236 11.3949Z" fill="#E8F1F8"/>
<path d="M40.3557 15.9765C40.2889 15.9375 40.2305 15.8858 40.1838 15.8243C40.137 15.7627 40.1029 15.6926 40.0832 15.6179C40.0636 15.5431 40.0588 15.4653 40.0693 15.3887C40.0797 15.3121 40.1052 15.2384 40.1441 15.1716L44.651 7.44609C44.69 7.37935 44.7417 7.32094 44.8032 7.27419C44.8648 7.22744 44.9349 7.19327 45.0096 7.17363C45.0844 7.15398 45.1622 7.14925 45.2388 7.1597C45.3154 7.17016 45.3891 7.19559 45.4559 7.23454C45.5226 7.2735 45.581 7.32522 45.6278 7.38675C45.6745 7.44829 45.7087 7.51842 45.7283 7.59316C45.748 7.6679 45.7527 7.74577 45.7423 7.82234C45.7318 7.89891 45.7064 7.97266 45.6674 8.0394L41.1605 15.7649C41.1216 15.8317 41.0699 15.8901 41.0084 15.9369C40.9468 15.9837 40.8767 16.0179 40.8019 16.0375C40.7272 16.0571 40.6493 16.0619 40.5727 16.0514C40.4962 16.0409 40.4224 16.0155 40.3557 15.9765ZM40.3919 10.9987C39.3842 10.9987 38.5639 10.1807 38.5639 9.17582C38.5639 8.16806 39.3843 7.34835 40.3919 7.34835C41.3997 7.34835 42.2194 8.16806 42.2194 9.17582C42.2194 10.1807 41.3997 10.9987 40.3919 10.9987ZM40.3919 8.52566C40.2195 8.52575 40.0541 8.59426 39.9321 8.71615C39.8101 8.83805 39.7414 9.00336 39.7412 9.17582C39.7412 9.53165 40.0332 9.82143 40.3919 9.82143C40.7506 9.82143 41.0421 9.53165 41.0421 9.17582C41.042 9.00342 40.9734 8.83812 40.8515 8.71622C40.7296 8.59432 40.5643 8.52578 40.3919 8.52566ZM45.4196 15.8627C44.4119 15.8627 43.5916 15.0452 43.5916 14.0404C43.5916 13.0327 44.412 12.2124 45.4196 12.2124C46.4273 12.2124 47.2477 13.0328 47.2477 14.0404C47.2478 15.0452 46.4274 15.8627 45.4196 15.8627ZM45.4196 13.3896C45.2471 13.3898 45.0818 13.4585 44.9598 13.5804C44.8378 13.7024 44.7692 13.8678 44.7689 14.0403C44.7689 14.3961 45.0609 14.6853 45.4196 14.6853C45.7783 14.6853 46.0703 14.3961 46.0703 14.0403C46.0701 13.8678 46.0015 13.7024 45.8795 13.5804C45.7575 13.4585 45.5921 13.3898 45.4196 13.3896ZM29.5971 28.965V54.1468C29.5971 56.0909 28.0212 57.6668 26.0771 57.6668H6.30902C4.36498 57.6668 2.78906 56.0909 2.78906 54.1468V28.965C2.78906 27.021 4.36498 25.445 6.30902 25.445H26.0771C28.0212 25.445 29.5971 27.021 29.5971 28.965Z" fill="#474747"/>
<path d="M29.5971 28.9653V54.1471C29.5971 56.0901 28.0201 57.6671 26.0771 57.6671H6.30897C4.61237 57.6671 3.19027 56.4633 2.85938 54.8652C3.35927 54.9003 3.86603 54.9144 4.37999 54.9144C16.552 54.9144 26.422 45.0443 26.422 32.8724C26.422 30.2676 25.9715 27.7685 25.1407 25.4453H26.077C28.0201 25.4453 29.5971 27.0222 29.5971 28.9653Z" fill="black" fill-opacity="0.0627451"/>
<path d="M6.10742 35.6193V30.1173C6.10742 29.2629 6.80002 28.5703 7.65441 28.5703H24.733C25.5874 28.5703 26.28 29.2629 26.28 30.1173V35.6193C26.28 36.4737 25.5874 37.1663 24.733 37.1663H7.65441C6.80002 37.1663 6.10742 36.4737 6.10742 35.6193Z" fill="#E8F1F8"/>
<path d="M9.65 41.2036C9.65 42.1894 8.85933 42.98 7.88381 42.98C7.65031 42.9808 7.41895 42.9354 7.20307 42.8464C6.98719 42.7574 6.79104 42.6266 6.62593 42.4615C6.46081 42.2964 6.33 42.1002 6.24101 41.8843C6.15202 41.6684 6.10663 41.4371 6.10743 41.2036C6.10743 40.2281 6.89799 39.4375 7.88381 39.4375C8.85944 39.4375 9.65 40.2281 9.65 41.2036Z" fill="#F78721"/>
<path d="M9.65 46.9848C9.65 47.9706 8.85933 48.7612 7.88381 48.7612C7.65031 48.762 7.41895 48.7166 7.20307 48.6276C6.98719 48.5386 6.79104 48.4078 6.62593 48.2427C6.46081 48.0776 6.33 47.8815 6.24101 47.6656C6.15202 47.4497 6.10663 47.2183 6.10743 46.9848C6.10743 46.0093 6.89799 45.2188 7.88381 45.2188C8.85944 45.2188 9.65 46.0093 9.65 46.9848ZM9.65 52.7673C9.65 53.7531 8.85933 54.5437 7.88381 54.5437C7.65031 54.5445 7.41895 54.4991 7.20307 54.4101C6.98719 54.3211 6.79104 54.1903 6.62593 54.0252C6.46081 53.8601 6.33 53.6639 6.24101 53.4481C6.15202 53.2322 6.10663 53.0008 6.10743 52.7673C6.10743 51.7918 6.89799 51.0012 7.88381 51.0012C8.85944 51.0011 9.65 51.7917 9.65 52.7673Z" fill="#E8F1F8"/>
<path d="M15.193 41.2036C15.193 42.1894 14.4023 42.98 13.4268 42.98C13.1933 42.9808 12.9619 42.9354 12.746 42.8464C12.5302 42.7574 12.334 42.6266 12.1689 42.4615C12.0038 42.2964 11.873 42.1002 11.784 41.8843C11.695 41.6684 11.6496 41.4371 11.6504 41.2036C11.6504 40.2281 12.441 39.4375 13.4268 39.4375C14.4023 39.4375 15.193 40.2281 15.193 41.2036Z" fill="#F78721"/>
<path d="M15.193 46.986C15.193 47.9718 14.4023 48.7623 13.4268 48.7623C13.1933 48.7631 12.9619 48.7177 12.746 48.6288C12.5302 48.5398 12.334 48.409 12.1689 48.2438C12.0038 48.0787 11.873 47.8826 11.784 47.6667C11.695 47.4508 11.6496 47.2195 11.6504 46.986C11.6504 46.0104 12.441 45.2199 13.4268 45.2199C14.4023 45.2199 15.193 46.0104 15.193 46.986ZM15.193 52.7684C15.193 53.7543 14.4023 54.5448 13.4268 54.5448C13.1933 54.5456 12.9619 54.5002 12.746 54.4112C12.5302 54.3223 12.334 54.1914 12.1689 54.0263C12.0038 53.8612 11.873 53.6651 11.784 53.4492C11.695 53.2333 11.6496 53.0019 11.6504 52.7684C11.6504 51.7929 12.441 51.0024 13.4268 51.0024C14.4023 51.0023 15.193 51.7928 15.193 52.7684ZM20.7363 41.2036C20.7363 42.1894 19.9456 42.98 18.9701 42.98C18.7366 42.9808 18.5053 42.9354 18.2894 42.8464C18.0735 42.7574 17.8774 42.6266 17.7122 42.4615C17.5471 42.2963 17.4163 42.1002 17.3273 41.8843C17.2383 41.6684 17.1929 41.4371 17.1937 41.2036C17.1937 40.2281 17.9843 39.4375 18.9701 39.4375C19.9456 39.4375 20.7363 40.2281 20.7363 41.2036ZM20.7363 46.986C20.7363 47.9718 19.9456 48.7623 18.9701 48.7623C18.7366 48.7631 18.5053 48.7177 18.2894 48.6288C18.0735 48.5398 17.8774 48.409 17.7122 48.2438C17.5471 48.0787 17.4163 47.8826 17.3273 47.6667C17.2383 47.4508 17.1929 47.2195 17.1937 46.986C17.1937 46.0104 17.9843 45.2199 18.9701 45.2199C19.9456 45.2199 20.7363 46.0104 20.7363 46.986ZM20.7363 52.7684C20.7363 53.7543 19.9456 54.5448 18.9701 54.5448C18.7366 54.5456 18.5053 54.5002 18.2894 54.4112C18.0735 54.3223 17.8774 54.1914 17.7122 54.0263C17.5471 53.8612 17.4163 53.6651 17.3273 53.4492C17.2383 53.2333 17.1929 53.0019 17.1937 52.7684C17.1937 51.7929 17.9843 51.0024 18.9701 51.0024C19.9456 51.0023 20.7363 51.7928 20.7363 52.7684ZM26.2797 41.2036C26.2797 42.1894 25.489 42.98 24.5135 42.98C24.28 42.9808 24.0486 42.9354 23.8327 42.8464C23.6168 42.7574 23.4207 42.6266 23.2556 42.4615C23.0905 42.2963 22.9597 42.1002 22.8707 41.8843C22.7817 41.6684 22.7363 41.4371 22.7371 41.2036C22.7371 40.2281 23.5277 39.4375 24.5135 39.4375C25.489 39.4375 26.2797 40.2281 26.2797 41.2036Z" fill="#E8F1F8"/>
<path d="M22.7363 52.7672C22.7363 53.753 23.5269 54.5436 24.5127 54.5436C25.4882 54.5436 26.2789 53.753 26.2789 52.7672V46.9848C26.2789 46.0093 25.4882 45.2188 24.5127 45.2188C23.5269 45.2188 22.7363 46.0093 22.7363 46.9848V52.7672Z" fill="#FDCF17"/>
</svg>
