<svg width="60" height="47" viewBox="0 0 60 47" fill="none" xmlns="http://www.w3.org/2000/svg">
<path d="M54.375 0.4375H3.75C2.1967 0.4375 0.9375 1.6967 0.9375 3.25V33.25C0.9375 34.8033 2.1967 36.0625 3.75 36.0625H54.375C55.9283 36.0625 57.1875 34.8033 57.1875 33.25V3.25C57.1875 1.6967 55.9283 0.4375 54.375 0.4375Z" fill="#C8ECFF"/>
<path d="M54.375 3.25H6.5625C5.0092 3.25 3.75 4.5092 3.75 6.0625V33.25C3.75 34.8033 5.0092 36.0625 6.5625 36.0625H54.375C55.9283 36.0625 57.1875 34.8033 57.1875 33.25V6.0625C57.1875 4.5092 55.9283 3.25 54.375 3.25Z" fill="#AEE0FF"/>
<path d="M20.625 5.125H7.5C6.46447 5.125 5.625 5.96447 5.625 7V14.5C5.625 15.5355 6.46447 16.375 7.5 16.375H20.625C21.6605 16.375 22.5 15.5355 22.5 14.5V7C22.5 5.96447 21.6605 5.125 20.625 5.125Z" fill="#FFD45A"/>
<path d="M22.5 9.8125V7.9375H17.8125V5.125H15.9375V11.6875H12.1875V8.875C12.1875 8.62636 12.0887 8.3879 11.9129 8.21209C11.7371 8.03627 11.4986 7.9375 11.25 7.9375H5.625V9.8125H10.3125V11.6875H5.625V13.5625H10.3125V16.375H12.1875V13.5625H22.5V11.6875H17.8125V9.8125H22.5Z" fill="#F4BF4A"/>
<path d="M11.25 22.9375H5.625C5.37636 22.9375 5.1379 22.8387 4.96209 22.6629C4.78627 22.4871 4.6875 22.2486 4.6875 22C4.6875 21.7514 4.78627 21.5129 4.96209 21.3371C5.1379 21.1613 5.37636 21.0625 5.625 21.0625H11.25C11.4986 21.0625 11.7371 21.1613 11.9129 21.3371C12.0887 21.5129 12.1875 21.7514 12.1875 22C12.1875 22.2486 12.0887 22.4871 11.9129 22.6629C11.7371 22.8387 11.4986 22.9375 11.25 22.9375ZM16.875 27.625H5.625C5.37636 27.625 5.1379 27.5262 4.96209 27.3504C4.78627 27.1746 4.6875 26.9361 4.6875 26.6875C4.6875 26.4389 4.78627 26.2004 4.96209 26.0246C5.1379 25.8488 5.37636 25.75 5.625 25.75H16.875C17.1236 25.75 17.3621 25.8488 17.5379 26.0246C17.7137 26.2004 17.8125 26.4389 17.8125 26.6875C17.8125 26.9361 17.7137 27.1746 17.5379 27.3504C17.3621 27.5262 17.1236 27.625 16.875 27.625ZM12.1875 32.3125H5.625C5.37636 32.3125 5.1379 32.2137 4.96209 32.0379C4.78627 31.8621 4.6875 31.6236 4.6875 31.375C4.6875 31.1264 4.78627 30.8879 4.96209 30.7121C5.1379 30.5363 5.37636 30.4375 5.625 30.4375H12.1875C12.4361 30.4375 12.6746 30.5363 12.8504 30.7121C13.0262 30.8879 13.125 31.1264 13.125 31.375C13.125 31.6236 13.0262 31.8621 12.8504 32.0379C12.6746 32.2137 12.4361 32.3125 12.1875 32.3125ZM20.625 22.9375H15C14.7514 22.9375 14.5129 22.8387 14.3371 22.6629C14.1613 22.4871 14.0625 22.2486 14.0625 22C14.0625 21.7514 14.1613 21.5129 14.3371 21.3371C14.5129 21.1613 14.7514 21.0625 15 21.0625H20.625C20.8736 21.0625 21.1121 21.1613 21.2879 21.3371C21.4637 21.5129 21.5625 21.7514 21.5625 22C21.5625 22.2486 21.4637 22.4871 21.2879 22.6629C21.1121 22.8387 20.8736 22.9375 20.625 22.9375ZM30 22.9375H24.375C24.1264 22.9375 23.8879 22.8387 23.7121 22.6629C23.5363 22.4871 23.4375 22.2486 23.4375 22C23.4375 21.7514 23.5363 21.5129 23.7121 21.3371C23.8879 21.1613 24.1264 21.0625 24.375 21.0625H30C30.2486 21.0625 30.4871 21.1613 30.6629 21.3371C30.8387 21.5129 30.9375 21.7514 30.9375 22C30.9375 22.2486 30.8387 22.4871 30.6629 22.6629C30.4871 22.8387 30.2486 22.9375 30 22.9375ZM39.375 22.9375H33.75C33.5014 22.9375 33.2629 22.8387 33.0871 22.6629C32.9113 22.4871 32.8125 22.2486 32.8125 22C32.8125 21.7514 32.9113 21.5129 33.0871 21.3371C33.2629 21.1613 33.5014 21.0625 33.75 21.0625H39.375C39.6236 21.0625 39.8621 21.1613 40.0379 21.3371C40.2137 21.5129 40.3125 21.7514 40.3125 22C40.3125 22.2486 40.2137 22.4871 40.0379 22.6629C39.8621 22.8387 39.6236 22.9375 39.375 22.9375ZM48.75 22.9375H43.125C42.8764 22.9375 42.6379 22.8387 42.4621 22.6629C42.2863 22.4871 42.1875 22.2486 42.1875 22C42.1875 21.7514 42.2863 21.5129 42.4621 21.3371C42.6379 21.1613 42.8764 21.0625 43.125 21.0625H48.75C48.9986 21.0625 49.2371 21.1613 49.4129 21.3371C49.5887 21.5129 49.6875 21.7514 49.6875 22C49.6875 22.2486 49.5887 22.4871 49.4129 22.6629C49.2371 22.8387 48.9986 22.9375 48.75 22.9375Z" fill="#555F82"/>
<path d="M50.625 46.375C55.8027 46.375 60 42.1777 60 37C60 31.8223 55.8027 27.625 50.625 27.625C45.4473 27.625 41.25 31.8223 41.25 37C41.25 42.1777 45.4473 46.375 50.625 46.375Z" fill="#F0486E"/>
<path d="M48.75 5.125H43.125C41.0539 5.125 39.375 6.80393 39.375 8.875C39.375 10.9461 41.0539 12.625 43.125 12.625H48.75C50.8211 12.625 52.5 10.9461 52.5 8.875C52.5 6.80393 50.8211 5.125 48.75 5.125Z" fill="#F0486E"/>
<path d="M53.9397 33.6866C53.7639 33.5108 53.5255 33.4121 53.2769 33.4121C53.0283 33.4121 52.7899 33.5108 52.6141 33.6866L50.6257 35.675L48.6372 33.6866C48.4614 33.5108 48.223 33.4121 47.9744 33.4121C47.7258 33.4121 47.4874 33.5108 47.3116 33.6866C47.1358 33.8624 47.0371 34.1008 47.0371 34.3494C47.0371 34.598 47.1358 34.8364 47.3116 35.0122L49.3 37.0007L47.3116 38.9891C47.1358 39.1649 47.0371 39.4033 47.0371 39.6519C47.0371 39.9005 47.1358 40.1389 47.3116 40.3147C47.4874 40.4905 47.7258 40.5892 47.9744 40.5892C48.223 40.5892 48.4614 40.4905 48.6372 40.3147L50.6257 38.3263L52.6141 40.3147C52.7899 40.4905 53.0283 40.5892 53.2769 40.5892C53.5255 40.5892 53.7639 40.4905 53.9397 40.3147C54.1155 40.1389 54.2142 39.9005 54.2142 39.6519C54.2142 39.4033 54.1155 39.1649 53.9397 38.9891L51.9513 37.0007L53.9397 35.0122C54.1155 34.8364 54.2142 34.598 54.2142 34.3494C54.2142 34.1008 54.1155 33.8624 53.9397 33.6866Z" fill="#555F82"/>
</svg>
