<svg width="36" height="36" viewBox="0 0 36 36" fill="none" xmlns="http://www.w3.org/2000/svg">
<path fill-rule="evenodd" clip-rule="evenodd" d="M18.0007 2.58398C9.48626 2.58398 2.58398 9.48626 2.58398 18.0007C2.58398 26.515 9.48626 33.4173 18.0007 33.4173C26.515 33.4173 33.4173 26.515 33.4173 18.0007C33.4173 9.48626 26.515 2.58398 18.0007 2.58398ZM0.0839844 18.0007C0.0839844 8.10555 8.10555 0.0839844 18.0007 0.0839844C27.8958 0.0839844 35.9173 8.10555 35.9173 18.0007C35.9173 27.8958 27.8958 35.9173 18.0007 35.9173C8.10555 35.9173 0.0839844 27.8958 0.0839844 18.0007ZM16.6032 8.41727C16.6246 8.41729 16.646 8.41732 16.6673 8.41732H20.5007C23.4922 8.41732 25.9173 10.8424 25.9173 13.834C25.9173 16.8255 23.4922 19.2507 20.5007 19.2507H15.9173V20.084H18.0007C18.691 20.084 19.2507 20.6436 19.2507 21.334C19.2507 22.0243 18.691 22.584 18.0007 22.584H15.9173V26.334C15.9173 27.0243 15.3577 27.584 14.6673 27.584C13.977 27.584 13.4173 27.0243 13.4173 26.334V22.584H13.0007C12.3103 22.584 11.7507 22.0243 11.7507 21.334C11.7507 20.6436 12.3103 20.084 13.0007 20.084H13.4173V19.2507H13.0007C12.3103 19.2507 11.7507 18.691 11.7507 18.0007C11.7507 17.3103 12.3103 16.7507 13.0007 16.7507H13.4173V11.6673C13.4173 11.646 13.4173 11.6246 13.4173 11.6032C13.417 11.3606 13.4167 11.1085 13.4532 10.8777C13.6509 9.6297 14.6297 8.65089 15.8777 8.45323C16.1085 8.41667 16.3606 8.41698 16.6032 8.41727ZM15.9173 16.7507H20.5007C22.1115 16.7507 23.4173 15.4448 23.4173 13.834C23.4173 12.2232 22.1115 10.9173 20.5007 10.9173H16.6673C16.5057 10.9173 16.4095 10.9174 16.337 10.9194C16.2909 10.9207 16.2709 10.9224 16.2661 10.9229C16.09 10.9519 15.9519 11.09 15.9229 11.2661C15.9224 11.2709 15.9207 11.2909 15.9194 11.337C15.9174 11.4095 15.9173 11.5057 15.9173 11.6673V16.7507Z" fill="#2B7FDE"/>
</svg>
