<svg width="36" height="36" viewBox="0 0 36 36" fill="none" xmlns="http://www.w3.org/2000/svg">
<path d="M23.834 22.1673C23.834 23.0878 23.0878 23.834 22.1673 23.834C21.2468 23.834 20.5007 23.0878 20.5007 22.1673C20.5007 21.2468 21.2468 20.5007 22.1673 20.5007C23.0878 20.5007 23.834 21.2468 23.834 22.1673Z" fill="#2B7FDE"/>
<path d="M15.5007 13.834C15.5007 14.7545 14.7545 15.5007 13.834 15.5007C12.9135 15.5007 12.1673 14.7545 12.1673 13.834C12.1673 12.9135 12.9135 12.1673 13.834 12.1673C14.7545 12.1673 15.5007 12.9135 15.5007 13.834Z" fill="#2B7FDE"/>
<path fill-rule="evenodd" clip-rule="evenodd" d="M23.8845 12.1168C24.3727 12.6049 24.3727 13.3964 23.8845 13.8845L13.8845 23.8845C13.3964 24.3727 12.6049 24.3727 12.1168 23.8845C11.6286 23.3964 11.6286 22.6049 12.1168 22.1168L22.1168 12.1168C22.6049 11.6286 23.3964 11.6286 23.8845 12.1168Z" fill="#2B7FDE"/>
<path fill-rule="evenodd" clip-rule="evenodd" d="M17.905 0.0839847H18.0963C21.9436 0.0839633 24.9587 0.0839463 27.3111 0.400229C29.719 0.723962 31.6191 1.39953 33.1104 2.89088C34.6018 4.38223 35.2773 6.28227 35.6011 8.69016C35.9174 11.0426 35.9173 14.0577 35.9173 17.905V18.0963C35.9173 21.9436 35.9174 24.9587 35.6011 27.3111C35.2773 29.719 34.6018 31.6191 33.1104 33.1104C31.6191 34.6018 29.719 35.2773 27.3111 35.6011C24.9587 35.9174 21.9436 35.9173 18.0963 35.9173H17.905C14.0577 35.9173 11.0426 35.9174 8.69016 35.6011C6.28227 35.2773 4.38223 34.6018 2.89088 33.1104C1.39953 31.6191 0.723962 29.719 0.400229 27.3111C0.0839463 24.9587 0.0839633 21.9436 0.0839847 18.0963V17.905C0.0839633 14.0577 0.0839463 11.0426 0.400229 8.69016C0.723962 6.28227 1.39953 4.38223 2.89088 2.89088C4.38223 1.39953 6.28227 0.723962 8.69016 0.400229C11.0426 0.0839463 14.0577 0.0839633 17.905 0.0839847ZM9.02328 2.87794C6.89261 3.1644 5.60807 3.70922 4.65865 4.65865C3.70922 5.60807 3.1644 6.89261 2.87794 9.02328C2.58664 11.1899 2.58399 14.0369 2.58399 18.0007C2.58399 21.9644 2.58664 24.8114 2.87794 26.978C3.1644 29.1087 3.70922 30.3932 4.65865 31.3427C5.60807 32.2921 6.89261 32.8369 9.02328 33.1234C11.1899 33.4147 14.0369 33.4173 18.0007 33.4173C21.9644 33.4173 24.8114 33.4147 26.978 33.1234C29.1087 32.8369 30.3932 32.2921 31.3427 31.3427C32.2921 30.3932 32.8369 29.1087 33.1234 26.978C33.4147 24.8114 33.4173 21.9644 33.4173 18.0007C33.4173 14.0369 33.4147 11.1899 33.1234 9.02328C32.8369 6.89261 32.2921 5.60807 31.3427 4.65865C30.3932 3.70922 29.1087 3.1644 26.978 2.87794C24.8114 2.58664 21.9644 2.58399 18.0007 2.58399C14.0369 2.58399 11.1899 2.58664 9.02328 2.87794Z" fill="#2B7FDE"/>
</svg>
