<svg width="34" height="34" viewBox="0 0 34 34" fill="none" xmlns="http://www.w3.org/2000/svg">
<path fill-rule="evenodd" clip-rule="evenodd" d="M14.6567 0.865371C16.139 0.156856 17.8623 0.156856 19.3447 0.865371C19.9886 1.17317 20.5787 1.6765 21.3958 2.37344C21.4382 2.40961 21.4812 2.44631 21.5249 2.48353C21.9217 2.82168 22.0467 2.92565 22.1731 3.0104C22.4947 3.22597 22.8559 3.37557 23.2358 3.45056C23.3851 3.48005 23.547 3.49489 24.0667 3.53636C24.1239 3.54093 24.1802 3.5454 24.2358 3.54981C25.3064 3.63476 26.0795 3.69611 26.7526 3.93383C28.3017 4.48102 29.5203 5.69956 30.0675 7.24874C30.3052 7.92176 30.3665 8.69493 30.4515 9.76549C30.4559 9.82106 30.4604 9.87743 30.4649 9.93463C30.5064 10.4543 30.5213 10.6162 30.5507 10.7655C30.6257 11.1454 30.7753 11.5066 30.9909 11.8282C31.0756 11.9546 31.1796 12.0796 31.5178 12.4764C31.555 12.5201 31.5917 12.5631 31.6279 12.6055C32.3248 13.4226 32.8281 14.0127 33.1359 14.6567C33.8444 16.139 33.8444 17.8623 33.1359 19.3447C32.8281 19.9886 32.3248 20.5787 31.6279 21.3958C31.5917 21.4382 31.555 21.4812 31.5178 21.5249C31.1796 21.9217 31.0756 22.0467 30.9909 22.1731C30.7753 22.4947 30.6257 22.8559 30.5507 23.2358C30.5213 23.3851 30.5064 23.547 30.4649 24.0667C30.4604 24.1239 30.4559 24.1802 30.4515 24.2358C30.3665 25.3064 30.3052 26.0795 30.0675 26.7526C29.5203 28.3017 28.3017 29.5203 26.7526 30.0675C26.0795 30.3052 25.3064 30.3665 24.2358 30.4515C24.1802 30.4559 24.1239 30.4604 24.0667 30.4649C23.547 30.5064 23.3851 30.5213 23.2358 30.5507C22.8559 30.6257 22.4947 30.7753 22.1731 30.9909C22.0467 31.0756 21.9217 31.1796 21.5249 31.5178C21.4812 31.555 21.4382 31.5917 21.3958 31.6279C20.5787 32.3248 19.9886 32.8281 19.3447 33.1359C17.8623 33.8444 16.139 33.8444 14.6567 33.1359C14.0127 32.8281 13.4226 32.3248 12.6055 31.6279C12.5631 31.5917 12.5201 31.555 12.4764 31.5178C12.0796 31.1796 11.9546 31.0756 11.8282 30.9909C11.5066 30.7753 11.1454 30.6257 10.7655 30.5507C10.6162 30.5213 10.4543 30.5064 9.93463 30.4649C9.87743 30.4604 9.82106 30.4559 9.76549 30.4515C8.69493 30.3665 7.92176 30.3052 7.24874 30.0675C5.69956 29.5203 4.48102 28.3017 3.93383 26.7526C3.69611 26.0795 3.63476 25.3064 3.54981 24.2358C3.5454 24.1802 3.54093 24.1239 3.53636 24.0667C3.49489 23.547 3.48005 23.3851 3.45056 23.2358C3.37557 22.8559 3.22597 22.4947 3.0104 22.1731C2.92565 22.0467 2.82168 21.9217 2.48353 21.5249C2.44631 21.4812 2.40962 21.4382 2.37344 21.3958C1.67651 20.5787 1.17318 19.9886 0.865371 19.3447C0.156856 17.8623 0.156856 16.139 0.865371 14.6567C1.17317 14.0127 1.6765 13.4226 2.37343 12.6055C2.40961 12.5631 2.44631 12.5201 2.48353 12.4764C2.82168 12.0796 2.92565 11.9546 3.0104 11.8282C3.22597 11.5066 3.37557 11.1454 3.45056 10.7655C3.48005 10.6162 3.49489 10.4543 3.53636 9.93463C3.54093 9.87743 3.5454 9.82106 3.54981 9.76549C3.63476 8.69493 3.69611 7.92176 3.93383 7.24874C4.48102 5.69956 5.69956 4.48102 7.24874 3.93383C7.92176 3.69611 8.69493 3.63476 9.76549 3.54981C9.82106 3.5454 9.87743 3.54093 9.93463 3.53636C10.4543 3.49489 10.6162 3.48005 10.7655 3.45056C11.1454 3.37557 11.5066 3.22597 11.8282 3.0104C11.9546 2.92565 12.0796 2.82168 12.4764 2.48353C12.5201 2.44631 12.5631 2.40961 12.6055 2.37344C13.4226 1.6765 14.0127 1.17317 14.6567 0.865371ZM18.2628 3.12881C17.4646 2.7473 16.5367 2.7473 15.7385 3.12881C15.4299 3.27631 15.1046 3.53984 14.1036 4.39293C14.0871 4.40694 14.0709 4.42077 14.0549 4.43442C13.7264 4.71449 13.4866 4.91893 13.2249 5.09431C12.6276 5.49464 11.9569 5.77248 11.2514 5.91175C10.9424 5.97276 10.6283 5.99777 10.1979 6.03203C10.177 6.0337 10.1557 6.03539 10.1342 6.03711C8.82312 6.14173 8.40676 6.18539 8.08425 6.2993C7.25008 6.59394 6.59394 7.25008 6.2993 8.08425C6.18539 8.40676 6.14173 8.82312 6.03711 10.1342C6.03539 10.1557 6.0337 10.177 6.03203 10.1979C5.99777 10.6283 5.97276 10.9424 5.91175 11.2514C5.77248 11.9569 5.49464 12.6276 5.09431 13.2249C4.91893 13.4866 4.71449 13.7264 4.43441 14.0549C4.42076 14.0709 4.40694 14.0871 4.39293 14.1036C3.53984 15.1046 3.27631 15.4299 3.12881 15.7385C2.7473 16.5367 2.7473 17.4646 3.12881 18.2628C3.27631 18.5714 3.53984 18.8967 4.39293 19.8977C4.40694 19.9142 4.42077 19.9304 4.43442 19.9464C4.71449 20.2749 4.91893 20.5147 5.09431 20.7764C5.49464 21.3737 5.77248 22.0444 5.91175 22.7499C5.97276 23.0589 5.99777 23.373 6.03203 23.8034C6.0337 23.8243 6.03539 23.8456 6.03711 23.8671C6.14173 25.1782 6.18539 25.5945 6.2993 25.917C6.59394 26.7512 7.25008 27.4074 8.08425 27.702C8.40676 27.8159 8.82312 27.8596 10.1342 27.9642L10.1979 27.9693C10.6283 28.0035 10.9424 28.0285 11.2514 28.0896C11.9569 28.2288 12.6276 28.5067 13.2249 28.907C13.4866 29.0824 13.7264 29.2868 14.0549 29.5669L14.1036 29.6084C15.1046 30.4615 15.4299 30.725 15.7385 30.8725C16.5367 31.254 17.4646 31.254 18.2628 30.8725C18.5714 30.725 18.8967 30.4615 19.8977 29.6084L19.9464 29.5669C20.2749 29.2868 20.5147 29.0824 20.7764 28.907C21.3737 28.5067 22.0444 28.2288 22.7499 28.0896C23.0589 28.0285 23.373 28.0035 23.8034 27.9693L23.8671 27.9642C25.1782 27.8596 25.5945 27.8159 25.917 27.702C26.7512 27.4074 27.4074 26.7512 27.702 25.917C27.8159 25.5945 27.8596 25.1782 27.9642 23.8671L27.9693 23.8034C28.0035 23.373 28.0285 23.0589 28.0896 22.7499C28.2288 22.0444 28.5067 21.3737 28.907 20.7764C29.0824 20.5147 29.2868 20.2749 29.5669 19.9464L29.6084 19.8977C30.4615 18.8967 30.725 18.5714 30.8725 18.2628C31.254 17.4646 31.254 16.5367 30.8725 15.7385C30.725 15.4299 30.4615 15.1046 29.6084 14.1036L29.5669 14.0549C29.2868 13.7264 29.0824 13.4866 28.907 13.2249C28.5067 12.6276 28.2288 11.9569 28.0896 11.2514C28.0285 10.9424 28.0035 10.6283 27.9693 10.1979L27.9642 10.1342C27.8596 8.82312 27.8159 8.40676 27.702 8.08425C27.4074 7.25008 26.7512 6.59394 25.917 6.2993C25.5945 6.18539 25.1782 6.14173 23.8671 6.03711C23.8456 6.03539 23.8243 6.0337 23.8034 6.03203C23.373 5.99777 23.0589 5.97276 22.7499 5.91175C22.0444 5.77248 21.3737 5.49464 20.7764 5.09431C20.5147 4.91893 20.2749 4.71449 19.9464 4.43441C19.9304 4.42076 19.9142 4.40694 19.8977 4.39293C18.8967 3.53984 18.5714 3.27631 18.2628 3.12881Z" fill="#2B7FDE"/>
<path fill-rule="evenodd" clip-rule="evenodd" d="M22.905 11.0963C23.3949 11.5862 23.3949 12.3804 22.905 12.8702L12.8702 22.905C12.3804 23.3949 11.5862 23.3949 11.0963 22.905C10.6065 22.4151 10.6065 21.6209 11.0963 21.1311L21.1311 11.0963C21.6209 10.6065 22.4151 10.6065 22.905 11.0963Z" fill="#2B7FDE"/>
<path d="M22.8543 21.1818C22.8543 22.1055 22.1055 22.8543 21.1818 22.8543C20.2581 22.8543 19.5093 22.1055 19.5093 21.1818C19.5093 20.2581 20.2581 19.5093 21.1818 19.5093C22.1055 19.5093 22.8543 20.2581 22.8543 21.1818Z" fill="#2B7FDE"/>
<path d="M14.492 12.8195C14.492 13.7432 13.7432 14.492 12.8195 14.492C11.8958 14.492 11.147 13.7432 11.147 12.8195C11.147 11.8958 11.8958 11.147 12.8195 11.147C13.7432 11.147 14.492 11.8958 14.492 12.8195Z" fill="#2B7FDE"/>
</svg>
