<svg width="9" height="17" viewBox="0 0 9 17" fill="none" xmlns="http://www.w3.org/2000/svg">
<path d="M7.85474 0.199219H6.98886C4.58224 0.199219 2.62434 2.15718 2.62434 4.5638V6.40578H1.145C1.07184 6.40578 1.00167 6.43485 0.949939 6.48658C0.898204 6.53832 0.869141 6.60848 0.869141 6.68165V8.88854C0.869141 8.96171 0.898204 9.03187 0.949939 9.08361C1.00167 9.13534 1.07184 9.1644 1.145 9.1644H2.62423V15.9234C2.62423 15.9965 2.65329 16.0667 2.70503 16.1184C2.75676 16.1702 2.82693 16.1992 2.90009 16.1992H5.10699C5.18015 16.1992 5.25032 16.1702 5.30205 16.1184C5.35379 16.0667 5.38285 15.9965 5.38285 15.9234V9.1644H7.57794C7.6511 9.1644 7.72127 9.13534 7.773 9.08361C7.82474 9.03187 7.8538 8.96171 7.8538 8.88854V6.68165C7.8538 6.60848 7.82474 6.53832 7.773 6.48658C7.72127 6.43485 7.6511 6.40578 7.57794 6.40578H5.38285V4.5638C5.38285 3.67828 6.10329 2.95784 6.98875 2.95784H7.85463C7.92779 2.95784 7.99796 2.92878 8.04969 2.87704C8.10143 2.82531 8.13049 2.75514 8.13049 2.68198V0.475081C8.13051 0.438859 8.12338 0.40299 8.10953 0.369521C8.09568 0.336053 8.07537 0.305641 8.04977 0.280024C8.02416 0.254406 7.99375 0.234084 7.96029 0.22022C7.92683 0.206355 7.89096 0.199219 7.85474 0.199219Z" fill="black"/>
</svg>
