<svg width="42" height="42" viewBox="0 0 42 42" fill="none" xmlns="http://www.w3.org/2000/svg">
<g clip-path="url(#clip0_410_4207)">
<path opacity="0.5" d="M42 21C42 32.598 32.598 42 21 42C9.40202 42 0 32.598 0 21C0 9.40202 9.40202 0 21 0C32.598 0 42 9.40202 42 21Z" fill="white"/>
<path d="M31.5328 35.8171C28.5371 37.8249 24.9092 39 21.0001 39C17.0909 39 13.4629 37.8249 10.4671 35.8169C9.14398 34.9301 8.57854 33.2408 9.34784 31.8661C10.9426 29.0163 14.2288 27.2414 21 27.2414C27.7713 27.2414 31.0574 29.0164 32.6522 31.8662C33.4215 33.2409 32.856 34.9302 31.5328 35.8171Z" fill="#E1E6EE"/>
<path d="M21.0001 20.8276C24.6305 20.8276 27.5736 17.956 27.5736 14.4138C27.5736 10.8716 24.6305 8 21.0001 8C17.3697 8 14.4266 10.8716 14.4266 14.4138C14.4266 17.956 17.3697 20.8276 21.0001 20.8276Z" fill="#E1E6EE"/>
</g>
<defs>
<clipPath id="clip0_410_4207">
<rect width="42" height="42" fill="white"/>
</clipPath>
</defs>
</svg>
