<svg width="10" height="10" viewBox="0 0 10 10" fill="none" xmlns="http://www.w3.org/2000/svg">
<path d="M5.31716 9.93333C5.41946 9.89367 5.51291 9.8342 5.59216 9.75833L9.75883 5.59167C9.83653 5.51397 9.89816 5.42173 9.94021 5.32021C9.98226 5.21869 10.0039 5.10988 10.0039 5C10.0039 4.77808 9.91575 4.56525 9.75883 4.40833C9.68113 4.33063 9.58889 4.269 9.48737 4.22695C9.38585 4.1849 9.27705 4.16326 9.16716 4.16326C8.94524 4.16326 8.73242 4.25141 8.5755 4.40833L5.83383 7.15833L5.83383 0.833333C5.83383 0.612319 5.74603 0.400358 5.58975 0.244078C5.43347 0.0877973 5.22151 -2.09045e-07 5.0005 -2.18706e-07C4.77948 -2.28367e-07 4.56752 0.0877973 4.41124 0.244078C4.25496 0.400358 4.16716 0.612319 4.16716 0.833333L4.16716 7.15833L1.4255 4.40833C1.34803 4.33023 1.25586 4.26823 1.15431 4.22592C1.05276 4.18362 0.943839 4.16183 0.83383 4.16183C0.72382 4.16183 0.614898 4.18362 0.513349 4.22592C0.4118 4.26823 0.319633 4.33023 0.242164 4.40833C0.164057 4.4858 0.10206 4.57797 0.0597527 4.67952C0.0174455 4.78107 -0.00433578 4.88999 -0.00433578 5C-0.00433579 5.11001 0.0174455 5.21893 0.0597527 5.32048C0.10206 5.42203 0.164057 5.5142 0.242164 5.59167L4.40883 9.75833C4.48808 9.8342 4.58154 9.89367 4.68383 9.93333C4.88671 10.0167 5.11428 10.0167 5.31716 9.93333Z" fill="#6E7F98"/>
</svg>
