<svg width="18" height="18" viewBox="0 0 18 18" fill="none" xmlns="http://www.w3.org/2000/svg">
<path d="M13.168 4.83268H4.83464C4.61362 4.83268 4.40166 4.92048 4.24538 5.07676C4.0891 5.23304 4.0013 5.445 4.0013 5.66602C4.0013 5.88703 4.0891 6.09899 4.24538 6.25527C4.40166 6.41155 4.61362 6.49935 4.83464 6.49935H13.168C13.389 6.49935 13.6009 6.41155 13.7572 6.25527C13.9135 6.09899 14.0013 5.88703 14.0013 5.66602C14.0013 5.445 13.9135 5.23304 13.7572 5.07676C13.6009 4.92048 13.389 4.83268 13.168 4.83268ZM13.168 8.16602H4.83464C4.61362 8.16602 4.40166 8.25381 4.24538 8.41009C4.0891 8.56637 4.0013 8.77834 4.0013 8.99935C4.0013 9.22036 4.0891 9.43232 4.24538 9.5886C4.40166 9.74488 4.61362 9.83268 4.83464 9.83268H13.168C13.389 9.83268 13.6009 9.74488 13.7572 9.5886C13.9135 9.43232 14.0013 9.22036 14.0013 8.99935C14.0013 8.77834 13.9135 8.56637 13.7572 8.41009C13.6009 8.25381 13.389 8.16602 13.168 8.16602ZM14.8346 0.666016H3.16797C2.50493 0.666016 1.86904 0.929408 1.4002 1.39825C0.931361 1.86709 0.667969 2.50297 0.667969 3.16602V11.4993C0.667969 12.1624 0.931361 12.7983 1.4002 13.2671C1.86904 13.736 2.50493 13.9993 3.16797 13.9993H12.8263L15.9096 17.091C15.9875 17.1682 16.0798 17.2294 16.1814 17.2708C16.2829 17.3123 16.3916 17.3333 16.5013 17.3327C16.6106 17.3355 16.7191 17.3127 16.818 17.266C16.9702 17.2035 17.1004 17.0973 17.1924 16.9609C17.2843 16.8245 17.3338 16.6639 17.3346 16.4993V3.16602C17.3346 2.50297 17.0712 1.86709 16.6024 1.39825C16.1336 0.929408 15.4977 0.666016 14.8346 0.666016ZM15.668 14.491L13.7596 12.5743C13.6818 12.4971 13.5894 12.436 13.4879 12.3945C13.3864 12.3531 13.2776 12.332 13.168 12.3327H3.16797C2.94696 12.3327 2.73499 12.2449 2.57871 12.0886C2.42243 11.9323 2.33464 11.7204 2.33464 11.4993V3.16602C2.33464 2.945 2.42243 2.73304 2.57871 2.57676C2.73499 2.42048 2.94696 2.33268 3.16797 2.33268H14.8346C15.0556 2.33268 15.2676 2.42048 15.4239 2.57676C15.5802 2.73304 15.668 2.945 15.668 3.16602V14.491Z" fill="#6E7F98"/>
</svg>
