<svg width="18" height="18" viewBox="0 0 18 18" fill="none" xmlns="http://www.w3.org/2000/svg">
<path d="M16.7513 7.39939C16.5171 7.11826 16.2241 6.89195 15.893 6.73644C15.5618 6.58094 15.2005 6.50001 14.8346 6.49939H11.0346L11.5013 5.30772C11.6954 4.78596 11.7601 4.22489 11.6897 3.67265C11.6193 3.12042 11.416 2.59349 11.0973 2.13708C10.7785 1.68066 10.3538 1.30838 9.85959 1.05217C9.36535 0.795961 8.81633 0.663466 8.25964 0.666053C8.09933 0.666387 7.94253 0.712949 7.80803 0.800155C7.67352 0.887361 7.56703 1.01151 7.5013 1.15772L5.1263 6.49939H3.16797C2.50493 6.49939 1.86904 6.76278 1.4002 7.23162C0.931361 7.70046 0.667969 8.33634 0.667969 8.99939V14.8327C0.667969 15.4958 0.931361 16.1316 1.4002 16.6005C1.86904 17.0693 2.50493 17.3327 3.16797 17.3327H13.7763C14.3611 17.3325 14.9274 17.1273 15.3766 16.7527C15.8257 16.3782 16.1294 15.858 16.2346 15.2827L17.293 9.44939C17.3584 9.08887 17.3438 8.71837 17.2502 8.36412C17.1566 8.00986 16.9863 7.68051 16.7513 7.39939ZM4.83464 15.6661H3.16797C2.94696 15.6661 2.73499 15.5783 2.57871 15.422C2.42243 15.2657 2.33464 15.0537 2.33464 14.8327V8.99939C2.33464 8.77837 2.42243 8.56641 2.57871 8.41013C2.73499 8.25385 2.94696 8.16605 3.16797 8.16605H4.83464V15.6661ZM15.668 9.14939L14.6096 14.9827C14.5741 15.1769 14.4709 15.3521 14.3183 15.4772C14.1657 15.6024 13.9736 15.6693 13.7763 15.6661H6.5013V7.50772L8.76797 2.40772C9.00129 2.47574 9.21798 2.59139 9.40435 2.74737C9.59072 2.90335 9.74274 3.09628 9.8508 3.31396C9.95886 3.53165 10.0206 3.76938 10.0322 4.01214C10.0437 4.25489 10.0049 4.49741 9.91797 4.72439L9.4763 5.91605C9.38219 6.16793 9.35042 6.43884 9.3837 6.70566C9.41698 6.97248 9.51432 7.22729 9.66741 7.44834C9.82051 7.66938 10.0248 7.85011 10.2629 7.97509C10.501 8.10006 10.7657 8.16558 11.0346 8.16605H14.8346C14.9571 8.16585 15.078 8.19263 15.1889 8.24448C15.2998 8.29633 15.398 8.37198 15.4763 8.46605C15.5566 8.55882 15.6154 8.66817 15.6485 8.7863C15.6816 8.90442 15.6883 9.0284 15.668 9.14939Z" fill="#6E7F98"/>
</svg>
