<svg width="18" height="14" viewBox="0 0 18 14" fill="none" xmlns="http://www.w3.org/2000/svg">
<path d="M17.267 6.66732C15.5836 2.75898 12.417 0.333984 9.0003 0.333984C5.58363 0.333984 2.41697 2.75898 0.733633 6.66732C0.687747 6.77246 0.664062 6.88594 0.664062 7.00065C0.664063 7.11537 0.687747 7.22885 0.733633 7.33398C2.41697 11.2423 5.58363 13.6673 9.0003 13.6673C12.417 13.6673 15.5836 11.2423 17.267 7.33398C17.3129 7.22885 17.3365 7.11537 17.3365 7.00065C17.3365 6.88594 17.3129 6.77246 17.267 6.66732V6.66732ZM9.0003 12.0007C6.35863 12.0007 3.85863 10.0923 2.41697 7.00065C3.85863 3.90898 6.35863 2.00065 9.0003 2.00065C11.642 2.00065 14.142 3.90898 15.5836 7.00065C14.142 10.0923 11.642 12.0007 9.0003 12.0007ZM9.0003 3.66732C8.34103 3.66732 7.69656 3.86281 7.1484 4.22909C6.60024 4.59536 6.17299 5.11595 5.9207 5.72504C5.66841 6.33413 5.6024 7.00435 5.73102 7.65095C5.85963 8.29756 6.1771 8.8915 6.64328 9.35767C7.10945 9.82385 7.7034 10.1413 8.35 10.2699C8.9966 10.3986 9.66682 10.3325 10.2759 10.0802C10.885 9.82796 11.4056 9.40072 11.7719 8.85255C12.1381 8.30439 12.3336 7.65992 12.3336 7.00065C12.3336 6.1166 11.9824 5.26875 11.3573 4.64363C10.7322 4.01851 9.88435 3.66732 9.0003 3.66732V3.66732ZM9.0003 8.66732C8.67066 8.66732 8.34843 8.56957 8.07435 8.38643C7.80027 8.2033 7.58665 7.943 7.4605 7.63846C7.33435 7.33391 7.30135 6.9988 7.36566 6.6755C7.42997 6.3522 7.5887 6.05523 7.82179 5.82214C8.05488 5.58905 8.35185 5.43032 8.67515 5.36601C8.99845 5.3017 9.33356 5.33471 9.63811 5.46085C9.94265 5.587 10.2029 5.80062 10.3861 6.0747C10.5692 6.34878 10.667 6.67102 10.667 7.00065C10.667 7.44268 10.4914 7.8666 10.1788 8.17916C9.86625 8.49172 9.44233 8.66732 9.0003 8.66732Z" fill="#6E7F98"/>
</svg>
