<svg width="17" height="17" viewBox="0 0 17 17" fill="none" xmlns="http://www.w3.org/2000/svg">
<path d="M8.50377 4.08984C7.96463 4.08976 7.43075 4.19588 6.93262 4.40217C6.4345 4.60845 5.9819 4.91084 5.60067 5.29207C5.21943 5.67331 4.91704 6.12591 4.71076 6.62403C4.50448 7.12215 4.39835 7.65603 4.39844 8.19518C4.39835 8.73432 4.50448 9.2682 4.71076 9.76632C4.91704 10.2644 5.21943 10.717 5.60067 11.0983C5.9819 11.4795 6.4345 11.7819 6.93262 11.9882C7.43075 12.1945 7.96463 12.3006 8.50377 12.3005C9.04292 12.3006 9.5768 12.1945 10.0749 11.9882C10.573 11.7819 11.0256 11.4795 11.4069 11.0983C11.7881 10.717 12.0905 10.2644 12.2968 9.76632C12.5031 9.2682 12.6092 8.73432 12.6091 8.19518C12.6092 7.65603 12.5031 7.12215 12.2968 6.62403C12.0905 6.12591 11.7881 5.67331 11.4069 5.29207C11.0256 4.91084 10.573 4.60845 10.0749 4.40217C9.5768 4.19588 9.04292 4.08976 8.50377 4.08984ZM8.50377 10.8598C7.97694 10.8597 7.46197 10.7034 7.02398 10.4106C6.58599 10.1178 6.24464 9.70176 6.04309 9.215C5.84155 8.72825 5.78885 8.19266 5.89166 7.67596C5.99447 7.15926 6.24818 6.68464 6.62071 6.31211C6.99323 5.93958 7.46785 5.68588 7.98455 5.58306C8.50126 5.48025 9.03684 5.53295 9.5236 5.7345C10.0104 5.93605 10.4264 6.2774 10.7192 6.71539C11.012 7.15338 11.1683 7.66834 11.1684 8.19518C11.1686 8.54516 11.0998 8.89174 10.966 9.21511C10.8321 9.53848 10.6358 9.8323 10.3884 10.0798C10.1409 10.3272 9.84707 10.5235 9.5237 10.6574C9.20033 10.7912 8.85375 10.86 8.50377 10.8598Z" fill="black"/>
<path d="M11.7988 0.249477C10.3268 0.18081 6.68082 0.184143 5.20749 0.249477C3.91282 0.310143 2.77082 0.62281 1.85015 1.54348C0.311485 3.08214 0.508152 5.15548 0.508152 8.19614C0.508152 11.3081 0.334818 13.3335 1.85015 14.8488C3.39482 16.3928 5.49815 16.1908 8.50282 16.1908C11.5855 16.1908 12.6495 16.1928 13.7395 15.7708C15.2215 15.1955 16.3402 13.8708 16.4495 11.4915C16.5188 10.0188 16.5148 6.37348 16.4495 4.90014C16.3175 2.09148 14.8102 0.388143 11.7988 0.249477ZM14.1288 13.8308C13.1202 14.8395 11.7208 14.7495 8.48349 14.7495C5.15015 14.7495 3.81348 14.7988 2.83815 13.8208C1.71482 12.7028 1.91815 10.9075 1.91815 8.18548C1.91815 4.50214 1.54015 1.84948 5.23682 1.66014C6.08615 1.63014 6.33615 1.62014 8.47415 1.62014L8.50415 1.64014C12.0568 1.64014 14.8442 1.26814 15.0115 4.96414C15.0495 5.80748 15.0582 6.06081 15.0582 8.19548C15.0575 11.4901 15.1202 12.8348 14.1288 13.8308Z" fill="black"/>
<path d="M12.7699 4.88742C13.2997 4.88742 13.7292 4.45791 13.7292 3.92808C13.7292 3.39826 13.2997 2.96875 12.7699 2.96875C12.2401 2.96875 11.8105 3.39826 11.8105 3.92808C11.8105 4.45791 12.2401 4.88742 12.7699 4.88742Z" fill="black"/>
</svg>
