<svg width="55" height="52" viewBox="0 0 55 52" fill="none" xmlns="http://www.w3.org/2000/svg">
<path d="M45.1465 0.6875H3.89648C1.82542 0.6875 0.146484 2.36643 0.146484 4.4375V38.1875C0.146484 40.2586 1.82542 41.9375 3.89648 41.9375H45.1465C47.2176 41.9375 48.8965 40.2586 48.8965 38.1875V4.4375C48.8965 2.36643 47.2176 0.6875 45.1465 0.6875Z" fill="#757575"/>
<path d="M48.8965 4.4375V38.1875C48.8966 38.68 48.7997 39.1677 48.6113 39.6227C48.4229 40.0777 48.1467 40.4912 47.7984 40.8394C47.4502 41.1877 47.0367 41.4639 46.5817 41.6523C46.1267 41.8407 45.639 41.9376 45.1465 41.9375H3.89648C3.40399 41.9376 2.9163 41.8407 2.46128 41.6523C2.00625 41.4639 1.5928 41.1877 1.24456 40.8394C0.896315 40.4912 0.620097 40.0777 0.431685 39.6227C0.243274 39.1677 0.146361 38.68 0.146484 38.1875V35.375C0.146361 35.8675 0.243274 36.3552 0.431685 36.8102C0.620097 37.2652 0.896315 37.6787 1.24456 38.0269C1.5928 38.3752 2.00625 38.6514 2.46128 38.8398C2.9163 39.0282 3.40399 39.1251 3.89648 39.125H42.334C42.8265 39.1251 43.3142 39.0282 43.7692 38.8398C44.2242 38.6514 44.6377 38.3752 44.9859 38.0269C45.3342 37.6787 45.6104 37.2652 45.7988 36.8102C45.9872 36.3552 46.0841 35.8675 46.084 35.375V4.4375C46.0841 3.94501 45.9872 3.45732 45.7988 3.00229C45.6104 2.54727 45.3342 2.13382 44.9859 1.78558C44.6377 1.43733 44.2242 1.16111 43.7692 0.972701C43.3142 0.78429 42.8265 0.687377 42.334 0.6875H45.1465C45.639 0.687377 46.1267 0.78429 46.5817 0.972701C47.0367 1.16111 47.4502 1.43733 47.7984 1.78558C48.1467 2.13382 48.4229 2.54727 48.6113 3.00229C48.7997 3.45732 48.8966 3.94501 48.8965 4.4375Z" fill="#616161"/>
<path d="M5.77148 6.3125H43.2715V36.3125H5.77148V6.3125Z" fill="#BDBDBD"/>
<path d="M43.2715 6.3125V36.3125H5.77148V33.5H34.834C36.3258 33.5 37.7566 32.9074 38.8115 31.8525C39.8664 30.7976 40.459 29.3668 40.459 27.875V6.3125H43.2715Z" fill="#9E9E9E"/>
<path d="M6.70898 11.9375H4.83398C4.31622 11.9375 3.89648 12.3572 3.89648 12.875V16.625C3.89648 17.1428 4.31622 17.5625 4.83398 17.5625H6.70898C7.22675 17.5625 7.64648 17.1428 7.64648 16.625V12.875C7.64648 12.3572 7.22675 11.9375 6.70898 11.9375Z" fill="#616161"/>
<path d="M6.70898 25.0625H4.83398C4.31622 25.0625 3.89648 25.4822 3.89648 26V29.75C3.89648 30.2678 4.31622 30.6875 4.83398 30.6875H6.70898C7.22675 30.6875 7.64648 30.2678 7.64648 29.75V26C7.64648 25.4822 7.22675 25.0625 6.70898 25.0625Z" fill="#616161"/>
<path d="M7.64648 12.875V16.625C7.64574 16.8734 7.54673 17.1114 7.37108 17.2871C7.19542 17.4627 6.9574 17.5618 6.70898 17.5625H4.83398C4.58557 17.5618 4.34755 17.4627 4.17189 17.2871C3.99624 17.1114 3.89723 16.8734 3.89648 16.625V15.6875C3.89648 15.9361 3.99526 16.1746 4.17107 16.3504C4.34689 16.5262 4.58534 16.625 4.83398 16.625C5.08262 16.625 5.32108 16.5262 5.4969 16.3504C5.67271 16.1746 5.77148 15.9361 5.77148 15.6875V12.875C5.77074 12.6266 5.67173 12.3886 5.49608 12.2129C5.32042 12.0373 5.0824 11.9382 4.83398 11.9375H6.70898C6.9574 11.9382 7.19542 12.0373 7.37108 12.2129C7.54673 12.3886 7.64574 12.6266 7.64648 12.875ZM7.64648 26V29.75C7.64574 29.9984 7.54673 30.2364 7.37108 30.4121C7.19542 30.5877 6.9574 30.6868 6.70898 30.6875H4.83398C4.58557 30.6868 4.34755 30.5877 4.17189 30.4121C3.99624 30.2364 3.89723 29.9984 3.89648 29.75V28.8125C3.89648 29.0611 3.99526 29.2996 4.17107 29.4754C4.34689 29.6512 4.58534 29.75 4.83398 29.75C5.08262 29.75 5.32108 29.6512 5.4969 29.4754C5.67271 29.2996 5.77148 29.0611 5.77148 28.8125V26C5.77074 25.7516 5.67173 25.5136 5.49608 25.3379C5.32042 25.1623 5.0824 25.0632 4.83398 25.0625H6.70898C6.9574 25.0632 7.19542 25.1623 7.37108 25.3379C7.54673 25.5136 7.64574 25.7516 7.64648 26Z" fill="#545454"/>
<path d="M24.5215 29.75C29.1814 29.75 32.959 25.9724 32.959 21.3125C32.959 16.6526 29.1814 12.875 24.5215 12.875C19.8616 12.875 16.084 16.6526 16.084 21.3125C16.084 25.9724 19.8616 29.75 24.5215 29.75Z" fill="#F5F5F5"/>
<path d="M25.7645 12.9766C27.5152 13.9188 28.8761 15.45 29.6063 17.2992C30.3365 19.1483 30.3889 21.1962 29.7543 23.0803C29.1197 24.9645 27.839 26.5633 26.1389 27.5939C24.4388 28.6246 22.4288 29.0205 20.4648 28.7116C21.546 29.3051 22.7443 29.6542 23.975 29.7344C25.2058 29.8145 26.4392 29.6238 27.5883 29.1755C28.7373 28.7273 29.7741 28.0324 30.6254 27.14C31.4768 26.2476 32.1221 25.1793 32.5158 24.0104C32.9095 22.8416 33.042 21.6006 32.904 20.3749C32.766 19.1493 32.3609 17.9688 31.7171 16.9167C31.0734 15.8647 30.2068 14.9666 29.1783 14.2858C28.1498 13.605 26.9845 13.1581 25.7645 12.9766Z" fill="#E0E0E0"/>
<path d="M31.1099 16.049C30.7184 15.5595 30.2738 15.1149 29.7843 14.7234L25.4587 19.0491V12.93C24.8358 12.8567 24.2065 12.8567 23.5837 12.93V19.0491L19.258 14.7234C18.7685 15.115 18.3239 15.5596 17.9324 16.049L22.258 20.3747H16.139C16.0657 20.9975 16.0657 21.6268 16.139 22.2497H22.258L17.9324 26.5753C18.3239 27.0648 18.7685 27.5094 19.258 27.9009L23.5837 23.5753V29.6944C24.2065 29.7677 24.8358 29.7677 25.4587 29.6944V23.5753L29.7843 27.9009C30.2738 27.5094 30.7184 27.0648 31.1099 26.5753L26.7843 22.2497H32.9033C32.9767 21.6268 32.9767 20.9975 32.9033 20.3747H26.7843L31.1099 16.049Z" fill="#E0E0E0"/>
<path d="M41.3965 29.75V48.5C41.3965 50.0562 44.3309 51.3125 47.959 51.3125C51.5871 51.3125 54.5215 50.0562 54.5215 48.5V29.75H41.3965Z" fill="#FFB74D"/>
<path d="M41.3965 29.75V48.5C41.3965 50.0562 44.3309 51.3125 47.959 51.3125C51.5871 51.3125 54.5215 50.0562 54.5215 48.5V29.75H41.3965Z" fill="#FFB74D"/>
<path d="M49.834 29.75V46.6044C49.8375 47.1014 49.6443 47.5796 49.2966 47.9348C48.9488 48.2899 48.4747 48.4931 47.9777 48.5H47.959C44.3309 48.5 41.3965 47.2437 41.3965 45.6875V48.5C41.3965 50.0562 44.3309 51.3125 47.959 51.3125C51.5871 51.3125 54.5215 50.0562 54.5215 48.5V29.75H49.834Z" fill="#FFA726"/>
<path d="M54.5215 29.75V34.4375C54.5215 35.9938 51.5871 37.25 47.959 37.25C44.3309 37.25 41.3965 35.9938 41.3965 34.4375V29.75C41.3965 31.3062 44.3309 32.5625 47.959 32.5625C51.5871 32.5625 54.5215 31.3062 54.5215 29.75ZM54.5215 39.125V43.8125C54.5215 45.3687 51.5871 46.625 47.959 46.625C44.3309 46.625 41.3965 45.3687 41.3965 43.8125V39.125C41.3965 40.6812 44.3309 41.9375 47.959 41.9375C51.5871 41.9375 54.5215 40.6812 54.5215 39.125Z" fill="#FFD54F"/>
<path d="M54.5215 29.75V34.4375C54.5215 35.7125 52.5434 36.7906 49.834 37.1281V32.4406C52.5434 32.1031 54.5215 31.025 54.5215 29.75ZM54.5215 39.125V43.8125C54.5215 45.0875 52.5434 46.1656 49.834 46.5031V41.8156C52.5434 41.4781 54.5215 40.4 54.5215 39.125Z" fill="#FFCA28"/>
<path d="M47.959 32.5625C51.5834 32.5625 54.5215 31.3033 54.5215 29.75C54.5215 28.1967 51.5834 26.9375 47.959 26.9375C44.3346 26.9375 41.3965 28.1967 41.3965 29.75C41.3965 31.3033 44.3346 32.5625 47.959 32.5625Z" fill="#FFB74D"/>
<path d="M28.2715 39.125V48.5C28.2715 50.0562 31.2059 51.3125 34.834 51.3125C38.4621 51.3125 41.3965 50.0562 41.3965 48.5V39.125H28.2715Z" fill="#FFD54F"/>
<path d="M36.709 39.125V46.6044C36.7125 47.1014 36.5193 47.5796 36.1716 47.9348C35.8238 48.2899 35.3497 48.4931 34.8527 48.5H34.834C31.2059 48.5 28.2715 47.2437 28.2715 45.6875V48.5C28.2715 50.0562 31.2059 51.3125 34.834 51.3125C38.4621 51.3125 41.3965 50.0562 41.3965 48.5V39.125H36.709Z" fill="#FFCA28"/>
<path d="M41.3965 39.125V43.8125C41.3965 45.3688 38.4621 46.625 34.834 46.625C31.2059 46.625 28.2715 45.3688 28.2715 43.8125V39.125C28.2715 40.6812 31.2059 41.9375 34.834 41.9375C38.4621 41.9375 41.3965 40.6812 41.3965 39.125Z" fill="#FFB74D"/>
<path d="M36.709 41.8156V46.4966C39.4155 46.1497 41.3965 45.0847 41.3965 43.8125V39.125C41.3965 40.4 39.4184 41.4781 36.709 41.8156Z" fill="#FFA726"/>
<path d="M34.834 41.9375C38.4584 41.9375 41.3965 40.6783 41.3965 39.125C41.3965 37.5717 38.4584 36.3125 34.834 36.3125C31.2096 36.3125 28.2715 37.5717 28.2715 39.125C28.2715 40.6783 31.2096 41.9375 34.834 41.9375Z" fill="#FFD54F"/>
<path d="M24.5215 26C27.1103 26 29.209 23.9013 29.209 21.3125C29.209 18.7237 27.1103 16.625 24.5215 16.625C21.9326 16.625 19.834 18.7237 19.834 21.3125C19.834 23.9013 21.9326 26 24.5215 26Z" fill="#757575"/>
<path d="M29.6402 17.5202L31.1102 16.0502C30.7187 15.5607 30.2741 15.1161 29.7846 14.7246L28.7609 15.7484C29.1227 16.3023 29.4179 16.897 29.6402 17.5202ZM23.584 28.5977V29.6955C24.2068 29.7689 24.8361 29.7689 25.459 29.6955V27.9255C24.863 28.2232 24.2335 28.4495 23.584 28.5977ZM27.9368 26.0543L29.7837 27.9012C30.2734 27.51 30.7183 27.0657 31.1102 26.5765L29.0534 24.5196C28.74 25.0715 28.3654 25.5863 27.9368 26.0543ZM32.9037 20.3759H30.1465C30.1449 21.007 30.0726 21.6359 29.9309 22.2509H32.9037C32.977 21.628 32.977 20.9987 32.9037 20.3759Z" fill="#BDBDBD"/>
</svg>
