<svg width="60" height="52" viewBox="0 0 60 52" fill="none" xmlns="http://www.w3.org/2000/svg">
<path d="M45.2817 32.5483C43.9444 32.5483 42.4864 31.8042 41.0696 30.3757C39.4012 28.6934 37.9345 26.2129 36.9396 23.3907C35.9446 20.5685 35.5312 17.7166 35.7757 15.3601C36.0441 12.772 37.0841 11.0321 38.7038 10.4611C40.3235 9.89 42.2248 10.5928 44.0571 12.4404C45.7255 14.1225 47.1922 16.6031 48.1871 19.4252C49.182 22.2473 49.5955 25.0993 49.351 27.4558C49.0826 30.0439 48.0427 31.7837 46.4228 32.3548C46.0562 32.4839 45.6703 32.5493 45.2817 32.5483ZM39.8409 12.0396C39.6472 12.0396 39.4637 12.0693 39.2921 12.1298C37.4214 12.7893 36.6805 17.3346 38.6082 22.8024C39.5178 25.3825 40.8382 27.6296 42.3258 29.1296C43.6304 30.4449 44.9088 31.0125 45.8344 30.6861C47.7051 30.0266 48.446 25.4813 46.5182 20.0135C45.6086 17.4334 44.2883 15.1863 42.8006 13.6863C41.738 12.6147 40.6923 12.0396 39.8409 12.0396Z" fill="#55A2F0"/>
<path d="M5.92363 46.1564L6.76304 45.317C6.87367 45.2063 6.94732 45.0642 6.97386 44.91L7.53074 41.6768C7.5573 41.5226 7.63096 41.3804 7.74161 41.2697C7.85226 41.1591 7.99446 41.0854 8.14867 41.0588L11.0918 40.5519C11.246 40.5253 11.3882 40.4517 11.4989 40.341C11.6095 40.2304 11.6832 40.0882 11.7098 39.9339L12.2167 36.9908C12.2433 36.8366 12.3169 36.6944 12.4276 36.5837C12.5382 36.4731 12.6804 36.3994 12.8346 36.3729L16.068 35.816C16.2221 35.7894 16.3643 35.7158 16.475 35.6052L29.6759 22.4042C29.8179 22.2622 29.8977 22.0695 29.8977 21.8686C29.8977 21.6677 29.8179 21.4751 29.6759 21.333L25.137 16.7941C24.9949 16.6521 24.8023 16.5723 24.6014 16.5723C24.4005 16.5723 24.2078 16.6521 24.0658 16.7941L0.313509 40.5463C0.175114 40.6846 0.0956575 40.8712 0.0917898 41.0669L0.000149198 45.6976C-0.00187505 45.7996 0.0167171 45.9009 0.0548104 45.9955C0.0929038 46.0901 0.149714 46.176 0.221832 46.2482C0.293951 46.3203 0.379893 46.3771 0.474503 46.4152C0.569114 46.4533 0.670444 46.4719 0.772415 46.4698L5.40308 46.3782C5.59872 46.3742 5.78525 46.2947 5.92363 46.1564Z" fill="#FFB125"/>
<path d="M25.778 17.4355L0.0501694 43.1635L1.31749e-05 45.698C-0.000104013 45.7039 0.000599112 45.7096 0.000599112 45.7155L27.0293 18.6868L25.778 17.4355Z" fill="#FEE570"/>
<path d="M29.6754 21.3342L27.0287 18.6875L0 45.7163C0.000260886 45.8168 0.0205269 45.9163 0.0596163 46.0088C0.0987057 46.1014 0.155836 46.1853 0.227676 46.2555C0.299516 46.3258 0.384627 46.3811 0.478046 46.4181C0.571466 46.4551 0.671324 46.4732 0.771797 46.4713L5.40246 46.3796C5.59814 46.3757 5.78473 46.2963 5.92312 46.1579L6.76254 45.3185C6.87317 45.2079 6.94682 45.0657 6.97336 44.9115L7.53023 41.6783C7.55678 41.5241 7.63044 41.3819 7.74109 41.2712C7.85174 41.1606 7.99395 41.0869 8.14816 41.0604L11.0913 40.5534C11.2455 40.5268 11.3877 40.4532 11.4984 40.3425C11.609 40.2319 11.6827 40.0897 11.7093 39.9355L12.2162 36.9923C12.2428 36.8381 12.3164 36.6959 12.4271 36.5853C12.5377 36.4746 12.6799 36.4009 12.8341 36.3744L16.0675 35.8175C16.2216 35.7909 16.3638 35.7173 16.4745 35.6067L29.6754 22.4057C29.8174 22.2636 29.8972 22.0709 29.8972 21.87C29.8972 21.669 29.8174 21.4763 29.6754 21.3342Z" fill="#FF901D"/>
<path d="M42.5931 3.87695C37.4134 -1.30273 29.0155 -1.30273 23.8359 3.87695C18.6563 9.05664 18.6563 17.4545 23.8359 22.6341C29.0156 27.8137 37.4135 27.8138 42.5931 22.6341C47.7728 17.4544 47.7728 9.05652 42.5931 3.87695ZM34.5545 11.9155C32.9394 10.3005 32.9394 7.68203 34.5545 6.06695C36.1696 4.45188 38.788 4.45188 40.4031 6.06695C42.0182 7.68203 42.0182 10.3005 40.4031 11.9155C38.788 13.5306 36.1696 13.5306 34.5545 11.9155Z" fill="#2D5872"/>
<path d="M42.5933 3.87707C41.9409 3.22419 41.2223 2.64094 40.4491 2.13672C43.8021 7.27879 43.2225 14.2361 38.7088 18.7498C34.1951 23.2635 27.2379 23.8431 22.0957 20.4902C22.6 21.2633 23.1832 21.9818 23.8361 22.6343C29.0157 27.814 37.4136 27.814 42.5932 22.6343C47.7728 17.4546 47.773 9.05664 42.5933 3.87707Z" fill="#1D4859"/>
<path d="M59.819 39.2866C59.968 39.039 60.0277 38.7477 59.988 38.4615C59.9483 38.1752 59.8118 37.9111 59.6011 37.7133L47.6004 26.4483C47.3603 26.2229 47.0433 26.0975 46.7141 26.0977C46.3848 26.0978 46.0679 26.2234 45.828 26.449L40.8969 31.0848L40.8962 29.3002C40.8961 29.0119 40.7814 28.7354 40.5775 28.5316C40.3735 28.3278 40.097 28.2134 39.8087 28.2135L38.3784 28.2141C38.2357 28.2141 38.0943 28.2423 37.9625 28.2969C37.8306 28.3516 37.7108 28.4317 37.6099 28.5327C37.509 28.6337 37.429 28.7535 37.3744 28.8854C37.3198 29.0173 37.2918 29.1587 37.2918 29.3014L37.2938 34.4721L33.8357 37.7231C33.6252 37.9211 33.4888 38.1852 33.4493 38.4715C33.4099 38.7578 33.4697 39.0489 33.6188 39.2965L34.0572 40.0241C34.4729 40.714 35.4191 40.8444 36.0059 40.2928L37.2945 39.0813L37.2996 51.3652C37.2996 51.4497 37.3163 51.5334 37.3487 51.6115C37.3811 51.6896 37.4285 51.7606 37.4883 51.8203C37.5481 51.8801 37.6191 51.9275 37.6972 51.9598C37.7754 51.9922 37.8591 52.0088 37.9436 52.0088L55.5042 52.0022C55.5887 52.0022 55.6725 51.9855 55.7506 51.9531C55.8287 51.9207 55.8996 51.8733 55.9594 51.8135C56.0191 51.7536 56.0665 51.6827 56.0989 51.6045C56.1312 51.5264 56.1478 51.4427 56.1478 51.3581L56.1427 39.0743L57.4325 40.285C58.0196 40.8361 58.9657 40.7051 59.3809 40.0151L59.819 39.2866ZM46.719 33.5466C45.659 33.5466 44.7998 32.6873 44.7998 31.6274C44.7998 30.5674 45.659 29.7082 46.719 29.7082C47.779 29.7082 48.6382 30.5674 48.6382 31.6274C48.6382 32.6873 47.779 33.5466 46.719 33.5466Z" fill="#FF4C4C"/>
<path d="M49.075 41.4277H45.0169C44.7405 41.4277 44.4753 41.5375 44.2799 41.733C44.0844 41.9285 43.9746 42.1936 43.9746 42.47V52.0058H50.1173V42.47C50.1173 42.1936 50.0074 41.9285 49.812 41.733C49.6165 41.5376 49.3514 41.4278 49.075 41.4277Z" fill="#2D5871"/>
<path d="M46.8887 29.7171C46.6028 30.207 46.246 30.5409 45.8343 30.686C44.9087 31.0122 43.6303 30.4448 42.3257 29.1295C40.838 27.6295 39.5177 25.3824 38.6081 22.8023C36.6803 17.3346 37.4213 12.7893 39.292 12.1297C39.4635 12.0692 39.6471 12.0395 39.8408 12.0395C39.9663 12.0395 40.0966 12.0535 40.2301 12.0783C40.289 12.0258 40.3476 11.9728 40.4041 11.9163C40.7953 11.5257 41.1039 11.0603 41.3114 10.5478C40.4008 10.2089 39.5167 10.1743 38.7038 10.4609C37.0839 11.032 36.044 12.7719 35.7757 15.36C35.5312 17.7165 35.9446 20.5685 36.9396 23.3906C37.9345 26.2127 39.4013 28.6933 41.0696 30.3756C42.4864 31.8041 43.9444 32.5482 45.2817 32.5482C45.6738 32.5482 46.0556 32.4842 46.4228 32.3547C47.2274 32.071 47.8887 31.4988 48.3837 30.6777C48.0799 30.1459 47.5305 29.7733 46.8887 29.7171Z" fill="#55A2F0"/>
<path d="M59.6016 37.7132L47.6011 26.4483C47.361 26.2229 47.044 26.0975 46.7147 26.0977C46.3855 26.0978 46.0686 26.2234 45.8287 26.449L44.9434 27.2814L50.78 32.7602V37.3676L50.776 37.3638L50.7811 52.0039L55.5048 52.0022C55.5893 52.0022 55.673 51.9855 55.7511 51.9531C55.8292 51.9207 55.9002 51.8733 55.9599 51.8135C56.0197 51.7536 56.0671 51.6827 56.0994 51.6045C56.1318 51.5264 56.1484 51.4427 56.1484 51.3581L56.1433 39.0743L57.4331 40.2851C58.0202 40.8362 58.9662 40.7052 59.3814 40.0152L59.8197 39.2869C59.9687 39.0392 60.0284 38.7479 59.9887 38.4615C59.949 38.1751 59.8124 37.911 59.6016 37.7132Z" fill="#F33939"/>
</svg>
