<svg width="200" height="200" viewBox="0 0 200 200" fill="none" xmlns="http://www.w3.org/2000/svg">
<path d="M195.626 63.2429L70.5867 1.44604C67.4226 -0.11646 63.5554 1.1726 61.9929 4.37573L22.657 83.946C21.0945 87.1101 22.3835 90.9773 25.5867 92.5398L150.626 154.337C153.79 155.899 157.657 154.61 159.219 151.407L198.555 71.8367C200.118 68.6726 198.829 64.8054 195.626 63.2429Z" fill="#52AFA8"/>
<path d="M56.9652 14.623L193.618 82.1113L183.131 103.345L46.4785 35.8566L56.9652 14.623Z" fill="#445C6C"/>
<path d="M56.6883 53.7793L102.449 76.3793L99.023 83.3168L53.2617 60.7172L56.6883 53.7793ZM46.3949 74.632L113.775 107.909L110.349 114.846L42.9688 81.5695L46.3949 74.632ZM134.329 118.086L152.339 126.98L148.913 133.918L130.903 125.023L134.329 118.086Z" fill="#DBDFE0"/>
<path d="M158.008 153.164V107.109C158.008 103.555 155.117 100.703 151.602 100.703H147.305V154.844H155.156C156.133 154.414 157.07 153.75 158.008 153.164Z" fill="#445C6C" fill-opacity="0.188235"/>
<path d="M146.68 97.6172H7.1875C3.63281 97.6172 0.78125 100.508 0.78125 104.023V192.813C0.78125 196.367 3.67187 199.219 7.1875 199.219H146.68C150.234 199.219 153.086 196.328 153.086 192.813V104.023C153.125 100.469 150.234 97.6172 146.68 97.6172Z" fill="#5AC8AE"/>
<path d="M67.1873 199.219H94.531C97.1091 197.07 99.6482 194.492 102.148 191.484L113.242 196.562C109.922 197.891 106.484 198.75 102.929 199.18H127.851C134.883 194.101 140.781 187.265 144.648 178.828C156.562 152.851 145.156 122.031 119.179 110.117C93.2029 98.203 62.3826 109.609 50.4685 135.586C39.9607 158.437 47.5388 185.039 67.1873 199.219ZM79.8435 195.781C77.6951 194.805 76.3279 189.14 77.4216 180.117L93.281 187.383C87.1482 194.141 81.992 196.797 79.8435 195.781ZM99.2576 179.844L79.2966 170.664C80.4295 166.289 81.992 161.484 84.1795 156.25L107.031 166.758C104.492 171.797 101.836 176.133 99.2576 179.844ZM88.0857 147.734C90.6248 142.695 93.242 138.359 95.8201 134.648L115.82 143.828C114.687 148.203 113.125 153.008 110.937 158.242L88.0857 147.734ZM127.422 127.187C132.07 131.836 135.547 137.422 137.617 143.515L126.523 138.437C127.187 134.414 127.5 130.625 127.422 127.187ZM124.453 147.773L139.883 154.844C140.195 160.039 139.531 165.351 137.812 170.547L119.492 162.109C121.484 157.383 123.125 152.539 124.453 147.773ZM133.906 179.101C131.094 183.75 127.5 187.734 123.359 190.898L107.929 183.828C110.664 179.765 113.242 175.312 115.586 170.703L133.906 179.101ZM115.273 118.672C117.422 119.648 118.789 125.312 117.695 134.336L101.836 127.07C107.929 120.351 113.086 117.695 115.273 118.672ZM100.859 115C98.2029 117.187 95.5076 119.883 92.9295 122.969L81.8357 117.89C87.8513 115.508 94.3357 114.492 100.859 115ZM71.7576 123.594L87.1873 130.664C84.4529 134.726 81.8748 139.18 79.531 143.789L61.2107 135.351C64.0232 130.703 67.617 126.758 71.7576 123.594ZM57.3045 143.906L75.6248 152.344C73.6326 157.109 71.9529 161.953 70.6638 166.719L55.2341 159.648C54.9216 154.414 55.5857 149.101 57.3045 143.906ZM68.5545 176.055C67.8904 180.039 67.5779 183.828 67.656 187.265C63.0076 182.617 59.531 177.031 57.4607 170.937L68.5545 176.055Z" fill="#EFF3F5" fill-opacity="0.188235"/>
<path d="M17.8906 150.664H68.9062V158.398H17.8906V150.664ZM17.8906 173.867H93.0078V181.602H17.8906V173.867ZM115.938 173.867H136.016V181.602H115.938V173.867Z" fill="#52AFA8"/>
<path d="M14.8438 114.805H38.5156V138.477H14.8438V114.805Z" fill="#FBD984"/>
<path d="M146.68 194.883H7.1875C3.63281 194.883 0.78125 191.992 0.78125 188.477V192.813C0.78125 196.367 3.67187 199.219 7.1875 199.219H146.68C150.234 199.219 153.086 196.328 153.086 192.813V188.477C153.125 191.992 150.234 194.883 146.68 194.883Z" fill="#445C6C" fill-opacity="0.188235"/>
</svg>
