<svg width="14" height="16" viewBox="0 0 14 16" fill="none" xmlns="http://www.w3.org/2000/svg">
<path d="M13.2507 7.27467L1.58399 0.541333C1.45731 0.468193 1.3136 0.429688 1.16732 0.429688C1.02104 0.429688 0.87734 0.468193 0.750658 0.541333C0.623487 0.614753 0.517975 0.720473 0.444806 0.847788C0.371637 0.975103 0.333408 1.11949 0.333991 1.26633V14.733C0.333408 14.8798 0.371637 15.0242 0.444806 15.1515C0.517975 15.2789 0.623487 15.3846 0.750658 15.458C0.87734 15.5311 1.02104 15.5696 1.16732 15.5696C1.3136 15.5696 1.45731 15.5311 1.58399 15.458L13.2507 8.72467C13.3789 8.65198 13.4856 8.54658 13.5598 8.41922C13.634 8.29185 13.6731 8.14708 13.6731 7.99967C13.6731 7.85225 13.634 7.70748 13.5598 7.58011C13.4856 7.45275 13.3789 7.34735 13.2507 7.27467V7.27467ZM2.00066 13.2913V2.708L11.1673 7.99967L2.00066 13.2913Z" fill="#0599EB"/>
</svg>
