<svg width="57" height="52" viewBox="0 0 57 52" fill="none" xmlns="http://www.w3.org/2000/svg">
<path d="M4.76114 6.99609H49.0322C51.4672 6.99609 53.4594 8.98828 53.4594 11.4232V16.7358C53.4594 19.1708 51.4672 21.163 49.0322 21.163H4.76114C2.32617 21.1628 0.333984 19.1706 0.333984 16.7357V11.4231C0.333984 8.98828 2.32617 6.99609 4.76114 6.99609Z" fill="#A86A3F"/>
<path d="M14.4571 11.7323L42.1708 4.38333C43.1006 4.11771 44.0744 4.69324 44.3401 5.62295L48.9443 22.6231C49.2099 23.5528 48.6344 24.5267 47.7046 24.7923L11.6238 34.3991C10.694 34.6647 9.72014 34.0891 9.45453 33.1594L6.08984 20.6751L14.4571 11.7323Z" fill="#3DB39E"/>
<path d="M44.1189 22.0933L38.1423 23.6871C37.6554 23.8199 37.1683 23.5542 37.0799 23.0672C36.947 22.5803 37.2127 22.0932 37.6997 22.0048L42.8351 20.6324L40.0903 10.3615L34.9549 11.7339C34.468 11.8668 33.9809 11.601 33.8924 11.1141C33.7596 10.6271 34.0253 10.1401 34.5122 10.0516L40.4888 8.45792C40.9758 8.32505 41.4628 8.59078 41.5513 9.07773L44.7388 21.0309C44.8715 21.5178 44.6058 22.0048 44.1189 22.0933ZM19.3271 28.7783L13.3505 30.372C12.8635 30.5049 12.3765 30.2391 12.288 29.7522L9.10049 17.7991C8.96763 17.3121 9.23336 16.825 9.72031 16.7366L15.6969 15.1429C16.1838 15.01 16.6709 15.2757 16.7593 15.7627C16.8922 16.2496 16.6265 16.7367 16.1395 16.8252L11.0041 18.1975L13.7489 28.4684L18.8843 27.096C19.3712 26.9632 19.8583 27.2289 19.9468 27.7158C20.0796 28.1585 19.814 28.6454 19.3271 28.7783Z" fill="#78CABB"/>
<path d="M0.688932 17.931C8.56912 13.4153 29.8193 0.975097 29.8193 0.975097C30.6605 0.48815 31.7672 0.753768 32.2543 1.59491L41.1085 16.8242C41.5954 17.6653 41.2855 18.7278 40.4444 19.2148L8.03788 37.8087C7.19674 38.2956 6.08998 38.03 5.60292 37.1888C5.60292 37.1888 3.12378 32.142 0.644531 27.8919C0.644644 17.931 0.688932 21.207 0.688932 17.931Z" fill="#5ABEAC"/>
<path d="M36.5915 16.3375L30.3936 5.62391C30.128 5.18125 29.5968 5.04839 29.1983 5.31401L23.8415 8.41296C23.3989 8.67857 23.266 9.20981 23.5316 9.60829C23.7972 10.051 24.3285 10.1838 24.727 9.9182L29.3312 7.26191L34.6437 16.4703L30.0396 19.1266C29.5969 19.3922 29.464 19.9234 29.7296 20.3219C29.9953 20.7646 30.5265 20.8975 30.925 20.6318L36.2817 17.5329C36.6801 17.3116 36.8572 16.7803 36.5915 16.3375ZM13.1279 28.8663L8.52371 31.5226L3.21113 22.3141L7.81532 19.6578C8.25798 19.3922 8.39084 18.861 8.12523 18.4625C7.85961 18.0198 7.32837 17.887 6.92989 18.1526L1.57313 21.2515C1.13047 21.5172 0.997606 22.0484 1.26322 22.4469L7.46113 33.1605C7.72674 33.6032 8.25798 33.736 8.65646 33.4704L14.0132 30.3715C14.4559 30.1058 14.5887 29.5746 14.3231 29.1761C14.1018 28.7778 13.5706 28.6006 13.1279 28.8663ZM15.3857 13.2386C11.9769 15.1865 10.8258 19.5251 12.7737 22.9339C14.7659 26.3428 19.0602 27.4938 22.469 25.5459C25.8779 23.598 27.029 19.2595 25.081 15.8506C23.0889 12.4859 18.7946 11.2907 15.3857 13.2386ZM36.5915 16.3375L30.3936 5.62391C30.128 5.18125 29.5968 5.04839 29.1983 5.31401L23.8415 8.41296C23.3989 8.67857 23.266 9.20981 23.5316 9.60829C23.7972 10.051 24.3285 10.1838 24.727 9.9182L29.3312 7.26191L34.6437 16.4703L30.0396 19.1266C29.5969 19.3922 29.464 19.9234 29.7296 20.3219C29.9953 20.7646 30.5265 20.8975 30.925 20.6318L36.2817 17.5329C36.6801 17.3116 36.8572 16.7803 36.5915 16.3375ZM13.1279 28.8663L8.52371 31.5226L3.21113 22.3141L7.81532 19.6578C8.25798 19.3922 8.39084 18.861 8.12523 18.4625C7.85961 18.0198 7.32837 17.887 6.92989 18.1526L1.57313 21.2515C1.13047 21.5172 0.997606 22.0484 1.26322 22.4469L7.46113 33.1605C7.72674 33.6032 8.25798 33.736 8.65646 33.4704L14.0132 30.3715C14.4559 30.1058 14.5887 29.5746 14.3231 29.1761C14.1018 28.7778 13.5706 28.6006 13.1279 28.8663ZM15.3857 13.2386C11.9769 15.1865 10.8258 19.5251 12.7737 22.9339C14.7659 26.3428 19.0602 27.4938 22.469 25.5459C25.8779 23.598 27.029 19.2595 25.081 15.8506C23.0889 12.4859 18.7946 11.2907 15.3857 13.2386Z" fill="#8CD2C5"/>
<path d="M50.8031 51.2679H4.76114C2.32617 51.2679 0.333984 49.2757 0.333984 46.8407V14.9655H50.8031C53.238 14.9655 55.2302 16.9577 55.2302 19.3927V46.8408C55.2301 49.2757 53.2379 51.2679 50.8031 51.2679ZM3.87571 14.9655H0.333984V11.4238C0.333984 13.3717 1.92769 14.9655 3.87571 14.9655Z" fill="#C47E4D"/>
<path d="M55.2305 40.1985H48.1471C44.7383 40.1985 41.9492 37.4095 41.9492 34.0006C41.9492 30.5918 44.7383 27.8027 48.1471 27.8027H55.2305C56.2045 27.8027 57.0013 28.5996 57.0013 29.5736V38.4278C57.0013 39.4017 56.2045 40.1985 55.2305 40.1985Z" fill="#A86A3F"/>
<path d="M48.1472 30.459C50.0951 30.459 51.6889 32.0527 51.6889 34.0007C51.6889 35.9487 50.0952 37.5424 48.1472 37.5424C46.1993 37.5424 44.6055 35.9487 44.6055 34.0007C44.6055 32.0527 46.1993 30.459 48.1472 30.459Z" fill="#EFC75E"/>
<path d="M49.0326 36.6583C47.0847 36.6583 45.4909 35.0646 45.4909 33.1166C45.4909 32.364 45.7122 31.6556 46.1107 31.0801C45.181 31.6999 44.6055 32.7624 44.6055 34.002C44.6055 35.9499 46.1992 37.5437 48.1472 37.5437C49.3425 37.5437 50.405 36.9239 51.0691 36.0385C50.4936 36.4369 49.7852 36.6583 49.0326 36.6583Z" fill="#D7B354"/>
<path d="M50.8031 49.4955H4.76114C2.32617 49.4955 0.333984 47.5033 0.333984 45.0684V46.8392C0.333984 49.2742 2.32617 51.2664 4.76114 51.2664H50.8031C53.238 51.2664 55.2302 49.2742 55.2302 46.8392V45.0684C55.2301 47.5033 53.2379 49.4955 50.8031 49.4955Z" fill="#B27245"/>
<path d="M50.8031 14.9655H3.87571C1.92769 14.9655 0.333984 13.3717 0.333984 11.4238V13.1947C0.333984 15.1426 1.92769 16.7364 3.87571 16.7364H50.8031C53.238 16.7364 55.2302 18.7286 55.2302 21.1636V19.3927C55.2301 16.9577 53.2379 14.9655 50.8031 14.9655Z" fill="#CA8B5F"/>
</svg>
