<svg width="60" height="60" viewBox="0 0 60 60" fill="none" xmlns="http://www.w3.org/2000/svg">
<path d="M58.6871 18.9723L21.1754 0.433226C20.2262 -0.0355241 19.066 0.351195 18.5973 1.31213L6.79651 25.1832C6.32776 26.1324 6.71448 27.2926 7.67541 27.7613L45.1871 46.3004C46.1364 46.7692 47.2965 46.3824 47.7653 45.4215L59.566 21.5504C60.0348 20.6012 59.6481 19.441 58.6871 18.9723Z" fill="#52AFA8"/>
<path d="M17.0894 4.38672L58.0851 24.6332L54.9391 31.0033L13.9434 10.7568L17.0894 4.38672Z" fill="#445C6C"/>
<path d="M17.0065 16.1328L30.7348 22.9128L29.7069 24.9941L15.9785 18.2142L17.0065 16.1328ZM13.9185 22.3886L34.1325 32.3717L33.1046 34.453L12.8906 24.4699L13.9185 22.3886ZM40.2988 35.4248L45.7018 38.0932L44.674 40.1744L39.2709 37.5061L40.2988 35.4248Z" fill="#DBDFE0"/>
<path d="M47.4023 45.9492V32.1328C47.4023 31.0664 46.5352 30.2109 45.4805 30.2109H44.1914V46.4531H46.5469C46.8398 46.3242 47.1211 46.125 47.4023 45.9492Z" fill="#445C6C" fill-opacity="0.188235"/>
<path d="M44.0039 29.2852H2.15625C1.08984 29.2852 0.234375 30.1523 0.234375 31.207V57.8438C0.234375 58.9102 1.10156 59.7656 2.15625 59.7656H44.0039C45.0703 59.7656 45.9258 58.8984 45.9258 57.8438V31.207C45.9375 30.1406 45.0703 29.2852 44.0039 29.2852Z" fill="#5AC8AE"/>
<path d="M20.1558 59.7644H28.3589C29.1324 59.1199 29.8941 58.3464 30.6441 57.4441L33.9722 58.9675C32.9761 59.366 31.9449 59.6238 30.8784 59.7527H38.355C40.4644 58.2293 42.2339 56.1785 43.3941 53.6472C46.9683 45.8543 43.5464 36.6082 35.7534 33.0339C27.9605 29.4597 18.7144 32.8816 15.1402 40.6746C11.9878 47.53 14.2613 55.5105 20.1558 59.7644ZM23.9527 58.7332C23.3081 58.4402 22.898 56.741 23.2261 54.0339L27.9839 56.2136C26.1441 58.241 24.5972 59.0379 23.9527 58.7332ZM29.7769 53.9519L23.7886 51.198C24.1284 49.8855 24.5972 48.4441 25.2534 46.8738L32.1089 50.0261C31.3472 51.5379 30.5503 52.8386 29.7769 53.9519ZM26.4253 44.3191C27.187 42.8074 27.9722 41.5066 28.7456 40.3933L34.7456 43.1472C34.4058 44.4597 33.937 45.9011 33.2808 47.4714L26.4253 44.3191ZM38.2261 38.155C39.6206 39.5496 40.6636 41.2254 41.2847 43.0535L37.9566 41.53C38.1558 40.323 38.2495 39.1863 38.2261 38.155ZM37.3355 44.3308L41.9644 46.4519C42.0581 48.0105 41.8589 49.6043 41.3433 51.1629L35.8472 48.6316C36.4449 47.2136 36.937 45.7605 37.3355 44.3308ZM40.1714 53.7293C39.3277 55.1238 38.2495 56.3191 37.0074 57.2683L32.3784 55.1472C33.1988 53.9285 33.9722 52.5925 34.6753 51.2097L40.1714 53.7293ZM34.5816 35.6004C35.2261 35.8933 35.6363 37.5925 35.3081 40.2996L30.5503 38.1199C32.3784 36.1043 33.9253 35.3074 34.5816 35.6004ZM30.2574 34.4988C29.4605 35.155 28.6519 35.9636 27.8784 36.8894L24.5503 35.366C26.355 34.6511 28.3003 34.3464 30.2574 34.4988ZM21.5269 37.0769L26.1558 39.198C25.3355 40.4168 24.562 41.7527 23.8589 43.1355L18.3628 40.6043C19.2066 39.2097 20.2847 38.0261 21.5269 37.0769ZM17.1909 43.1707L22.687 45.7019C22.0894 47.1316 21.5855 48.5847 21.1988 50.0144L16.5699 47.8933C16.4761 46.323 16.6753 44.7293 17.1909 43.1707ZM20.5659 52.8152C20.3667 54.0105 20.273 55.1472 20.2964 56.1785C18.9019 54.7839 17.8589 53.1082 17.2378 51.28L20.5659 52.8152Z" fill="#EFF3F5" fill-opacity="0.188235"/>
<path d="M5.36719 45.1992H20.6719V47.5195H5.36719V45.1992ZM5.36719 52.1602H27.9023V54.4805H5.36719V52.1602ZM34.7812 52.1602H40.8047V54.4805H34.7812V52.1602Z" fill="#52AFA8"/>
<path d="M4.45312 34.4414H11.5547V41.543H4.45312V34.4414Z" fill="#FBD984"/>
<path d="M44.0039 58.4648H2.15625C1.08984 58.4648 0.234375 57.5977 0.234375 56.543V57.8438C0.234375 58.9102 1.10156 59.7656 2.15625 59.7656H44.0039C45.0703 59.7656 45.9258 58.8984 45.9258 57.8438V56.543C45.9375 57.5977 45.0703 58.4648 44.0039 58.4648Z" fill="#445C6C" fill-opacity="0.188235"/>
</svg>
