<svg width="61" height="54" viewBox="0 0 61 54" fill="none" xmlns="http://www.w3.org/2000/svg">
<path d="M47.1913 37.7594L2.31962 31.4532C1.05821 31.2759 0.17942 30.1096 0.356725 28.8483L4.07626 2.38212C4.25356 1.12071 5.41981 0.24192 6.6811 0.419225L51.5528 6.72555C52.8142 6.90286 53.693 8.06911 53.5157 9.3304L49.7961 35.7966C49.619 37.0579 48.4527 37.9367 47.1913 37.7594Z" fill="url(#paint0_linear_410_358)"/>
<path d="M47.1913 37.7594L2.31962 31.4532C1.05821 31.2759 0.17942 30.1096 0.356725 28.8483L4.07626 2.38212C4.25356 1.12071 5.41981 0.24192 6.6811 0.419225L51.5528 6.72555C52.8142 6.90286 53.693 8.06911 53.5157 9.3304L49.7961 35.7966C49.619 37.0579 48.4527 37.9367 47.1913 37.7594Z" fill="url(#paint1_linear_410_358)"/>
<path d="M2.6582 12.4659L52.0977 19.4141L53.1845 11.6807L3.74512 4.73242L2.6582 12.4659Z" fill="url(#paint2_linear_410_358)"/>
<path d="M23.5766 18.8714L7.05918 16.55C6.87514 16.5232 6.7092 16.4246 6.59765 16.2758C6.48609 16.127 6.438 15.9401 6.46388 15.756C6.48977 15.5718 6.58752 15.4054 6.73578 15.2931C6.88403 15.1808 7.07071 15.1318 7.255 15.1568L23.7726 17.4781C23.8641 17.4909 23.9523 17.5216 24.0319 17.5685C24.1116 17.6154 24.1813 17.6775 24.2369 17.7513C24.2926 17.8251 24.3332 17.9091 24.3563 17.9986C24.3795 18.0881 24.3848 18.1813 24.3719 18.2728C24.359 18.3644 24.3282 18.4525 24.2813 18.5321C24.2343 18.6117 24.1722 18.6813 24.0983 18.7369C24.0245 18.7925 23.9404 18.833 23.8509 18.8561C23.7613 18.8791 23.6682 18.8843 23.5766 18.8714Z" fill="url(#paint3_linear_410_358)"/>
<path d="M46.7435 22.1277L42.2994 21.5031C42.1154 21.4763 41.9494 21.3778 41.8379 21.229C41.7263 21.0802 41.6782 20.8932 41.7041 20.7091C41.73 20.5249 41.8278 20.3585 41.976 20.2462C42.1243 20.1339 42.3109 20.0849 42.4952 20.1099L46.9393 20.7345C47.1234 20.7613 47.2893 20.8599 47.4009 21.0087C47.5124 21.1575 47.5605 21.3444 47.5346 21.5286C47.5087 21.7127 47.411 21.8791 47.2627 21.9914C47.1145 22.1037 46.9278 22.1527 46.7435 22.1277Z" fill="url(#paint4_linear_410_358)"/>
<path d="M14.7179 22.6909L6.68501 21.5619C6.55084 21.5431 6.42169 21.498 6.30495 21.4292C6.18821 21.3604 6.08615 21.2693 6.00461 21.1611C5.92307 21.0529 5.86365 20.9297 5.82973 20.7985C5.79581 20.6674 5.78806 20.5308 5.80692 20.3966L6.00438 18.9916C6.02324 18.8575 6.06834 18.7283 6.13711 18.6116C6.20588 18.4948 6.29697 18.3928 6.40518 18.3113C6.51339 18.2297 6.6366 18.1703 6.76777 18.1364C6.89895 18.1025 7.03552 18.0947 7.1697 18.1136L15.2025 19.2425C15.3367 19.2614 15.4659 19.3065 15.5826 19.3753C15.6994 19.444 15.8014 19.5351 15.8829 19.6433C15.9645 19.7516 16.0239 19.8748 16.0578 20.0059C16.0917 20.1371 16.0995 20.2737 16.0806 20.4079L15.8832 21.8128C15.845 22.0838 15.7008 22.3285 15.4823 22.4931C15.2638 22.6578 14.9888 22.7289 14.7179 22.6909Z" fill="url(#paint5_linear_410_358)"/>
<path d="M58.6249 41.7956L14.8562 53.5234C13.6259 53.8531 12.3612 53.123 12.0315 51.8926L5.11431 26.0769C4.78466 24.8466 5.51474 23.5819 6.74509 23.2522L50.5138 11.5245C51.7442 11.1948 53.0088 11.9249 53.3385 13.1552L60.2557 38.971C60.5855 40.2013 59.8553 41.466 58.6249 41.7956Z" fill="url(#paint6_linear_410_358)"/>
<path d="M31.4428 40.8712L15.3313 45.1882C15.1519 45.2343 14.9615 45.2076 14.8016 45.1141C14.6417 45.0206 14.5251 44.8679 14.4771 44.6889C14.4292 44.51 14.4537 44.3194 14.5454 44.1584C14.6372 43.9975 14.7887 43.8793 14.9671 43.8293L31.0786 39.5123C31.258 39.4663 31.4484 39.4929 31.6083 39.5864C31.7682 39.6799 31.8848 39.8327 31.9328 40.0116C31.9808 40.1905 31.9562 40.3811 31.8645 40.5421C31.7727 40.703 31.6212 40.8213 31.4428 40.8712Z" fill="url(#paint7_linear_410_358)"/>
<path d="M21.1533 33.7844L14.4086 35.5917C13.1831 35.9201 11.9235 35.1928 11.5951 33.9674L10.5652 30.1234C10.2368 28.8979 10.9641 27.6383 12.1895 27.3099L18.9342 25.5027C20.1597 25.1743 21.4193 25.9016 21.7477 27.127L22.7776 30.971C23.1059 32.1965 22.3787 33.4562 21.1533 33.7844Z" fill="url(#paint8_linear_410_358)"/>
<path d="M14.4091 35.5922L21.1538 33.785C22.3792 33.4566 23.1065 32.197 22.7781 30.9715L21.7482 27.1277C21.5804 26.5013 21.1686 26.0065 20.6431 25.7148L18.5345 29.367C18.2692 29.8265 17.8322 30.1619 17.3196 30.2992L16.0732 30.6332C15.8195 30.7012 15.5816 30.8185 15.3731 30.9784C15.1647 31.1383 14.9898 31.3378 14.8585 31.5653L12.666 35.3627C12.9271 35.5139 13.2155 35.612 13.5146 35.6514C13.8138 35.6908 14.1177 35.6707 14.4091 35.5922Z" fill="url(#paint9_linear_410_358)"/>
<path d="M28.5196 45.4989L16.2845 48.7772C16.1061 48.825 15.9161 48.8 15.7562 48.7076C15.5963 48.6153 15.4796 48.4632 15.4318 48.2849L15.1018 47.0531C15.0541 46.8748 15.0791 46.6848 15.1714 46.5248C15.2637 46.3649 15.4158 46.2483 15.5941 46.2005L27.8292 42.9222C28.0076 42.8744 28.1976 42.8994 28.3575 42.9917C28.5174 43.084 28.6341 43.2361 28.6819 43.4145L29.0119 44.6462C29.0356 44.7345 29.0416 44.8266 29.0297 44.9173C29.0177 45.0079 28.9881 45.0953 28.9424 45.1745C28.8966 45.2537 28.8358 45.3231 28.7632 45.3788C28.6907 45.4344 28.6079 45.4752 28.5196 45.4989Z" fill="url(#paint10_linear_410_358)"/>
<path d="M37.2595 43.1571L31.1419 44.7963C30.9636 44.8441 30.7735 44.8191 30.6136 44.7267C30.4537 44.6344 30.3371 44.4823 30.2893 44.304L29.9593 43.0722C29.9115 42.8939 29.9365 42.7038 30.0288 42.5439C30.1212 42.384 30.2732 42.2674 30.4516 42.2196L36.5691 40.5804C36.7475 40.5326 36.9375 40.5576 37.0974 40.6499C37.2573 40.7422 37.374 40.8943 37.4218 41.0727L37.7518 42.3044C37.7754 42.3927 37.7815 42.4848 37.7696 42.5755C37.7576 42.6661 37.728 42.7536 37.6822 42.8327C37.6365 42.9119 37.5757 42.9813 37.5031 43.037C37.4306 43.0926 37.3478 43.1334 37.2595 43.1571Z" fill="url(#paint11_linear_410_358)"/>
<path d="M46.1794 40.7684L40.0618 42.4076C39.8835 42.4554 39.6935 42.4304 39.5336 42.3381C39.3737 42.2457 39.257 42.0937 39.2092 41.9153L38.8792 40.6836C38.8314 40.5052 38.8564 40.3152 38.9488 40.1553C39.0411 39.9954 39.1931 39.8787 39.3715 39.8309L45.489 38.1917C45.6674 38.1439 45.8574 38.1689 46.0173 38.2613C46.1772 38.3536 46.2939 38.5056 46.3417 38.684L46.6717 39.9157C46.7195 40.0941 46.6944 40.2841 46.6021 40.444C46.5098 40.6039 46.3577 40.7206 46.1794 40.7684Z" fill="url(#paint12_linear_410_358)"/>
<path d="M41.322 22.2665L39.2904 22.8109C39.112 22.8587 38.922 22.8337 38.7621 22.7413C38.6022 22.649 38.4855 22.497 38.4377 22.3186L38.1077 21.0868C38.0599 20.9085 38.0849 20.7185 38.1773 20.5586C38.2696 20.3987 38.4217 20.282 38.6 20.2342L40.6317 19.6897C40.81 19.642 41.0001 19.667 41.16 19.7593C41.3199 19.8516 41.4366 20.0037 41.4843 20.182L41.8143 21.4138C41.8621 21.5921 41.8371 21.7822 41.7448 21.9421C41.6525 22.102 41.5004 22.2187 41.322 22.2665Z" fill="url(#paint13_linear_410_358)"/>
<path d="M50.0622 19.9247L43.9447 21.5639C43.7663 21.6117 43.5763 21.5866 43.4164 21.4943C43.2565 21.402 43.1398 21.2499 43.092 21.0716L42.762 19.8398C42.7142 19.6615 42.7392 19.4714 42.8316 19.3115C42.9239 19.1516 43.076 19.0349 43.2543 18.9872L49.3718 17.3479C49.5502 17.3002 49.7402 17.3252 49.9001 17.4175C50.06 17.5098 50.1767 17.6619 50.2245 17.8402L50.5545 19.072C50.6023 19.2504 50.5773 19.4404 50.4849 19.6003C50.3926 19.7602 50.2405 19.8769 50.0622 19.9247Z" fill="url(#paint14_linear_410_358)"/>
<defs>
<linearGradient id="paint0_linear_410_358" x1="18.0023" y1="-1.09238" x2="33.0832" y2="32.9481" gradientUnits="userSpaceOnUse">
<stop stop-color="#5A5A5A"/>
<stop offset="1" stop-color="#444444"/>
</linearGradient>
<linearGradient id="paint1_linear_410_358" x1="24.1226" y1="11.5009" x2="27.1072" y2="19.5504" gradientUnits="userSpaceOnUse">
<stop stop-color="#433F43" stop-opacity="0"/>
<stop offset="1" stop-color="#1A1A1A"/>
</linearGradient>
<linearGradient id="paint2_linear_410_358" x1="20.0416" y1="-35.7473" x2="32.2399" y2="38.2286" gradientUnits="userSpaceOnUse">
<stop stop-color="#433F43" stop-opacity="0"/>
<stop offset="1" stop-color="#1A1A1A"/>
</linearGradient>
<linearGradient id="paint3_linear_410_358" x1="13.1671" y1="3.34871" x2="16.6516" y2="24.4797" gradientUnits="userSpaceOnUse">
<stop stop-color="#433F43" stop-opacity="0"/>
<stop offset="1" stop-color="#1A1A1A"/>
</linearGradient>
<linearGradient id="paint4_linear_410_358" x1="43.6541" y1="15.2367" x2="45.1529" y2="24.3262" gradientUnits="userSpaceOnUse">
<stop stop-color="#433F43" stop-opacity="0"/>
<stop offset="1" stop-color="#1A1A1A"/>
</linearGradient>
<linearGradient id="paint5_linear_410_358" x1="10.9102" y1="18.1415" x2="10.989" y2="22.7801" gradientUnits="userSpaceOnUse">
<stop stop-color="#F5FBFF"/>
<stop offset="1" stop-color="#DBD5EF"/>
</linearGradient>
<linearGradient id="paint6_linear_410_358" x1="16.5876" y1="17.4418" x2="43.7615" y2="42.8932" gradientUnits="userSpaceOnUse">
<stop stop-color="#5A5A5A"/>
<stop offset="1" stop-color="#444444"/>
</linearGradient>
<linearGradient id="paint7_linear_410_358" x1="15.8016" y1="30.6523" x2="27.2593" y2="48.746" gradientUnits="userSpaceOnUse">
<stop stop-color="#433F43" stop-opacity="0"/>
<stop offset="1" stop-color="#1A1A1A"/>
</linearGradient>
<linearGradient id="paint8_linear_410_358" x1="14.3173" y1="27.3458" x2="19.456" y2="34.3036" gradientUnits="userSpaceOnUse">
<stop stop-color="#FEF0AE"/>
<stop offset="1" stop-color="#FAC600"/>
</linearGradient>
<linearGradient id="paint9_linear_410_358" x1="12.4568" y1="25.6899" x2="22.4493" y2="36.9665" gradientUnits="userSpaceOnUse">
<stop stop-color="#FE9738" stop-opacity="0"/>
<stop offset="1" stop-color="#FE9738"/>
</linearGradient>
<linearGradient id="paint10_linear_410_358" x1="21.9461" y1="45.4275" x2="22.3435" y2="46.9127" gradientUnits="userSpaceOnUse">
<stop stop-color="#F5FBFF"/>
<stop offset="1" stop-color="#DBD5EF"/>
</linearGradient>
<linearGradient id="paint11_linear_410_358" x1="33.7458" y1="42.2702" x2="34.1432" y2="43.7554" gradientUnits="userSpaceOnUse">
<stop stop-color="#F5FBFF"/>
<stop offset="1" stop-color="#DBD5EF"/>
</linearGradient>
<linearGradient id="paint12_linear_410_358" x1="42.6665" y1="39.8846" x2="43.0639" y2="41.3699" gradientUnits="userSpaceOnUse">
<stop stop-color="#F5FBFF"/>
<stop offset="1" stop-color="#DBD5EF"/>
</linearGradient>
<linearGradient id="paint13_linear_410_358" x1="39.8587" y1="20.8343" x2="40.2562" y2="22.3196" gradientUnits="userSpaceOnUse">
<stop stop-color="#F5FBFF"/>
<stop offset="1" stop-color="#DBD5EF"/>
</linearGradient>
<linearGradient id="paint14_linear_410_358" x1="46.5567" y1="19.0422" x2="46.9541" y2="20.5276" gradientUnits="userSpaceOnUse">
<stop stop-color="#F5FBFF"/>
<stop offset="1" stop-color="#DBD5EF"/>
</linearGradient>
</defs>
</svg>
