<svg width="57" height="60" viewBox="0 0 57 60" fill="none" xmlns="http://www.w3.org/2000/svg">
<path d="M15.5286 37.7852H9.89805L6.4668 48.8921L9.89805 55.2954H15.5286L18.8023 46.5402L15.5286 37.7852Z" fill="#EFEDEE"/>
<path d="M15.5286 51.6748H9.89805L7.1766 46.5959L6.4668 48.8931L9.89805 55.2964H15.5286L18.8023 46.5412L18.1252 44.7305L15.5286 51.6748Z" fill="#D4D2D3"/>
<path d="M55.8755 35.5631C54.7036 34.312 52.739 34.2476 51.4876 35.4198L44.9125 41.5793C42.9192 43.4467 40.5161 44.8211 37.8958 45.5923C36.9501 45.8707 35.948 45.8966 34.9891 45.6676C34.0302 45.4385 33.148 44.9625 32.4302 44.2867L29.651 41.6704C28.706 40.7808 28.8128 39.2487 29.8721 38.4988L35.3095 34.6503C36.7089 33.6597 37.0405 31.7224 36.0499 30.3229C35.0594 28.9234 33.1218 28.5919 31.7225 29.5825L20.1328 37.7857H15.5293V55.296L19.7489 56.2177C26.9775 57.7967 34.5372 56.4589 40.785 52.495L44.8236 49.9326C45.3468 49.6006 45.8377 49.2203 46.29 48.7967L55.7325 39.951C56.9836 38.7788 57.0478 36.8144 55.8755 35.5631Z" fill="#FBC4AC"/>
<path d="M55.7325 36.329L46.29 45.1746C45.8377 45.5983 45.3468 45.9786 44.8236 46.3105L40.785 48.873C34.5373 52.8369 26.9775 54.1748 19.7489 52.5957L15.5293 51.674V55.2957L19.7489 56.2173C26.9775 57.7964 34.5373 56.4586 40.785 52.4946C42.5837 51.3535 44.8011 50.35 46.2898 48.7964L55.7323 39.9508C56.8839 38.8718 57.0291 37.1223 56.1311 35.875C56.0133 36.0389 55.8798 36.1909 55.7325 36.329Z" fill="#DFB297"/>
<path d="M0.621094 37.7852V59.9991H7.04965C8.62266 59.9991 9.89789 58.7239 9.89789 57.1509V37.7852H0.621094Z" fill="#49C3E0"/>
<path d="M7.04965 56.3777H0.621094V59.9993H7.04965C8.62266 59.9993 9.89789 58.7241 9.89789 57.151V53.5293C9.89801 55.1024 8.62277 56.3777 7.04965 56.3777Z" fill="#00A5C6"/>
<path d="M32.8768 25.8785C40.0229 25.8785 45.816 20.0854 45.816 12.9393C45.816 5.7931 40.0229 0 32.8768 0C25.7306 0 19.9375 5.7931 19.9375 12.9393C19.9375 20.0854 25.7306 25.8785 32.8768 25.8785Z" fill="#E7B835"/>
<path d="M32.8769 21.6327C37.6781 21.6327 41.5702 17.7406 41.5702 12.9394C41.5702 8.13823 37.6781 4.24609 32.8769 4.24609C28.0757 4.24609 24.1836 8.13823 24.1836 12.9394C24.1836 17.7406 28.0757 21.6327 32.8769 21.6327Z" fill="#FFCD38"/>
</svg>
