<svg width="264" height="24" viewBox="0 0 264 24" fill="none" xmlns="http://www.w3.org/2000/svg">
<path d="M48.8286 1.76562H21.5342C22.7904 1.76562 23.8087 2.78399 23.8087 4.04012C23.8087 5.29626 22.7902 6.31463 21.5342 6.31463H11.2988C12.555 6.31463 13.5733 7.33299 13.5733 8.58913C13.5733 9.84527 12.5548 10.8636 11.2988 10.8636H15.8478C17.104 10.8636 18.1223 11.882 18.1223 13.1381C18.1223 14.3943 17.1038 15.4126 15.8478 15.4126H48.8286V1.76562Z" fill="#FFB800"/>
<path d="M55.9185 22.2362H28.444C27.8455 22.2362 27.4098 21.6685 27.5647 21.0903L31.2889 7.19165C31.3563 6.93999 31.5049 6.71761 31.7116 6.55901C31.9183 6.40041 32.1715 6.31445 32.4321 6.31445H59.9066C60.5051 6.31445 60.9408 6.88223 60.7859 7.46036L57.0617 21.359C56.9943 21.6107 56.8457 21.8331 56.639 21.9917C56.4323 22.1503 56.1791 22.2362 55.9185 22.2362Z" fill="#B7EFAE"/>
<path d="M54.3969 18.1257L56.4781 10.3585C56.498 10.2841 56.5006 10.2061 56.4855 10.1306C56.4705 10.0551 56.4383 9.98401 56.3914 9.92292C56.3446 9.86183 56.2843 9.81235 56.2152 9.7783C56.1461 9.74425 56.0701 9.72655 55.9931 9.72656H34.8666C34.659 9.72657 34.4572 9.79508 34.2925 9.92146C34.1278 10.0478 34.0094 10.225 33.9557 10.4256L31.8745 18.1928C31.8546 18.2672 31.852 18.3451 31.8671 18.4207C31.8821 18.4962 31.9143 18.5673 31.9612 18.6283C32.008 18.6894 32.0683 18.7389 32.1374 18.773C32.2065 18.807 32.2825 18.8247 32.3595 18.8247H53.486C53.6936 18.8247 53.8954 18.7562 54.0601 18.6298C54.2248 18.5034 54.3432 18.3262 54.3969 18.1257Z" fill="#81CD74"/>
<path d="M53.8044 17.6874C53.7047 17.6876 53.6053 17.6745 53.509 17.6485C52.9027 17.4864 52.5427 16.8623 52.7049 16.2558L53.9233 11.7066C54.0855 11.1003 54.7118 10.7393 55.3161 10.9025C55.9224 11.0647 56.2823 11.6888 56.1202 12.2953L54.9018 16.8444C54.7663 17.352 54.3065 17.6874 53.8044 17.6874Z" fill="#AFD2A0"/>
<path d="M66.4009 17.6874H38.9265C38.3279 17.6874 37.8922 17.1196 38.0471 16.5415L41.7713 2.64282C41.8387 2.39116 41.9873 2.16879 42.194 2.01018C42.4007 1.85158 42.654 1.76562 42.9145 1.76563H70.389C70.9875 1.76563 71.4232 2.3334 71.2683 2.91153L67.5441 16.8102C67.4767 17.0619 67.3281 17.2842 67.1214 17.4429C66.9147 17.6015 66.6615 17.6874 66.4009 17.6874Z" fill="#B7EFAE"/>
<path d="M44.4361 5.87674L42.355 13.644C42.3351 13.7184 42.3325 13.7963 42.3475 13.8718C42.3626 13.9474 42.3948 14.0184 42.4416 14.0795C42.4885 14.1406 42.5488 14.1901 42.6179 14.2241C42.6869 14.2582 42.7629 14.2759 42.8399 14.2759H63.9664C64.174 14.2759 64.3759 14.2074 64.5406 14.081C64.7053 13.9546 64.8237 13.7774 64.8774 13.5769L66.9585 5.80963C66.9785 5.73526 66.981 5.65729 66.966 5.58176C66.951 5.50624 66.9188 5.43519 66.8719 5.3741C66.825 5.31301 66.7647 5.26352 66.6957 5.22947C66.6266 5.19542 66.5506 5.17772 66.4736 5.17773H45.347C45.1394 5.17775 44.9376 5.24627 44.7729 5.37265C44.6082 5.49903 44.4899 5.67622 44.4361 5.87674Z" fill="#81CD74"/>
<path d="M72.4199 1.11743C72.3206 0.987953 72.1927 0.88307 72.0464 0.810891C71.9 0.738711 71.739 0.70117 71.5758 0.701172H42.0069C41.7726 0.701156 41.5449 0.778441 41.3591 0.921038C41.1732 1.06363 41.0396 1.26357 40.979 1.48984L36.7127 17.4116C36.6705 17.5693 36.6651 17.7345 36.6969 17.8946C36.7288 18.0546 36.797 18.2052 36.8964 18.3347C36.9957 18.4642 37.1235 18.5691 37.2699 18.6413C37.4162 18.7135 37.5773 18.751 37.7405 18.751H56.6234L55.9748 21.172H28.609L32.3049 7.37826H36.3205C36.6027 7.37826 36.8733 7.26616 37.0729 7.06661C37.2724 6.86706 37.3845 6.59642 37.3845 6.31422C37.3845 6.03201 37.2724 5.76137 37.0729 5.56182C36.8733 5.36228 36.6027 5.25017 36.3205 5.25017H31.4886C31.2543 5.25016 31.0266 5.32744 30.8408 5.47004C30.6549 5.61263 30.5213 5.81257 30.4607 6.03884L26.1945 21.9606C26.1522 22.1183 26.1468 22.2835 26.1786 22.4436C26.2105 22.6036 26.2787 22.7542 26.3781 22.8837C26.4774 23.0132 26.6052 23.1181 26.7516 23.1903C26.898 23.2625 27.059 23.3 27.2222 23.3H56.7911C57.0253 23.3001 57.2531 23.2228 57.4389 23.0802C57.6247 22.9376 57.7583 22.7376 57.819 22.5114L58.8265 18.751H67.3094C67.5436 18.7511 67.7713 18.6738 67.9572 18.5312C68.143 18.3886 68.2766 18.1886 68.3373 17.9624L72.6035 2.04059C72.6458 1.88294 72.6512 1.71768 72.6194 1.5576C72.5875 1.39751 72.5193 1.2469 72.4199 1.11743ZM66.4931 16.623L39.1007 16.623C42.0905 5.4649 40.7832 10.344 42.7969 2.82912L70.1893 2.82912L66.4931 16.623Z" fill="#474C54"/>
<path d="M45.3066 6.42374C44.7391 6.27236 44.1556 6.60846 44.0033 7.17609L42.7844 11.7251C42.7482 11.8601 42.739 12.0008 42.7572 12.1394C42.7754 12.2779 42.8208 12.4115 42.8907 12.5325C42.9605 12.6535 43.0536 12.7596 43.1644 12.8446C43.2753 12.9297 43.4018 12.9921 43.5368 13.0283C43.6717 13.0644 43.8125 13.0736 43.9511 13.0554C44.0896 13.0372 44.2232 12.9918 44.3442 12.9219C44.4652 12.8521 44.5713 12.7591 44.6563 12.6482C44.7414 12.5373 44.8038 12.4108 44.8399 12.2758L46.0589 7.72684C46.1319 7.45427 46.0937 7.16386 45.9526 6.91949C45.8115 6.67511 45.5791 6.49679 45.3066 6.42374ZM64.0076 13.0285C64.2802 13.1014 64.5706 13.0631 64.815 12.922C65.0594 12.7809 65.2377 12.5485 65.3109 12.276L66.5298 7.72698C66.6029 7.45439 66.5647 7.16395 66.4236 6.91955C66.2825 6.67514 66.0501 6.49679 65.7775 6.42374C65.5049 6.35069 65.2145 6.38891 64.97 6.53001C64.7256 6.6711 64.5473 6.9035 64.4742 7.17609L63.2553 11.7251C63.1822 11.9977 63.2204 12.2882 63.3615 12.5326C63.5026 12.777 63.735 12.9554 64.0076 13.0285ZM33.485 11.7252L32.2662 16.2742C32.1968 16.5456 32.2373 16.8334 32.3787 17.0752C32.5202 17.3169 32.7513 17.4932 33.0219 17.5657C33.2924 17.6382 33.5807 17.6011 33.8241 17.4624C34.0674 17.3237 34.2463 17.0947 34.3219 16.825L35.5408 12.276C35.6138 12.0034 35.5755 11.7129 35.4344 11.4685C35.2933 11.2241 35.0609 11.0458 34.7883 10.9727C34.5157 10.8999 34.2253 10.9382 33.9809 11.0793C33.7366 11.2204 33.5582 11.4527 33.485 11.7252ZM18.1231 2.82926H37.4566C37.7388 2.82926 38.0095 2.71715 38.209 2.51761C38.4086 2.31806 38.5207 2.04742 38.5207 1.76522C38.5207 1.48301 38.4086 1.21237 38.209 1.01282C38.0095 0.813276 37.7388 0.701172 37.4566 0.701172H18.1231C17.8409 0.701172 17.5702 0.813276 17.3707 1.01282C17.1711 1.21237 17.059 1.48301 17.059 1.76522C17.059 2.04742 17.1711 2.31806 17.3707 2.51761C17.5702 2.71715 17.8409 2.82926 18.1231 2.82926ZM18.0494 6.31436C18.0494 6.03216 17.9373 5.76151 17.7378 5.56197C17.5382 5.36242 17.2676 5.25031 16.9854 5.25031H1.06404C0.781842 5.25031 0.511198 5.36242 0.311651 5.56197C0.112104 5.76151 0 6.03216 0 6.31436C0 6.59656 0.112104 6.8672 0.311651 7.06675C0.511198 7.2663 0.781842 7.3784 1.06404 7.3784H16.9854C17.2676 7.3784 17.5382 7.2663 17.7378 7.06675C17.9373 6.8672 18.0494 6.59656 18.0494 6.31436ZM27.148 6.31436C27.148 6.03216 27.0359 5.76151 26.8364 5.56197C26.6368 5.36242 26.3662 5.25031 26.084 5.25031H21.535C21.2528 5.25031 20.9821 5.36242 20.7826 5.56197C20.583 5.76151 20.4709 6.03216 20.4709 6.31436C20.4709 6.59656 20.583 6.8672 20.7826 7.06675C20.9821 7.2663 21.2528 7.3784 21.535 7.3784H26.084C26.3662 7.3784 26.6368 7.2663 26.8364 7.06675C27.0359 6.8672 27.148 6.59656 27.148 6.31436ZM24.9467 9.79931H9.02494C8.74273 9.79931 8.47209 9.91142 8.27254 10.111C8.073 10.3105 7.96089 10.5812 7.96089 10.8634C7.96089 11.1456 8.073 11.4162 8.27254 11.6158C8.47209 11.8153 8.74273 11.9274 9.02494 11.9274H24.9467C25.2289 11.9274 25.4996 11.8153 25.6991 11.6158C25.8987 11.4162 26.0108 11.1456 26.0108 10.8634C26.0108 10.5812 25.8987 10.3105 25.6991 10.111C25.4996 9.91142 25.2289 9.79931 24.9467 9.79931ZM24.9467 14.3483H15.8486C15.5664 14.3483 15.2957 14.4604 15.0962 14.66C14.8966 14.8595 14.7845 15.1302 14.7845 15.4124C14.7845 15.6946 14.8966 15.9652 15.0962 16.1647C15.2957 16.3643 15.5664 16.4764 15.8486 16.4764H24.9467C25.2289 16.4764 25.4996 16.3643 25.6991 16.1647C25.8987 15.9652 26.0108 15.6946 26.0108 15.4124C26.0108 15.1302 25.8987 14.8595 25.6991 14.66C25.4996 14.4604 25.2289 14.3483 24.9467 14.3483Z" fill="#474C54"/>
<path d="M83.9375 23.661V18.6102H85.5985C86.0957 18.565 86.5025 18.3164 86.8189 17.8644C87.1578 17.4124 87.3725 16.678 87.4629 15.661C87.5533 14.7345 87.6324 13.7401 87.7002 12.678C87.7906 11.6158 87.881 10.5424 87.9714 9.45763C88.0844 8.35028 88.1748 7.25424 88.2426 6.16949C88.3104 5.06215 88.3782 3.9887 88.446 2.94915C88.5364 1.88701 88.6042 0.903955 88.6494 0H97.4968V18.6102H100.48V23.661H98.6494V20.3729H85.768V23.661H83.9375ZM88.7172 18.6102H95.3612V1.55932H90.6833C90.5025 3.88701 90.333 6.19209 90.1748 8.47458C90.0166 10.7571 89.8584 13.0508 89.7002 15.3559C89.6324 15.8983 89.542 16.4972 89.429 17.1525C89.316 17.8079 89.0787 18.2938 88.7172 18.6102Z" fill="#474C54"/>
<path d="M107.79 20.339C106.66 20.339 105.745 20.2147 105.044 19.9661C104.343 19.6949 103.835 19.209 103.519 18.5085C103.202 17.8079 103.044 16.791 103.044 15.4576V7.08475C103.044 5.52542 103.394 4.45198 104.095 3.86441C104.818 3.27684 106.004 2.98305 107.654 2.98305C109.259 2.98305 110.411 3.27684 111.112 3.86441C111.835 4.45198 112.197 5.52542 112.197 7.08475V11.4237H105.146V16.1695C105.146 17.2542 105.315 18.0113 105.654 18.4407C105.993 18.8475 106.682 19.0508 107.722 19.0508C108.671 19.0508 109.304 18.8475 109.62 18.4407C109.937 18.0339 110.095 17.2768 110.095 16.1695V14H112.197V15.4237C112.197 16.7345 112.038 17.7514 111.722 18.4746C111.406 19.1751 110.92 19.661 110.264 19.9322C109.632 20.2034 108.807 20.339 107.79 20.339ZM105.146 10.339H110.095V6.91525C110.095 5.9661 109.937 5.27684 109.62 4.84746C109.304 4.41808 108.648 4.20339 107.654 4.20339C106.66 4.20339 105.993 4.41808 105.654 4.84746C105.315 5.27684 105.146 5.9661 105.146 6.91525V10.339Z" fill="#474C54"/>
<path d="M114.83 20.0339V3.25424H116.931V10.4068H122.253V3.25424H124.355V20.0339H122.253V12.0339H116.931V20.0339H114.83Z" fill="#474C54"/>
<path d="M127.177 20.0339V3.32203H129.278V8.54237H132.634C133.674 8.54237 134.487 8.70056 135.075 9.01695C135.663 9.33333 136.081 9.80791 136.329 10.4407C136.578 11.0734 136.702 11.8531 136.702 12.7797V14.4746C136.702 15.4237 136.634 16.2486 136.499 16.9492C136.363 17.6497 136.137 18.226 135.821 18.678C135.504 19.1299 135.075 19.4689 134.533 19.6949C133.99 19.9209 133.29 20.0339 132.431 20.0339H127.177ZM129.278 18.8136H132.024C132.77 18.8136 133.324 18.678 133.685 18.4068C134.047 18.113 134.284 17.7175 134.397 17.2203C134.533 16.7232 134.6 16.1695 134.6 15.5593V13.1864C134.6 12.5989 134.544 12.0565 134.431 11.5593C134.34 11.0621 134.114 10.6667 133.753 10.3729C133.391 10.0565 132.815 9.8983 132.024 9.8983H129.278V18.8136Z" fill="#474C54"/>
<path d="M139.558 20.0339V3.25424H147.355V4.81356H141.796V20.0339H139.558Z" fill="#474C54"/>
<path d="M149.357 20.0339V3.28814H151.255V16.1695L156.882 3.28814H158.781V20.0339H156.916V6.67797C155.945 8.91525 154.984 11.1412 154.035 13.3559C153.108 15.5706 152.148 17.7966 151.154 20.0339H149.357Z" fill="#474C54"/>
<path d="M161.639 20.0339V3.25424H167.639C168.791 3.25424 169.718 3.52542 170.418 4.0678C171.119 4.58757 171.469 5.44633 171.469 6.64407V7.8983C171.469 8.96045 171.164 9.78531 170.554 10.3729C169.966 10.9379 169.175 11.2316 168.181 11.2542V11.1864C169.198 11.1864 170.045 11.4802 170.723 12.0678C171.401 12.6328 171.74 13.5593 171.74 14.8475V15.8983C171.74 17.0282 171.559 17.8983 171.198 18.5085C170.836 19.096 170.316 19.5028 169.639 19.7288C168.983 19.9322 168.215 20.0339 167.333 20.0339H161.639ZM163.876 18.8475H166.825C167.367 18.8475 167.831 18.7797 168.215 18.6441C168.622 18.4859 168.927 18.2034 169.13 17.7966C169.356 17.3672 169.469 16.7458 169.469 15.9322V14.6102C169.469 13.9322 169.333 13.4124 169.062 13.0508C168.814 12.6893 168.475 12.4407 168.045 12.3051C167.639 12.1469 167.164 12.0678 166.622 12.0678H163.876V18.8475ZM163.876 10.6102H166.588C167.514 10.6102 168.203 10.4068 168.655 10C169.13 9.59322 169.367 8.94915 169.367 8.0678V6.64407C169.367 5.9661 169.141 5.44633 168.689 5.08475C168.26 4.72316 167.718 4.54237 167.062 4.54237H163.876V10.6102Z" fill="#474C54"/>
<path d="M175.327 20.0339V0H184.31V1.55932H177.429V5.28814H180.785C181.734 5.28814 182.502 5.43503 183.09 5.72881C183.7 6.0226 184.141 6.48588 184.412 7.11864C184.706 7.72881 184.852 8.53107 184.852 9.52542V15.0508C184.852 16 184.762 16.791 184.581 17.4237C184.423 18.0565 184.175 18.565 183.836 18.9492C183.497 19.3333 183.056 19.6158 182.513 19.7966C181.994 19.9548 181.361 20.0339 180.615 20.0339H175.327ZM180.208 18.8136C180.932 18.8136 181.474 18.678 181.836 18.4068C182.197 18.113 182.434 17.7175 182.547 17.2203C182.683 16.7232 182.751 16.1695 182.751 15.5593V9.83051C182.751 9.26554 182.694 8.74576 182.581 8.27119C182.468 7.77401 182.231 7.37853 181.869 7.08475C181.508 6.79096 180.932 6.64407 180.141 6.64407H177.429V18.8136H180.208Z" fill="#474C54"/>
<path d="M191.082 20.2712C190.562 20.2712 190.031 20.1921 189.489 20.0339C188.969 19.8983 188.517 19.5706 188.133 19.0508C187.771 18.5085 187.59 17.6723 187.59 16.5424V14.9153C187.59 13.7853 187.929 12.8814 188.607 12.2034C189.308 11.5028 190.257 10.8814 191.455 10.339C192.223 9.9548 192.845 9.61582 193.319 9.32203C193.816 9.02825 194.189 8.70056 194.438 8.33898C194.686 7.9774 194.811 7.49153 194.811 6.88136V6.16949C194.811 5.62712 194.698 5.20904 194.472 4.91525C194.246 4.62147 193.941 4.41808 193.556 4.30508C193.195 4.19209 192.811 4.13559 192.404 4.13559C191.387 4.13559 190.72 4.41808 190.404 4.98305C190.087 5.52542 189.929 6.33898 189.929 7.42373V8.84746H187.997V7.22034C187.997 6.38418 188.11 5.64972 188.336 5.01695C188.562 4.36158 188.991 3.85311 189.624 3.49152C190.257 3.10734 191.184 2.91526 192.404 2.91526C193.692 2.91526 194.652 3.06215 195.285 3.35593C195.941 3.64972 196.37 4.0678 196.573 4.61017C196.799 5.15254 196.912 5.79661 196.912 6.54237V20.0339H194.845L194.811 17.9322C194.539 18.7006 194.054 19.2881 193.353 19.6949C192.652 20.0791 191.895 20.2712 191.082 20.2712ZM191.861 18.8475C192.878 18.8475 193.613 18.4859 194.065 17.7627C194.539 17.0395 194.777 16.0791 194.777 14.8814V9.52542C194.551 9.88701 194.178 10.2147 193.658 10.5085C193.138 10.8023 192.607 11.096 192.065 11.3898C191.297 11.8418 190.698 12.3164 190.268 12.8136C189.861 13.2881 189.658 13.9548 189.658 14.8136V16.1356C189.658 16.9492 189.771 17.548 189.997 17.9322C190.223 18.3164 190.506 18.565 190.845 18.678C191.184 18.791 191.523 18.8475 191.861 18.8475Z" fill="#474C54"/>
<path d="M199.84 20.0339V3.25424H201.942V10.4068H207.264V3.25424H209.366V20.0339H207.264V12.0339H201.942V20.0339H199.84Z" fill="#474C54"/>
<path d="M212.221 20.0339V3.25424H214.323V10.6102C214.978 9.25424 215.735 8.0565 216.594 7.01695C217.453 5.9774 218.345 5.17514 219.272 4.61017C220.199 4.0226 221.035 3.71751 221.78 3.69492V5.18644C221.193 5.34463 220.651 5.60452 220.153 5.9661C219.656 6.30508 219.193 6.71186 218.764 7.18644C218.47 7.50282 218.199 7.84181 217.95 8.20339C217.701 8.56497 217.464 8.93785 217.238 9.32203L221.679 20.0339H219.272L215.441 11.5932C215.238 11.9548 215.023 12.3503 214.797 12.7797C214.594 13.209 214.436 13.5254 214.323 13.7288V20.0339H212.221Z" fill="#474C54"/>
<path d="M228.817 20.339C227.687 20.339 226.772 20.2147 226.072 19.9661C225.371 19.6949 224.862 19.209 224.546 18.5085C224.23 17.8079 224.072 16.791 224.072 15.4576V7.08475C224.072 5.52542 224.422 4.45198 225.122 3.86441C225.846 3.27684 227.032 2.98305 228.682 2.98305C230.286 2.98305 231.439 3.27684 232.139 3.86441C232.862 4.45198 233.224 5.52542 233.224 7.08475V11.4237H226.173V16.1695C226.173 17.2542 226.343 18.0113 226.682 18.4407C227.021 18.8475 227.71 19.0508 228.749 19.0508C229.699 19.0508 230.331 18.8475 230.648 18.4407C230.964 18.0339 231.122 17.2768 231.122 16.1695V14H233.224V15.4237C233.224 16.7345 233.066 17.7514 232.749 18.4746C232.433 19.1751 231.947 19.661 231.292 19.9322C230.659 20.2034 229.834 20.339 228.817 20.339ZM226.173 10.339H231.122V6.91525C231.122 5.9661 230.964 5.27684 230.648 4.84746C230.331 4.41808 229.676 4.20339 228.682 4.20339C227.687 4.20339 227.021 4.41808 226.682 4.84746C226.343 5.27684 226.173 5.9661 226.173 6.91525V10.339Z" fill="#474C54"/>
<path d="M237.417 20.2712C237.055 20.2712 236.75 20.1469 236.501 19.8983C236.253 19.6497 236.128 19.3559 236.128 19.0169C236.128 18.678 236.253 18.3842 236.501 18.1356C236.75 17.887 237.055 17.7627 237.417 17.7627C237.778 17.7627 238.083 17.887 238.332 18.1356C238.603 18.3842 238.739 18.678 238.739 19.0169C238.739 19.3559 238.603 19.6497 238.332 19.8983C238.083 20.1469 237.778 20.2712 237.417 20.2712Z" fill="#474C54"/>
<path d="M242.222 23.9661V3.25424H244.188L244.256 4.74576C244.459 4.27119 244.787 3.86441 245.239 3.52542C245.691 3.18644 246.437 3.01695 247.476 3.01695C248.538 3.01695 249.352 3.19774 249.917 3.55932C250.482 3.9209 250.877 4.41808 251.103 5.05085C251.329 5.68362 251.442 6.41808 251.442 7.25424V15.5254C251.442 16.452 251.341 17.2768 251.137 18C250.934 18.7232 250.55 19.2881 249.985 19.6949C249.42 20.0791 248.584 20.2712 247.476 20.2712C246.617 20.2712 245.928 20.1356 245.408 19.8644C244.911 19.5932 244.538 19.2542 244.29 18.8475V23.9661H242.222ZM246.832 18.9831C247.465 18.9831 247.951 18.8927 248.29 18.7119C248.629 18.5311 248.877 18.2938 249.035 18C249.194 17.6836 249.284 17.3446 249.307 16.9831C249.329 16.5989 249.341 16.1921 249.341 15.7627V7.59322C249.341 7.16384 249.329 6.76836 249.307 6.40678C249.284 6.0226 249.194 5.67232 249.035 5.35593C248.877 5.03955 248.629 4.79096 248.29 4.61017C247.951 4.42938 247.465 4.33898 246.832 4.33898C246.199 4.33898 245.713 4.45198 245.374 4.67797C245.035 4.90395 244.787 5.20904 244.629 5.59322C244.471 5.9548 244.38 6.35028 244.358 6.77966C244.335 7.20904 244.324 7.61582 244.324 8V16C244.324 16.5424 244.369 17.0508 244.459 17.5254C244.572 17.9774 244.798 18.339 245.137 18.6102C245.499 18.8588 246.064 18.9831 246.832 18.9831Z" fill="#474C54"/>
<path d="M255.145 24C254.671 24 254.241 23.9661 253.857 23.8983C253.495 23.8305 253.213 23.774 253.01 23.7288V22.4746C253.077 22.5198 253.224 22.565 253.45 22.6102C253.699 22.6554 253.981 22.678 254.298 22.678C254.637 22.678 255.01 22.6215 255.416 22.5085C255.846 22.3955 256.196 22.0791 256.467 21.5593C256.603 21.3333 256.75 21.0734 256.908 20.7797C257.089 20.4859 257.134 20.1469 257.043 19.7627L253.179 3.25424H255.349L258.433 17.8983H258.399L261.382 3.25424H263.382L259.721 19.3898C259.382 20.9492 258.851 22.1017 258.128 22.8475C257.405 23.6158 256.411 24 255.145 24Z" fill="#474C54"/>
</svg>
