<svg width="17" height="14" viewBox="0 0 17 14" fill="none" xmlns="http://www.w3.org/2000/svg">
<path d="M14.3327 0.533203H2.66602C2.00297 0.533203 1.36709 0.796595 0.898249 1.26544C0.429408 1.73428 0.166016 2.37016 0.166016 3.0332V11.3665C0.166016 12.0296 0.429408 12.6655 0.898249 13.1343C1.36709 13.6031 2.00297 13.8665 2.66602 13.8665H14.3327C14.9957 13.8665 15.6316 13.6031 16.1005 13.1343C16.5693 12.6655 16.8327 12.0296 16.8327 11.3665V3.0332C16.8327 2.37016 16.5693 1.73428 16.1005 1.26544C15.6316 0.796595 14.9957 0.533203 14.3327 0.533203V0.533203ZM2.66602 2.19987H14.3327C14.5537 2.19987 14.7657 2.28767 14.9219 2.44395C15.0782 2.60023 15.166 2.81219 15.166 3.0332L8.49935 7.09987L1.83268 3.0332C1.83268 2.81219 1.92048 2.60023 2.07676 2.44395C2.23304 2.28767 2.445 2.19987 2.66602 2.19987V2.19987ZM15.166 11.3665C15.166 11.5875 15.0782 11.7995 14.9219 11.9558C14.7657 12.1121 14.5537 12.1999 14.3327 12.1999H2.66602C2.445 12.1999 2.23304 12.1121 2.07676 11.9558C1.92048 11.7995 1.83268 11.5875 1.83268 11.3665V4.9332L8.06602 8.74154C8.1927 8.81468 8.3364 8.85318 8.48268 8.85318C8.62896 8.85318 8.77267 8.81468 8.89935 8.74154L15.166 4.9332V11.3665Z" fill="#6E7F98"/>
</svg>
