<svg width="14" height="14" viewBox="0 0 14 14" fill="none" xmlns="http://www.w3.org/2000/svg">
<path d="M7.00065 6.33398C6.82384 6.33398 6.65427 6.40422 6.52925 6.52925C6.40423 6.65427 6.33399 6.82384 6.33399 7.00065V9.66732C6.33399 9.84413 6.40423 10.0137 6.52925 10.1387C6.65427 10.2637 6.82384 10.334 7.00065 10.334C7.17747 10.334 7.34703 10.2637 7.47206 10.1387C7.59708 10.0137 7.66732 9.84413 7.66732 9.66732V7.00065C7.66732 6.82384 7.59708 6.65427 7.47206 6.52925C7.34703 6.40422 7.17747 6.33398 7.00065 6.33398ZM7.25399 3.72065C7.09168 3.65397 6.90963 3.65397 6.74732 3.72065C6.66549 3.75238 6.59072 3.79996 6.52732 3.86065C6.46843 3.92545 6.42108 3.99986 6.38732 4.08065C6.35 4.15977 6.33173 4.24653 6.33399 4.33398C6.33348 4.42172 6.3503 4.5087 6.38347 4.58992C6.41665 4.67115 6.46553 4.74502 6.52732 4.80732C6.59212 4.86621 6.66653 4.91356 6.74732 4.94732C6.84832 4.98881 6.95796 5.00486 7.06662 4.99406C7.17527 4.98326 7.27961 4.94593 7.37046 4.88536C7.46131 4.8248 7.5359 4.74284 7.58766 4.6467C7.63942 4.55056 7.66678 4.44317 7.66732 4.33398C7.66487 4.15747 7.59581 3.98841 7.47399 3.86065C7.41059 3.79996 7.33582 3.75238 7.25399 3.72065ZM7.00065 0.333984C5.68211 0.333984 4.39318 0.724978 3.29685 1.45752C2.20052 2.19006 1.34604 3.23125 0.841457 4.44943C0.336873 5.6676 0.204851 7.00805 0.462086 8.30125C0.71932 9.59446 1.35426 10.7823 2.28661 11.7147C3.21896 12.647 4.40685 13.282 5.70005 13.5392C6.99326 13.7965 8.3337 13.6644 9.55188 13.1598C10.7701 12.6553 11.8112 11.8008 12.5438 10.7045C13.2763 9.60813 13.6673 8.31919 13.6673 7.00065C13.6673 6.12517 13.4949 5.25827 13.1599 4.44943C12.8248 3.64059 12.3338 2.90566 11.7147 2.28661C11.0956 1.66755 10.3607 1.17649 9.55188 0.841454C8.74304 0.506423 7.87613 0.333984 7.00065 0.333984V0.333984ZM7.00065 12.334C5.94582 12.334 4.91467 12.0212 4.03761 11.4352C3.16055 10.8491 2.47696 10.0162 2.0733 9.04163C1.66963 8.06709 1.56401 6.99474 1.7698 5.96017C1.97559 4.9256 2.48354 3.9753 3.22942 3.22942C3.9753 2.48353 4.92561 1.97558 5.96017 1.7698C6.99474 1.56401 8.06709 1.66963 9.04163 2.07329C10.0162 2.47696 10.8491 3.16055 11.4352 4.03761C12.0212 4.91467 12.334 5.94582 12.334 7.00065C12.334 8.41514 11.7721 9.77169 10.7719 10.7719C9.7717 11.7721 8.41514 12.334 7.00065 12.334V12.334Z" fill="#2B7FDE"/>
</svg>
