<svg width="17" height="10" viewBox="0 0 17 10" fill="none" xmlns="http://www.w3.org/2000/svg">
<path d="M15.8044 7.78776C15.456 7.3696 15.0601 6.99481 14.6773 6.63236C14.5412 6.50345 14.4004 6.37018 14.2647 6.23767C13.8752 5.8568 13.861 5.71371 14.1694 5.2811C14.3828 4.9829 14.609 4.68431 14.8278 4.39554C15.0263 4.13354 15.2315 3.8626 15.4282 3.59078L15.4686 3.53489C15.8445 3.01473 16.2333 2.47686 16.4402 1.82801C16.4939 1.65683 16.5503 1.40491 16.4213 1.19427C16.2924 0.983796 16.0424 0.919585 15.8655 0.889593C15.778 0.874752 15.6911 0.872726 15.6104 0.872726L13.1485 0.870964L13.1282 0.870788C12.7559 0.870788 12.5051 1.0462 12.3613 1.40711C12.2241 1.75195 12.0733 2.11916 11.9013 2.46832C11.559 3.16359 11.1242 3.96438 10.4951 4.63225L10.4685 4.66066C10.3942 4.7405 10.31 4.83092 10.2485 4.83092C10.2391 4.83092 10.2288 4.82911 10.2172 4.82546C10.0869 4.77468 9.99943 4.45922 10.0034 4.31247C10.0034 4.31045 10.0035 4.30842 10.0035 4.3064L10.0018 1.46093C10.0018 1.45107 10.0011 1.44129 9.99978 1.43151C9.93716 0.968955 9.79843 0.681017 9.27426 0.578358C9.26032 0.575595 9.24614 0.574209 9.23193 0.574219H6.67203C6.25496 0.574219 6.02516 0.743731 5.80914 0.997449C5.75083 1.06527 5.62946 1.20647 5.68962 1.37774C5.75066 1.55157 5.94879 1.58874 6.01331 1.60081C6.33358 1.66176 6.5141 1.85765 6.56523 2.19993C6.6545 2.79431 6.66547 3.42871 6.59976 4.19647C6.58144 4.40985 6.54519 4.57465 6.48547 4.71545C6.4716 4.7483 6.42241 4.85554 6.37224 4.85558C6.3563 4.85558 6.31019 4.84933 6.22621 4.79146C6.02763 4.65542 5.88234 4.46129 5.71296 4.22149C5.13673 3.40713 4.65312 2.51002 4.23429 1.47828C4.07896 1.09848 3.78887 0.88585 3.41708 0.879596C3.00855 0.873387 2.63817 0.870392 2.28492 0.870392C1.89895 0.870392 1.54112 0.873959 1.1917 0.881226C0.89258 0.886511 0.685677 0.976178 0.576808 1.14794C0.467764 1.31983 0.474854 1.54562 0.597904 1.81894C1.58292 4.00877 2.47602 5.60097 3.49379 6.98173C4.20694 7.94789 4.92225 8.61665 5.74467 9.08617C6.61112 9.58185 7.58213 9.82284 8.71309 9.82284C8.84129 9.82284 8.97386 9.81971 9.10752 9.81345C9.76469 9.78144 10.0085 9.54357 10.0393 8.90371C10.054 8.57671 10.0898 8.23376 10.2505 7.94129C10.352 7.75702 10.4466 7.75702 10.4777 7.75702C10.5376 7.75702 10.6118 7.78459 10.6916 7.83625C10.8346 7.92962 10.9573 8.05469 11.0578 8.16396C11.1525 8.26776 11.246 8.37262 11.3397 8.47753C11.5419 8.70394 11.7509 8.93802 11.9692 9.16003C12.4472 9.64628 12.9737 9.86014 13.5784 9.81372H15.8356C15.8404 9.81372 15.8452 9.81354 15.85 9.81324C16.0749 9.79839 16.2697 9.67363 16.3844 9.47095C16.5266 9.21988 16.5237 8.89957 16.3768 8.61392C16.2101 8.29093 15.9938 8.01497 15.8044 7.78776Z" fill="#202122"/>
</svg>
