<svg width="17" height="12" viewBox="0 0 17 12" fill="none" xmlns="http://www.w3.org/2000/svg">
<path d="M16.1704 2.25293C15.986 1.56748 15.4455 1.02715 14.7602 0.842576C13.5081 0.5 8.49982 0.5 8.49982 0.5C8.49982 0.5 3.49171 0.5 2.23965 0.829601C1.56748 1.01398 1.01388 1.5676 0.829501 2.25293C0.5 3.50488 0.5 6.10131 0.5 6.10131C0.5 6.10131 0.5 8.71079 0.829501 9.94964C1.01405 10.635 1.5543 11.1753 2.23975 11.3599C3.50488 11.7026 8.50002 11.7026 8.50002 11.7026C8.50002 11.7026 13.5081 11.7026 14.7602 11.373C15.4456 11.1885 15.986 10.6482 16.1705 9.96282C16.4999 8.71077 16.4999 6.11446 16.4999 6.11446C16.4999 6.11446 16.5131 3.50486 16.1704 2.25293ZM6.90526 8.49994V3.70261L11.0699 6.10126L6.90526 8.49994Z" fill="black"/>
</svg>
