<svg width="212" height="46" viewBox="0 0 212 46" fill="none" xmlns="http://www.w3.org/2000/svg">
<g clip-path="url(#clip0_410_693)">
<path fill-rule="evenodd" clip-rule="evenodd" d="M16.3175 20.8633L15.7374 24.3055L8.28805 24.3194L7.67578 27.6904C8.23353 27.5467 9.07086 27.4896 9.7656 27.4896C13.059 27.4896 15.8059 29.2274 15.8296 32.8494C15.8464 35.0753 14.8511 36.7127 13.4323 37.8075C11.5787 39.2845 8.85838 39.8131 6.26113 39.8131C4.27894 39.8159 2.38202 39.682 1.51953 39.5426L4.89121 20.8843L16.3175 20.8633ZM6.0137 36.6472C6.45963 36.728 6.87619 36.728 7.4675 36.7253C9.42312 36.7253 11.6108 35.5509 11.5941 33.3069C11.5773 31.4658 10.322 30.5286 8.56343 30.5286C8.09654 30.5286 7.5304 30.5844 7.08587 30.6639L6.0137 36.6472Z" fill="#0599EB"/>
<path fill-rule="evenodd" clip-rule="evenodd" d="M23.0551 37.0196C24.3397 37.0154 25.7516 36.0126 25.7404 34.4255C25.7306 33.4185 25.1113 32.8411 24.1678 32.8411C22.9726 32.8467 21.9731 33.8983 21.7313 34.7644C21.6194 35.0977 21.5733 35.3655 21.5761 35.7951C21.5817 36.5105 22.0947 37.0196 23.0313 37.0196H23.0551ZM23.5821 25.9959L22.3114 31.2288H22.3407C23.2256 30.452 24.6458 30.0015 25.8969 30.0015C28.0762 30.0015 29.6474 31.332 29.6656 33.7197C29.6908 36.6486 27.2333 39.8508 22.2457 39.8536C20.1251 39.8578 17.6411 39.3822 17.6173 36.5482C17.6131 35.8034 17.7962 34.6012 17.9612 33.8313L19.6498 26.0015L23.5821 25.9959ZM36.7361 25.9805L34.2702 39.5886L30.0626 39.5914L32.5285 25.9847L36.7361 25.9805Z" fill="#0599EB"/>
<path fill-rule="evenodd" clip-rule="evenodd" d="M47.2299 39.1506C46.3772 39.5704 44.978 39.8744 43.3564 39.8744C39.9833 39.88 37.5986 37.827 37.5706 34.2929C37.5343 29.4532 41.2079 25.6736 46.394 25.668C47.5654 25.668 48.5817 25.8856 49.1897 26.106L48.2056 29.191C47.7304 29.0055 47.1698 28.8675 46.3632 28.8675C43.5242 28.8703 41.7572 31.2859 41.7796 33.8438C41.7922 35.7154 42.9986 36.6527 44.4803 36.6471C45.6489 36.6471 46.4765 36.3668 47.1866 36.0962L47.2299 39.1506Z" fill="#0599EB"/>
<path fill-rule="evenodd" clip-rule="evenodd" d="M49.3496 39.5677L50.9767 30.3864C51.2619 28.664 51.4772 27.1647 51.6295 25.9652L55.0921 25.9611L54.86 28.1591H54.9103C56.1251 26.4032 57.79 25.6542 59.5401 25.65C61.7166 25.6473 62.6853 27.0071 62.8041 28.2051C64.0161 26.4394 65.7061 25.6431 67.4675 25.6431C69.5866 25.6124 70.8224 26.968 70.8405 29.2818C70.8433 29.8676 70.7385 30.9136 70.6043 31.6152L69.1882 39.5426L65.3189 39.551L66.6231 32.1173C66.7364 31.5691 66.8049 30.9778 66.8021 30.4534C66.7965 29.5064 66.3687 28.8425 65.428 28.8425C64.0832 28.8453 62.7846 30.65 62.2771 33.3725L61.1952 39.5594L57.3189 39.5622L58.6441 32.074C58.7573 31.5287 58.8342 30.9987 58.8314 30.5273C58.8188 29.6068 58.5057 28.8537 57.5272 28.8537C56.1684 28.8579 54.7664 30.763 54.2855 33.4492L53.2175 39.565L49.3496 39.5677Z" fill="#0599EB"/>
<path fill-rule="evenodd" clip-rule="evenodd" d="M70.623 44.8296L73.0875 31.1991C73.3866 29.5827 73.683 27.3233 73.8423 25.9397L77.4335 25.9369L77.2141 27.9104H77.2769C78.3798 26.4293 79.9832 25.6259 81.6285 25.6231C84.585 25.6176 86.0276 27.9774 86.0514 30.7542C86.0905 35.4879 82.9803 39.8435 78.2289 39.8491C77.1288 39.8505 76.174 39.5632 75.6959 39.287H75.6372L74.6237 44.8268L70.623 44.8296ZM76.2285 36.142C76.6758 36.552 77.2881 36.8156 78.0709 36.8114C80.218 36.8072 81.8717 33.7445 81.8452 31.0722C81.8354 29.9941 81.3755 28.8505 80.0643 28.8547C78.5587 28.8547 77.1259 30.5283 76.7024 33.2229L76.2285 36.142Z" fill="#0599EB"/>
<path fill-rule="evenodd" clip-rule="evenodd" d="M105.598 19.502C106.796 19.8326 108.466 19.7405 109.671 19.8842C111.754 20.0753 113.297 20.6025 114.479 21.6847C116.102 23.0418 116.708 25.35 116.728 27.9679C116.768 33.1785 114.539 39.7907 108.266 39.8019C104.808 39.8075 102.7 37.6903 102.674 34.1548C102.643 30.1506 105.425 25.8939 109.766 25.8912C111.64 25.8884 112.821 26.7796 113.387 28.1157H113.488C113.488 27.834 113.485 27.502 113.52 27.2733C113.511 26.2691 113.131 25.0585 112.291 24.3249C111.374 23.4727 110.057 23.2189 108.353 23.085C107.489 23.0306 106.652 22.9748 105.679 22.7907L105.598 19.502ZM108.855 36.8479C111.001 36.8451 112.143 33.4588 112.162 31.6555C112.146 30.3124 111.609 28.8674 110.103 28.8674C107.842 28.8702 106.754 32.0948 106.832 34.2064C106.842 35.5969 107.411 36.8507 108.821 36.8479H108.855Z" fill="#0599EB"/>
<path fill-rule="evenodd" clip-rule="evenodd" d="M128.767 38.687C127.189 39.4973 125.205 39.7734 123.701 39.7776C119.81 39.7804 117.783 37.56 117.758 34.0259C117.723 29.885 120.696 25.5712 125.629 25.5684C128.383 25.5684 130.376 27.0914 130.401 29.6242C130.432 33.0956 127.058 34.3522 121.602 34.2239C121.606 34.6158 121.747 35.2142 122.035 35.6089C122.565 36.2992 123.48 36.666 124.655 36.666C126.139 36.6647 127.389 36.3257 128.468 35.8041L128.767 38.687ZM126.634 29.627C126.63 28.9603 126.068 28.4861 125.148 28.4889C123.274 28.4889 122.227 30.0175 121.967 31.302C125.085 31.3202 126.647 30.8753 126.636 29.6521V29.627H126.634Z" fill="#0599EB"/>
<path fill-rule="evenodd" clip-rule="evenodd" d="M137.369 25.8549L136.462 30.866L140.611 30.8563L141.515 25.8521L145.537 25.8438L143.054 39.4561L139.04 39.4575L140.046 33.9386L135.897 33.9455L134.916 39.4659L130.895 39.4699L133.357 25.8605L137.369 25.8549Z" fill="#0599EB"/>
<path fill-rule="evenodd" clip-rule="evenodd" d="M152.137 25.8398L150.867 31.0685H150.905C151.749 30.2861 153.227 29.8398 154.474 29.8398C156.687 29.8342 158.423 31.1745 158.444 33.5525C158.466 36.6529 155.93 39.6822 150.877 39.6878C148.702 39.692 146.164 39.1968 146.143 36.2819C146.134 35.5497 146.347 34.4479 146.541 33.6306L148.224 25.8398H152.137ZM151.638 36.8468C153.006 36.8468 154.52 35.8802 154.509 34.2889C154.503 33.261 153.891 32.6766 152.883 32.6766C151.548 32.6766 150.612 33.7603 150.312 34.512C150.166 34.8775 150.117 35.1229 150.118 35.579C150.124 36.3475 150.665 36.8496 151.614 36.8468H151.638Z" fill="#0599EB"/>
<path fill-rule="evenodd" clip-rule="evenodd" d="M162.079 26.4632C163.161 25.936 164.816 25.5218 166.479 25.5176C169.428 25.5134 171.02 26.9569 171.045 29.2428C171.059 31.6319 168.989 32.8314 166.461 33.8551C164.957 34.5301 163.958 35.0587 163.969 35.8384C163.977 36.3879 164.366 36.777 165.367 36.777C166.794 36.7756 168.207 36.1954 169.091 35.7268L169.56 38.5552C168.29 39.2233 166.397 39.7212 164.753 39.6947C161.745 39.7003 159.834 38.4241 159.821 35.9778C159.796 33.1452 162.27 32.1089 164.627 31.1354C165.958 30.5803 167.16 30.081 167.156 29.3488C167.148 28.83 166.591 28.459 165.671 28.4395C164.518 28.4395 163.42 28.7728 162.533 29.1689L162.079 26.4632Z" fill="#0599EB"/>
<path fill-rule="evenodd" clip-rule="evenodd" d="M177.779 25.8077L176.48 33.0978C176.371 33.7045 176.288 34.3712 176.288 34.8761C176.295 35.7617 176.643 36.4674 177.673 36.4646C179.042 36.4646 180.416 34.8091 180.936 32.0922L182.081 25.8022L186.083 25.791L184.411 34.9793C184.115 36.7059 183.902 38.1717 183.772 39.4102L180.18 39.4116L180.406 37.1703H180.352C178.976 38.9611 177.311 39.7157 175.671 39.7157C173.489 39.7171 172.174 38.4856 172.152 35.9081C172.148 35.1564 172.223 34.3558 172.409 33.4116L173.77 25.8119L177.779 25.8077Z" fill="#0599EB"/>
<path fill-rule="evenodd" clip-rule="evenodd" d="M94.4375 25.9509C90.2551 26.4794 87.4341 30.0792 87.3642 34.3358C87.3111 37.644 89.5422 39.8588 92.96 39.8574C97.7896 39.8532 101.027 36.068 101.109 31.3999C101.127 30.3191 100.887 29.3149 100.405 28.4655L96.8461 30.1907C96.9803 30.5785 97.0376 31.0066 97.0306 31.4334C96.9942 33.697 95.704 36.8407 93.5666 36.8449C92.0429 36.8476 91.4181 35.6273 91.4475 34.2465C91.4978 31.7919 92.795 29.1503 94.9645 28.8951L94.7618 30.008L102.251 25.8755L93.87 24.9648L94.4375 25.9509Z" fill="#0599EB"/>
<path d="M195.137 17.7188L188.359 25.9795L211.47 18.1455L195.137 17.7188Z" fill="#C95900"/>
<path d="M93.4985 18.3526H211.471V0.28848L93.2441 0.199219L99.2745 9.79336L93.4985 18.3526Z" fill="url(#paint0_radial_410_693)"/>
<path d="M111.718 6.58788L110.817 11.2476C110.645 12.1235 110.545 12.871 110.439 13.4931L108.643 13.4917L108.776 12.3606H108.75C108.033 13.2615 107.19 13.6437 106.354 13.6423C105.249 13.6409 104.583 13.0175 104.586 11.705C104.586 11.3215 104.631 10.9143 104.729 10.4345L105.458 6.57812L107.497 6.58091L106.796 10.2811C106.743 10.5907 106.7 10.9282 106.7 11.1834C106.698 11.6353 106.87 11.9882 107.385 11.9896C108.081 11.9896 108.797 11.1583 109.065 9.77198L109.677 6.5823L111.718 6.58788Z" fill="white"/>
<path d="M113.391 9.2746L114.193 9.276C114.875 9.27879 115.639 9.07935 115.647 8.55912C115.647 8.10585 115.202 7.89385 114.653 7.89246C114.118 7.89106 113.436 8.07237 112.941 8.3276L112.602 7.08492C113.296 6.71812 114.227 6.45173 115.126 6.45313C116.252 6.45452 117.797 6.80877 117.796 8.2495C117.794 9.20905 116.898 9.71951 116.022 9.88548V9.90082C116.767 10.0291 117.579 10.5382 117.577 11.4978C117.576 13.1658 115.65 13.6289 114.271 13.6261C113.257 13.6261 112.293 13.4252 111.525 12.9134L112.05 11.5591C112.605 11.9008 113.356 12.1407 114.049 12.1421C114.701 12.1435 115.421 11.905 115.427 11.3541C115.427 10.7739 114.758 10.5898 114.009 10.5884H113.185L113.391 9.2746Z" fill="white"/>
<path d="M122.474 3.35547C123.082 3.52841 123.928 3.48518 124.538 3.5577C125.599 3.65812 126.377 3.9273 126.971 4.4782C127.795 5.17276 128.085 6.3471 128.081 7.67486C128.078 10.315 126.913 13.6734 123.732 13.6693C121.972 13.6679 120.913 12.5925 120.914 10.7976C120.916 8.76412 122.351 6.60652 124.564 6.6107C125.509 6.6107 126.105 7.06537 126.384 7.7432H126.446C126.446 7.60373 126.446 7.43218 126.458 7.33315C126.458 6.81014 126.275 6.1895 125.85 5.82269C125.383 5.38336 124.716 5.2411 123.854 5.18392C123.415 5.15324 122.992 5.12534 122.492 5.02493L122.474 3.35547ZM125.748 9.5326C125.748 8.85477 125.481 8.11837 124.715 8.11698C123.57 8.11558 123 9.75296 123.024 10.8283C123.022 11.534 123.307 12.1686 124.027 12.17C125.134 12.1713 125.729 10.4503 125.748 9.5326Z" fill="white"/>
<path d="M135.663 9.30921C135.661 11.8364 133.93 13.6858 131.521 13.6816C129.769 13.676 128.594 12.5323 128.596 10.8252C128.6 8.42218 130.27 6.46123 132.738 6.46681C134.591 6.4696 135.666 7.74157 135.663 9.30921ZM130.705 10.7862C130.701 11.5895 131.098 12.1251 131.811 12.1265C132.925 12.1279 133.55 10.5058 133.551 9.32176C133.558 8.68299 133.286 8.00656 132.466 8.00377C131.292 8.00377 130.694 9.70949 130.705 10.7862Z" fill="white"/>
<path d="M140.298 6.63309L140.542 9.31789C140.584 9.74327 140.626 10.3193 140.669 10.9427H140.699C140.883 10.548 141.255 9.77117 141.62 9.078L142.898 6.63728L145.492 6.64285L144.555 13.5452L142.674 13.5424L143.103 10.7739C143.201 10.1826 143.374 9.16726 143.492 8.4741H143.436C143.222 8.96782 142.838 9.75861 142.411 10.6052L140.932 13.4267L139.389 13.4253L139.114 10.6833C139.042 9.90785 138.97 9.07242 138.947 8.45178H138.893C138.719 9.20073 138.505 10.23 138.366 10.8102L137.695 13.5354L135.883 13.534L137.718 6.62891L140.298 6.63309Z" fill="white"/>
<path d="M150.443 13.5561C150.455 13.146 150.5 12.6802 150.541 12.1865H150.5C149.863 13.3315 148.985 13.7095 148.177 13.7095C146.933 13.7067 146.082 12.7457 146.086 11.305C146.089 8.97449 147.636 6.49053 151.05 6.4961C151.873 6.4961 152.761 6.65371 153.339 6.8406L152.598 10.4556C152.433 11.3413 152.303 12.6997 152.327 13.5602L150.443 13.5561ZM151.047 8.09164C150.887 8.06235 150.692 8.03585 150.493 8.03306C149.178 8.03167 148.21 9.64115 148.208 10.9257C148.206 11.6035 148.476 12.0707 149.045 12.0735C149.652 12.0735 150.407 11.3817 150.715 9.68718L151.047 8.09164Z" fill="white"/>
<path d="M158.516 6.66378L158.932 9.67215C159.033 10.3778 159.1 10.873 159.162 11.3109H159.188C159.343 10.9009 159.497 10.449 159.799 9.70144L161.063 6.66797L163.211 6.67076L160.732 11.6233C159.805 13.456 158.986 14.714 158.059 15.5759C157.255 16.3346 156.29 16.6721 155.84 16.7419L155.387 15.0041C155.715 14.9078 156.167 14.7377 156.563 14.4546C157.031 14.1296 157.43 13.7237 157.684 13.2565C157.753 13.1589 157.753 13.0752 157.728 12.9176L156.366 6.6582L158.516 6.66378Z" fill="white"/>
<path d="M164.421 3.42383C165.027 3.59538 165.873 3.55354 166.482 3.62467C167.548 3.72648 168.322 3.99566 168.918 4.54656C169.738 5.23973 170.036 6.41546 170.035 7.74182C170.025 10.3834 168.863 13.7418 165.677 13.7362C163.922 13.7334 162.858 12.6595 162.861 10.8645C162.862 8.83108 164.298 6.67348 166.509 6.67627C167.46 6.67766 168.051 7.13094 168.333 7.80877H168.389C168.389 7.6693 168.389 7.49914 168.403 7.39872C168.403 6.87571 168.221 6.25507 167.795 5.88826C167.334 5.45172 166.663 5.30667 165.803 5.24949C165.364 5.2202 164.939 5.19231 164.444 5.0905L164.421 3.42383ZM167.692 9.59956C167.692 8.92313 167.426 8.18812 166.657 8.18812C165.515 8.18394 164.945 9.82411 164.973 10.8966C164.971 11.6023 165.251 12.2369 165.976 12.2411C167.079 12.2425 167.679 10.52 167.692 9.59956Z" fill="white"/>
<path d="M177.614 9.377C177.61 11.9042 175.878 13.7522 173.471 13.7494C171.718 13.7466 170.544 12.5987 170.545 10.8916C170.549 8.48858 172.224 6.52764 174.686 6.53322C176.544 6.53461 177.617 7.80796 177.614 9.377ZM172.659 10.8526C172.657 11.6573 173.052 12.1929 173.76 12.1929C174.876 12.1971 175.505 10.5722 175.506 9.38816C175.509 8.74939 175.239 8.07157 174.417 8.07018C173.243 8.06878 172.642 9.77868 172.659 10.8526Z" fill="white"/>
<path d="M185.631 5.14099C185.26 5.26372 184.833 5.30696 184.417 5.3488C183.367 5.44782 182.3 5.51616 181.41 6.36414C180.972 6.78534 180.598 7.46177 180.458 7.99873H180.531C181.098 7.19538 181.88 6.70026 182.865 6.70305C184.439 6.70724 185.314 7.89412 185.299 9.41853C185.274 11.7072 183.702 13.7644 181.285 13.7602C179.531 13.7588 178.472 12.5566 178.473 10.3809C178.479 8.39064 179.059 6.56916 180.248 5.35717C181.501 4.0587 182.857 3.8216 184.556 3.68213C185.051 3.64168 185.561 3.57195 185.929 3.45898L185.631 5.14099ZM183.189 9.55661C183.189 8.90947 182.925 8.15912 182.187 8.15912C181.759 8.15772 181.378 8.42411 181.095 8.80626C180.698 9.30138 180.468 10.0183 180.465 10.77C180.463 11.5482 180.777 12.2679 181.512 12.2693C182.687 12.2693 183.188 10.6012 183.189 9.55661Z" fill="white"/>
<path d="M189.018 6.71177L188.533 9.25013L190.641 9.2557L191.126 6.71456L193.166 6.71735L191.841 13.6225L189.802 13.6211L190.34 10.8247L188.233 10.8191L187.705 13.6169L185.666 13.6141L186.977 6.70898L189.018 6.71177Z" fill="white"/>
<path d="M199.197 13.2378C198.394 13.6464 197.388 13.7733 196.62 13.772C194.641 13.7692 193.626 12.6492 193.627 10.857C193.632 8.75387 195.162 6.56419 197.666 6.56837C199.067 6.56977 200.073 7.3508 200.072 8.63532C200.067 10.3996 198.355 11.0328 195.576 10.9588C195.576 11.1569 195.65 11.4679 195.789 11.6646C196.054 12.0188 196.524 12.2029 197.124 12.2043C197.87 12.2057 198.505 12.0369 199.06 11.7692L199.197 13.2378ZM197.407 8.05233C196.457 8.05094 195.92 8.82639 195.78 9.47772C197.363 9.49166 198.154 9.26851 198.157 8.64927C198.157 8.29641 197.876 8.05233 197.407 8.05233Z" fill="white"/>
<path d="M206.075 13.2509C205.264 13.6582 204.258 13.7823 203.497 13.7823C201.511 13.7795 200.498 12.6624 200.498 10.8688C200.502 8.76418 202.034 6.57589 204.537 6.58008C205.945 6.58286 206.95 7.3625 206.947 8.64842C206.938 10.4127 205.228 11.0459 202.453 10.9692C202.453 11.1672 202.52 11.4796 202.667 11.6777C202.934 12.0306 203.395 12.2133 203.994 12.2133C204.743 12.2147 205.382 12.0487 205.93 11.7781L206.075 13.2509ZM204.286 8.06543C203.335 8.06264 202.798 8.8367 202.65 9.48663C204.241 9.50476 205.034 9.28022 205.035 8.65818C205.035 8.30532 204.748 8.06683 204.286 8.06543Z" fill="white"/>
</g>
<defs>
<radialGradient id="paint0_radial_410_693" cx="0" cy="0" r="1" gradientUnits="userSpaceOnUse" gradientTransform="translate(152.358 9.27593) rotate(90) scale(9.07671 59.1134)">
<stop stop-color="#FD8511" stop-opacity="0.85"/>
<stop offset="1" stop-color="#FC802D"/>
</radialGradient>
<clipPath id="clip0_410_693">
<rect width="211" height="45" fill="white" transform="translate(0.666016 0.199219)"/>
</clipPath>
</defs>
</svg>
