<svg width="241" height="30" viewBox="0 0 241 30" fill="none" xmlns="http://www.w3.org/2000/svg">
<path d="M17.9354 0.308594V7.87901H14.9568C11.1939 7.87901 8.16211 10.8661 8.16211 14.5744C8.16211 18.2813 11.1939 21.2684 14.9554 21.2684H17.9354V28.8388C24.7287 27.5515 29.7998 21.6808 29.7998 14.573C29.7998 7.51838 24.7301 1.64767 17.9354 0.308594Z" fill="#003791"/>
<path d="M14.9574 23.6366C9.88762 23.6366 5.75716 19.569 5.75716 14.5747C5.75716 9.58043 9.88623 5.51147 14.9546 5.51147H15.5305V0H14.956C6.80411 0 0.166016 6.54024 0.166016 14.5733C0.166016 22.6595 6.8041 29.1998 14.9574 29.1998H15.5319V23.6394H14.9574V23.6366ZM50.7058 19.6725C49.5082 20.6413 48.0137 21.1684 46.4733 21.1653C42.7622 21.1653 39.7835 18.2299 39.7835 14.5733C39.7835 10.9181 42.7608 7.98276 46.4733 7.98276C48.0886 7.97584 49.6502 8.56171 50.8623 9.62935L53.2148 7.31322C51.365 5.64795 48.9622 4.72978 46.4733 4.7371C40.9325 4.7371 36.4903 9.16669 36.4903 14.5733C36.4903 19.9814 40.9325 24.4613 46.4733 24.4613C49.034 24.4613 51.3334 23.5345 53.0583 21.99L50.7058 19.6725ZM157.066 5.51008L149.697 14.2644L142.275 5.51008L142.223 5.61351V5.51008H139.243V23.638H142.223V10.3506L149.697 19.105L157.066 10.5575V23.638H159.993V5.51008H157.066ZM75.3753 14.5733C75.3753 20.0331 70.8801 24.4096 65.3923 24.4096C59.8529 24.4096 55.4107 19.9814 55.4107 14.5733C55.4107 9.16669 59.9046 4.7371 65.3923 4.7371C70.8801 4.7371 75.3753 9.16669 75.3753 14.5733ZM72.0304 14.5733C72.0304 10.9181 69.0517 7.98276 65.3406 7.98276C61.6295 7.98276 58.6508 10.9181 58.6508 14.5733C58.6508 18.2299 61.6295 21.1653 65.3406 21.1653C69.0517 21.1653 72.0304 18.2299 72.0304 14.5733ZM136.213 14.5733C136.213 20.0331 131.717 24.4096 126.23 24.4096C120.689 24.4096 116.247 19.9814 116.247 14.5733C116.247 9.16669 120.742 4.7371 126.23 4.7371C131.769 4.7371 136.213 9.16669 136.213 14.5733ZM132.919 14.5733C132.919 10.9181 129.941 7.98276 126.23 7.98276C122.518 7.98276 119.54 10.9181 119.54 14.5733C119.54 18.2299 122.518 21.1653 126.23 21.1653C129.888 21.1653 132.919 18.2299 132.919 14.5733ZM116.195 5.51008H112.169L104.592 13.1322H101.508V5.51008H98.5814V23.638H101.508V16.0676H104.539L112.118 23.638H116.09L107.101 14.625L116.195 5.51008Z" fill="#FF4B5F"/>
<path d="M240.167 5.50977H236.197L228.565 13.1319H225.481V5.50977H222.555V23.6377H225.481V16.0672H228.565L236.091 23.6377H240.063L231.126 14.6247L240.167 5.50977ZM196.891 23.6363H200.134L192.031 5.50977H188.686L180.586 23.6377H183.826L185.603 19.7239H195.116L196.891 23.6363ZM186.911 16.8388L190.359 9.21809L193.809 16.8388H186.91H186.911Z" fill="#003791"/>
<path d="M94.8186 18.3848C94.8187 17.6682 94.67 16.9595 94.382 16.3033C94.094 15.6472 93.673 15.058 93.1455 14.573C94.1379 13.5946 94.8186 12.2555 94.8186 10.7627C94.8142 9.36627 94.2557 8.02874 93.2658 7.04383C92.2759 6.05892 90.9356 5.50717 89.5392 5.50977H78.7734V23.688H89.5392C92.4662 23.6377 94.8186 21.2684 94.8186 18.3848ZM81.7521 8.44653H89.4875C90.7944 8.44653 91.8386 9.4753 91.8386 10.7627C91.8386 12.05 90.7944 13.0802 89.4875 13.0802H81.7521V8.44513V8.44653ZM89.4875 20.7526H81.7521V16.0673H89.5392C90.8461 16.0673 91.8917 17.1477 91.8917 18.3848C91.8386 19.6708 90.7944 20.7526 89.4875 20.7526Z" fill="#FF4B5F"/>
<path d="M215.915 5.56148V13.1319H205.201V5.56148H202.223V23.5859H205.201V16.0659H215.915V23.5859H218.895V5.56148H215.915ZM179.539 18.3848C179.539 15.4997 177.135 13.1319 174.208 13.1319H166.473V8.44512H177.763V5.50977H163.494V23.688H174.208C177.135 23.6377 179.539 21.2684 179.539 18.3848ZM174.208 20.7526H166.473V16.0672H174.208C175.515 16.0672 176.561 17.1477 176.561 18.3848C176.561 19.6707 175.515 20.7526 174.208 20.7526Z" fill="#003791"/>
</svg>
